<?xml version="1.0" encoding="UTF-8"?>
<svg id="Layer_1" data-name="Layer 1" xmlns="http://www.w3.org/2000/svg" viewBox="0 0 1000 700">
  <defs>
    <style>
      .cls-1 {
        fill: #002f40;
      }
    </style>
  </defs>
  <g>
    <path class="cls-1" d="M98.28,126.93c.6,60.38,4.06,47.57-33.1,72.96-14.86,23.5,75.31,31.3,61.61,54.56-14.43,18.18-35,21.07-52.39,31.53-42.22,28.14,65.65,31.82,44.82,60.24-8.58,15.57-74.14,30.63-64.77,47.78,9.22,19.33,93.84,28.42,47.23,54.79-7.27,6.43-50.11,16.04-40.63,32.34,6.25,11.86,32.54,14.09,25.93,33.11-12.99,14.33-6.71,34.8-8.11,54.41-.46,26.4-2.13,52.85-.1,79.23h-29.06c-1.5-31.55.44-63.18.66-94.76-1.66-14.38-1.48-27.25,7.09-37.31,8.83-21.03-18.43-22.38-25.15-34.8-9.85-18.37,46.34-27.95,53.62-42.13,12.96-23.5-71.91-28.8-59.72-53.44,35.07-28.17,115.18-39.74,26.4-73.16-5.05-4.17-16.21-5.15-16.26-15.08,15.46-24.98,47.51-18.17,63.77-43.73,6.52-16.02-33.06-23.93-40.6-29.83-42.64-18.59-19.21-25,6.03-42.59,10.38-11.23,3.69-34.48,5.5-50.57-.17-8.23,21.71-1.43,27.25-3.56Z"/>
    <path class="cls-1" d="M916.76,100c0,8.98-.02,17.91-.03,27.11-164.17.05-573.02.45-737.2.01-25.52-.01-51.04.02-76.56,0-5.53,0-5.59-.07-5.69-4.55.02-7.49-.6-14.96-.13-22.43,191.49-.14,627.55,0,819.61-.15Z"/>
    <path class="cls-1" d="M896.71,675.04c-134.45.06-512.95.28-647.42-.03-53.46.03-106.92-.02-160.38-.22-3.14-.68-9.42,1.61-10.25-1.53.06-8.49.03-16.98.03-25.69h818.01v27.47Z"/>
    <path class="cls-1" d="M925.81,647.56h-29.17c-1.93-30.62-.15-60.92.52-91.51,0-11.88-3.71-25.12,3.58-34.35,16.84-21.04-10.84-28.19-20.17-38.71-15.29-19.06,45.04-29.75,51.48-43.1,15.61-23.93-75.96-30.74-57.58-55.09,8.64-11.64,79.14-30.51,62.94-51.18-8.18-13.77-80.06-24.82-44.68-46.49,131.41-54.82-20.6-50.64-9.67-84.56,37.82-28.29,34.3-11.67,33.65-75.53h28.78c.04,59.09,5.5,48.9-32.21,73.65-19.08,24.16,75.55,31.23,60,55.54-16.47,20.87-41.11,19.98-59.34,36.82-13.54,18.63,46.09,29.03,53.08,41.36,17.12,27.01-85.44,39.64-62.9,63.42,17.37,15.23,39.13,16.78,56.76,31.11,15.09,25.77-71.74,30.14-50.61,54.85,10.55,10.07,36.6,17.78,18.75,39.24-7.92,12.72-.51,29.93-3.08,44.94-.62,26.57-1.87,53.01-.1,79.58Z"/>
  </g>
  <g>
    <path class="cls-1" d="M151.77,57.95c-7.1,0-12.56-5.47-12.56-12.62s5.26-12.62,12.25-12.62c3.63,0,6.73,1.58,8.94,3.78l4.57-4.84c-3.31-3.21-7.99-5.26-13.46-5.26-11.46,0-19.4,8.36-19.4,18.92s8.04,18.92,19.5,18.92c6.73,0,12.19-2.89,15.45-7.04l-4.89-4.36c-2.15,2.79-5.62,5.1-10.41,5.1Z"/>
    <path class="cls-1" d="M190.14,40.29c-2-1.63-4.57-2.58-7.46-2.58-6.94,0-12.51,5.78-12.51,13.3,0,3.47,1.26,6.62,3.26,8.94,2.26,2.63,5.83,4.31,9.62,4.31,2.57,0,4.99-.79,7.1-2.58v2.05h6.57v-25.49h-6.57v2.05ZM189.88,54.8c-1.31,1.89-3.57,3.15-6.15,3.15-3.84,0-6.73-2.94-6.73-6.94,0-3.68,2.58-6.99,6.57-6.99,2.63,0,4.89,1.26,6.31,3.15v7.62Z"/>
    <rect class="cls-1" x="204.86" y="26.41" width="6.83" height="37.32"/>
    <rect class="cls-1" x="219.79" y="38.24" width="6.83" height="25.49"/>
    <path class="cls-1" d="M223.21,24.83c-2.47,0-4.47,1.89-4.47,4.36s2,4.36,4.47,4.36,4.47-1.89,4.47-4.36-2-4.36-4.47-4.36Z"/>
    <path class="cls-1" d="M246.23,33.4c.84-1,2.15-1.47,3.84-1.47.63,0,1.47.11,2.05.26l1.05-5.83c-1.42-.37-2.68-.47-4.05-.47-3.47,0-6.15,1.26-7.94,3-1.79,1.73-2.73,4.21-2.73,8.31v1.05h-6.57v5.78h6.57v19.71h6.83v-19.71h7.88v-5.78h-7.88v-.79c0-2.37.37-3.31.95-4.05Z"/>
    <path class="cls-1" d="M269.15,37.71c-7.73,0-13.56,5.94-13.56,13.3s5.83,13.25,13.56,13.25,13.56-5.89,13.56-13.25-5.84-13.3-13.56-13.3ZM269.15,57.95c-4,0-6.73-3.1-6.73-6.94s2.73-6.99,6.73-6.99,6.73,3.15,6.73,6.99-2.73,6.94-6.73,6.94Z"/>
    <path class="cls-1" d="M295.32,40.81v-2.58h-6.57v25.49h6.83v-16.03c.84-1.52,3.21-3.68,6.2-3.68,1,0,2,.11,2.47.26l.79-6.36c-.74-.11-1.31-.21-2.31-.21-3.1,0-5.89,1.21-7.41,3.1Z"/>
    <path class="cls-1" d="M324.34,37.71c-2.84,0-5.26,1-7.2,2.58v-2.05h-6.57v25.49h6.83v-16.56c.95-1.31,3.31-3.15,6.2-3.15,1.58,0,2.94.53,3.84,1.42.95.95,1.52,2.26,1.52,4.78v13.51h6.83v-12.98c0-4.36-.95-6.94-2.63-8.94-2.1-2.52-5.31-4.1-8.83-4.1Z"/>
    <rect class="cls-1" x="343.42" y="38.24" width="6.83" height="25.49"/>
    <path class="cls-1" d="M346.83,24.83c-2.47,0-4.47,1.89-4.47,4.36s2,4.36,4.47,4.36,4.47-1.89,4.47-4.36-2-4.36-4.47-4.36Z"/>
    <path class="cls-1" d="M376.22,40.29c-2-1.63-4.57-2.58-7.47-2.58-6.94,0-12.51,5.78-12.51,13.3,0,3.47,1.26,6.62,3.26,8.94,2.26,2.63,5.83,4.31,9.62,4.31,2.58,0,4.99-.79,7.1-2.58v2.05h6.57v-25.49h-6.57v2.05ZM375.95,54.8c-1.31,1.89-3.57,3.15-6.15,3.15-3.84,0-6.73-2.94-6.73-6.94,0-3.68,2.57-6.99,6.57-6.99,2.63,0,4.89,1.26,6.31,3.15v7.62Z"/>
    <path class="cls-1" d="M422.68,57.95c-7.09,0-12.56-5.47-12.56-12.62s5.26-12.62,12.25-12.62c3.62,0,6.73,1.58,8.93,3.78l4.58-4.84c-3.31-3.21-7.99-5.26-13.46-5.26-11.46,0-19.4,8.36-19.4,18.92s8.04,18.92,19.5,18.92c6.73,0,12.2-2.89,15.45-7.04l-4.89-4.36c-2.16,2.79-5.62,5.1-10.41,5.1Z"/>
    <path class="cls-1" d="M454.69,37.71c-7.73,0-13.56,5.94-13.56,13.3s5.83,13.25,13.56,13.25,13.56-5.89,13.56-13.25-5.84-13.3-13.56-13.3ZM454.69,57.95c-4,0-6.73-3.1-6.73-6.94s2.73-6.99,6.73-6.99,6.73,3.15,6.73,6.99-2.74,6.94-6.73,6.94Z"/>
    <rect class="cls-1" x="474.3" y="26.41" width="6.83" height="37.32"/>
    <rect class="cls-1" x="489.23" y="26.41" width="6.83" height="37.32"/>
    <path class="cls-1" d="M514.46,37.71c-7.57,0-12.41,6.2-12.41,13.3,0,7.99,5.73,13.25,13.35,13.25,3.94,0,7.99-1.63,10.46-4.57l-3.89-3.89c-1.21,1.31-3.52,2.94-6.41,2.94-3.63,0-6.52-2.47-6.89-6.05h17.66c.11-.58.16-1.26.16-1.95,0-7.1-4.99-13.04-12.03-13.04ZM508.99,47.7c.32-2.31,2.63-4.47,5.47-4.47s4.84,2.21,5.05,4.47h-10.51Z"/>
    <path class="cls-1" d="M550.88,40.29c-2-1.63-4.57-2.58-7.47-2.58-6.94,0-12.51,5.78-12.51,13.3,0,3.47,1.21,6.62,3.21,8.94,2.26,2.63,5.89,4.31,9.67,4.31,2.58,0,4.78-.74,6.83-2.31v.84c0,3.26-.52,4.84-1.58,5.99-1.16,1.37-3,2.05-5.2,2.05-4.2,0-6.57-2.21-7.94-3.68l-4.31,4.47c2.52,2.94,7.25,5.26,12.25,5.26s8.99-1.89,11.3-5.1c1.53-2.15,2.31-4.89,2.31-9.46v-24.08h-6.57v2.05ZM550.62,54.8c-1.31,1.89-3.57,3.15-6.15,3.15-3.84,0-6.73-2.94-6.73-6.94,0-3.68,2.57-6.99,6.57-6.99,2.63,0,4.89,1.26,6.31,3.15v7.62Z"/>
    <path class="cls-1" d="M575.9,37.71c-7.57,0-12.41,6.2-12.41,13.3,0,7.99,5.73,13.25,13.35,13.25,3.94,0,7.99-1.63,10.46-4.57l-3.89-3.89c-1.21,1.31-3.52,2.94-6.41,2.94-3.63,0-6.52-2.47-6.89-6.05h17.66c.11-.58.16-1.26.16-1.95,0-7.1-4.99-13.04-12.04-13.04ZM570.43,47.7c.32-2.31,2.63-4.47,5.47-4.47s4.84,2.21,5.05,4.47h-10.51Z"/>
    <path class="cls-1" d="M619.9,37.71c-7.73,0-13.56,5.94-13.56,13.3s5.83,13.25,13.56,13.25,13.56-5.89,13.56-13.25-5.84-13.3-13.56-13.3ZM619.9,57.95c-4,0-6.73-3.1-6.73-6.94s2.73-6.99,6.73-6.99,6.73,3.15,6.73,6.99-2.74,6.94-6.73,6.94Z"/>
    <path class="cls-1" d="M650.44,33.4c.84-1,2.16-1.47,3.84-1.47.63,0,1.47.11,2.05.26l1.05-5.83c-1.42-.37-2.68-.47-4.05-.47-3.47,0-6.15,1.26-7.94,3-1.79,1.73-2.74,4.21-2.74,8.31v1.05h-6.57v5.78h6.57v19.71h6.83v-19.71h7.89v-5.78h-7.89v-.79c0-2.37.37-3.31.95-4.05Z"/>
    <path class="cls-1" d="M688.44,31.14h-6.83v7.1h-7.1v5.78h7.1v8.94c0,3.63.58,5.89,1.89,7.62,1.73,2.31,4.73,3.68,8.83,3.68,1.31,0,3.36-.21,4.26-.53l-1.05-5.78c-.47.11-1.79.26-2.79.26-1.68,0-2.79-.47-3.47-1.26-.58-.68-.84-1.63-.84-3.21v-9.73h8.41v-5.78h-8.41v-7.1Z"/>
    <path class="cls-1" d="M716.4,37.71c-2.63,0-5.05.89-6.94,2.37v-13.67h-6.83v37.32h6.83v-16.56c.95-1.31,3.31-3.15,6.2-3.15,1.58,0,2.94.53,3.84,1.42.94.95,1.52,2.26,1.52,4.78v13.51h6.83v-12.98c0-4.36-.95-6.94-2.63-8.94-2.1-2.52-5.31-4.1-8.83-4.1Z"/>
    <path class="cls-1" d="M745.73,37.71c-7.57,0-12.41,6.2-12.41,13.3,0,7.99,5.73,13.25,13.35,13.25,3.94,0,7.99-1.63,10.46-4.57l-3.89-3.89c-1.21,1.31-3.52,2.94-6.41,2.94-3.63,0-6.52-2.47-6.89-6.05h17.66c.11-.58.16-1.26.16-1.95,0-7.1-4.99-13.04-12.04-13.04ZM740.27,47.7c.32-2.31,2.63-4.47,5.47-4.47s4.84,2.21,5.05,4.47h-10.51Z"/>
    <path class="cls-1" d="M790.09,26.94l-15.77,36.8h7.41l3.47-8.15h14.77l3.47,8.15h7.41l-15.77-36.8h-4.99ZM787.88,49.28l4.68-10.88,4.68,10.88h-9.36Z"/>
    <path class="cls-1" d="M821.16,40.81v-2.58h-6.57v25.49h6.83v-16.03c.84-1.52,3.21-3.68,6.2-3.68,1,0,2,.11,2.47.26l.79-6.36c-.74-.11-1.31-.21-2.31-.21-3.1,0-5.89,1.21-7.41,3.1Z"/>
    <path class="cls-1" d="M848.49,31.14h-6.83v7.1h-7.1v5.78h7.1v8.94c0,3.63.58,5.89,1.89,7.62,1.73,2.31,4.73,3.68,8.83,3.68,1.31,0,3.36-.21,4.26-.53l-1.05-5.78c-.47.11-1.79.26-2.79.26-1.68,0-2.79-.47-3.47-1.26-.58-.68-.84-1.63-.84-3.21v-9.73h8.41v-5.78h-8.41v-7.1Z"/>
    <path class="cls-1" d="M869.25,45.54c0-1.31,1.58-2.05,3.47-2.05s3.57.79,4.89,1.73l3.21-4.94c-1.68-1.31-5.31-2.58-8.62-2.58-5.05,0-9.78,3.05-9.78,7.94,0,8.2,12.35,6.83,12.35,10.67,0,1.26-1.42,2.15-3.26,2.15-2.57,0-5.26-.95-6.99-2.52l-3.31,4.89c3,2.21,6.73,3.42,10.25,3.42,5.36,0,10.15-3,10.15-7.88,0-8.83-12.35-7.52-12.35-10.83Z"/>
  </g>
  <g>
    <g>
      <path class="cls-1" d="M169.86,471.22c0,9.74,7.44,17.18,17.11,17.18,4.58,0,8.3-1.58,11.17-3.87v-10.81h-12.89v-8.59h22.55v22.27c-4.44,5.65-11.88,9.59-21.04,9.59-15.61,0-26.56-11.38-26.56-25.77s10.81-25.77,26.42-25.77c7.45,0,13.82,2.79,18.33,7.16l-6.23,6.59c-3.01-3.01-7.23-5.15-12.17-5.15-9.52,0-16.68,7.66-16.68,17.18Z"/>
      <path class="cls-1" d="M249.39,474.08v22.19h-9.67v-50.11h18.26c5.15,0,8.45,1.43,10.95,3.72,2.72,2.58,4.44,6.23,4.44,10.24s-1.72,7.66-4.44,10.24c-1.36,1.29-3.01,2.29-5.01,2.94l18.76,22.98h-11.95l-17.83-22.19h-3.51ZM257.41,465.49c2.79,0,4.01-.57,4.87-1.5.86-.93,1.43-2.36,1.43-3.8,0-1.5-.57-2.94-1.43-3.87-.86-.93-2.08-1.58-4.87-1.58h-8.02v10.74h8.02Z"/>
      <path class="cls-1" d="M307.08,496.27l21.48-50.11h6.8l21.47,50.11h-10.09l-4.73-11.1h-20.12l-4.73,11.1h-10.09ZM325.56,476.59h12.74l-6.38-14.82-6.37,14.82Z"/>
      <path class="cls-1" d="M400.22,446.16c7.95,0,13.17,1.72,17.26,4.72,6.15,4.58,9.95,12.03,9.95,20.33s-3.8,15.75-9.95,20.33c-4.08,3.01-9.31,4.73-17.26,4.73h-15.75v-50.11h15.75ZM414.11,460.34c-2.79-3.51-6.87-5.59-12.81-5.59h-7.16v32.93h7.16c5.94,0,10.02-2.08,12.81-5.58,2.29-2.86,3.65-6.73,3.65-10.88s-1.36-8.02-3.65-10.88Z"/>
      <path class="cls-1" d="M463.64,491.84c-4.15-3.72-6.44-9.02-6.44-16.68v-28.99h9.66v29.71c0,4.58,1.21,7.37,3.29,9.3,2.15,2.08,5.15,3.22,8.52,3.22s6.37-1.14,8.52-3.22c2.08-1.93,3.29-4.72,3.29-9.3v-29.71h9.67v28.99c0,7.66-2.29,12.96-6.45,16.68-3.86,3.44-9.37,5.15-15.03,5.15s-11.17-1.72-15.03-5.15Z"/>
      <path class="cls-1" d="M524.91,496.27l21.48-50.11h6.8l21.48,50.11h-10.09l-4.73-11.1h-20.11l-4.73,11.1h-10.1ZM543.38,476.59h12.74l-6.37-14.82-6.37,14.82Z"/>
      <path class="cls-1" d="M630.57,446.16v8.59h-13.24v41.52h-9.67v-41.52h-13.24v-8.59h36.15Z"/>
      <path class="cls-1" d="M659.99,446.16h9.67v50.11h-9.67v-50.11Z"/>
      <path class="cls-1" d="M725.56,445.45c15.47,0,26.13,11.53,26.13,25.77s-10.67,25.77-26.13,25.77-26.13-11.53-26.13-25.77,10.67-25.77,26.13-25.77ZM725.56,488.4c9.45,0,16.47-7.73,16.47-17.18s-7.01-17.18-16.47-17.18-16.47,7.73-16.47,17.18,7.02,17.18,16.47,17.18Z"/>
      <path class="cls-1" d="M781.46,446.16h6.8l27.92,32.64v-32.64h9.66v50.11h-6.8l-27.92-32.64v32.64h-9.67v-50.11Z"/>
    </g>
    <g>
      <path class="cls-1" d="M173.44,549.25v10.38h15.39v8.59h-15.39v13.96h21.12v8.59h-30.78v-50.11h30.07v8.59h-20.4Z"/>
      <path class="cls-1" d="M251.4,564.07l17.4,26.7h-11.1l-12.17-19.04-12.17,19.04h-11.1l17.33-26.7-15.18-23.41h11.1l10.02,15.82,10.02-15.82h11.1l-15.25,23.41Z"/>
      <path class="cls-1" d="M333,568.22h-25.06v22.55h-9.66v-50.11h9.66v18.97h25.06v-18.97h9.67v50.11h-9.67v-22.55Z"/>
      <path class="cls-1" d="M376.81,540.66h9.66v50.11h-9.66v-50.11Z"/>
      <path class="cls-1" d="M437.65,540.66c5.66,0,8.81,1.36,11.24,3.51,2.79,2.43,4.65,6.01,4.65,10.09,0,3.29-1.58,6.66-3.22,8.37,4.44,2.22,7.51,7.23,7.51,12.81,0,4.22-1.79,8.09-4.58,10.81-2.79,2.79-6.66,4.51-13.1,4.51h-19.55v-50.11h17.04ZM430.28,559.99h6.8c3.01,0,4.37-.72,5.37-1.79.86-.93,1.43-2.22,1.43-3.58s-.57-2.65-1.43-3.58c-1-1.07-2.36-1.79-5.37-1.79h-6.8v10.74ZM439.94,582.18c3.37,0,5.23-.86,6.45-2.22,1.14-1.22,1.79-2.79,1.79-4.58s-.65-3.36-1.79-4.58c-1.22-1.36-3.08-2.22-6.45-2.22h-9.66v13.6h9.66Z"/>
      <path class="cls-1" d="M488.05,540.66h9.67v50.11h-9.67v-50.11Z"/>
      <path class="cls-1" d="M564.07,540.66v8.59h-13.24v41.52h-9.66v-41.52h-13.24v-8.59h36.15Z"/>
      <path class="cls-1" d="M594.28,540.66h9.67v50.11h-9.67v-50.11Z"/>
      <path class="cls-1" d="M660.63,539.94c15.47,0,26.13,11.53,26.13,25.77s-10.67,25.77-26.13,25.77-26.13-11.53-26.13-25.77,10.67-25.77,26.13-25.77ZM660.63,582.9c9.45,0,16.47-7.73,16.47-17.18s-7.01-17.18-16.47-17.18-16.47,7.73-16.47,17.18,7.02,17.18,16.47,17.18Z"/>
      <path class="cls-1" d="M717.33,540.66h6.8l27.92,32.64v-32.64h9.66v50.11h-6.8l-27.92-32.64v32.64h-9.67v-50.11Z"/>
      <path class="cls-1" d="M797.14,577.39c2.86,3.15,7.23,5.51,11.81,5.51,4.29,0,7.3-2.65,7.3-6.3,0-6.45-9.31-7.23-16.04-11.17-3.94-2.29-7.09-5.73-7.09-11.38,0-8.95,8.23-14.1,16.54-14.1,5.08,0,9.81,1.21,14.53,4.72l-5.01,7.16c-2-1.86-5.37-3.29-8.66-3.29-3.65,0-7.73,1.57-7.73,5.44,0,8.09,23.12,5.59,23.12,22.48,0,8.88-7.95,15.03-16.97,15.03-6.73,0-12.96-2.79-18.11-7.52l6.3-6.59Z"/>
    </g>
    <g>
      <g>
        <path class="cls-1" d="M251.6,243.79h28.96v28.96h-20.51l-50.67,54.29c-7.96,8.44-11.82,14.24-11.82,21.96,0,13.03,0,18.58-.97,22.68-1.93,7.96-9.89,13.27-17.37,13.27-9.17,0-17.37-8.45-17.37-17.86s10.13-18.82,21.48-30.4c5.31-5.07,11.34-11.58,15.44-15.93l52.85-56.47v-20.51ZM163.76,243.79v-28.96h28.96v28.96h-28.96ZM192.72,188.54h87.83v26.3h-87.83v-26.3ZM204.79,381.58v-28.96h96.28v28.96h-96.28ZM280.56,214.84h28.96v28.96h-28.96v-28.96Z"/>
        <path class="cls-1" d="M339.69,207.84c0-9.9,5.55-19.31,23.16-19.31h77.46v28.96h-28.96v-16.65c-14.48.48-21.47,1.45-25.09,2.41-11.82,3.38-13.52,20.99-29.92,20.99-8.45,0-16.65-5.55-16.65-16.41ZM340.9,230.28h29.43v122.34h-29.43v-122.34ZM471.68,362.27c0,9.89-5.55,19.3-23.17,19.3h-78.18v-28.96h28.96v16.89c18.58,0,29.92-1.45,36.92-12.07,3.13-4.82,9.89-11.58,18.82-11.58,8.45,0,16.65,5.55,16.65,16.41ZM470.47,339.83h-30.16v-122.34h30.16v122.34Z"/>
        <path class="cls-1" d="M591.62,243.79h28.96v28.96h-20.51l-50.67,54.29c-7.96,8.44-11.82,14.24-11.82,21.96,0,13.03,0,18.58-.97,22.68-1.93,7.96-9.89,13.27-17.37,13.27-9.17,0-17.37-8.45-17.37-17.86s10.14-18.82,21.48-30.4c5.31-5.07,11.34-11.58,15.44-15.93l52.85-56.47v-20.51ZM503.78,243.79v-28.96h28.96v28.96h-28.96ZM532.74,188.54h87.83v26.3h-87.83v-26.3ZM544.8,381.58v-28.96h96.28v28.96h-96.28ZM620.57,214.84h28.96v28.96h-28.96v-28.96Z"/>
      </g>
      <g>
        <rect class="cls-1" x="680.88" y="217.5" width="30.65" height="135.12"/>
        <rect class="cls-1" x="711.53" y="188.54" width="83.51" height="28.96"/>
        <path class="cls-1" d="M797.21,289.66h-28.96v-16.89c-7.72,0-12.07,0-14.96,2.41-4.58,4.83.24,11.1-9.17,17.62-2.41,1.69-6.03,2.66-9.65,2.66-9.89,0-15.69-7.24-15.69-15.69,0-13.51,11.1-19.07,25.34-19.07h53.1v28.96Z"/>
        <rect class="cls-1" x="797.21" y="289.66" width="28.96" height="50.17"/>
        <path class="cls-1" d="M812.54,362.32c0,9.95-5.58,19.41-23.3,19.41h-77.71s0-29.12,0-29.12h28.96s0,16.39,0,16.98c18.24-.04,29.43-1.6,36.37-12.13,3.15-4.85,9.95-11.65,18.93-11.65,8.49,0,16.75,5.58,16.75,16.5Z"/>
      </g>
    </g>
  </g>
</svg>