<svg xmlns="http://www.w3.org/2000/svg" width="1818.337" height="1077.035" viewBox="398.516 2057.76 1818.337 1077.035"><path d="m0 0-18.899-.427-13.108 248.955c6.096 1.452 12.351.718 18.977 1.586l-.692 18.231c31.157 2.757 62.586 3.03 93.671 7.084 13.86 2.689 26.515 9.672 38.165 17.465 10.398 6.237 20.834 12.526 30.895 19.328 5.323 3.606 9.44 8.612 12.923 13.917 7.482 11.398 16.781 21.211 25.908 31.22 22.166 27.076 46.987 51.777 71.51 76.713 17.736 17.848 36.261 34.993 51.452 55.133 30.859 39.242 69.539 70.718 108.983 100.832 11.279 9.121 22.328 18.563 34.166 26.966 30.505 24.875 56.782 54.603 85.672 81.33 8.734 8.498 17.929 16.428 27.952 23.398 12.953 9.499 19.457 25.004 29.154 37.425 5.243 6.089 10.08 15.035 19.208 14.813 13.827.055 27.656.136 41.478.446 16.449-.188 30.894-7.924 44.668-16.001 8.987-3.258 14.736-10.946 22.545-15.966 27.493-19.062 52.781-41.943 74.652-67.24 9.962-12.192 21.026-23.155 33.831-32.223 28.958-20.732 53.3-46.896 79.788-70.543 18.151-19.577 39.348-36.057 56.685-56.386a3242 3242 0 0 1 56.063-63.352 5599 5599 0 0 1 66.688-65.194c21.596-18.14 36.248-42.944 59.066-59.768 11.236-8.114 17.579-20.4 24.08-32.284 2.097-3.682 5.089-5.283 9.521-5.26 37.352.189 74.585.181 111.957.22v-19.225l.099.116c-36.914.091-73.831.092-110.744-.171-5.644-.046-9.185 1.918-11.658 6.675-6.032 11.651-12.756 23.285-23.549 31.133-22.044 16.434-36.428 40.342-57.143 58.194-22.6 21.924-45.859 43.279-67.69 65.957-27.265 28.57-50.965 60.635-79.7 87.714-22.887 20.429-43.669 43.103-66.736 63.385-23.251 25.445-54.988 41.349-77.015 67.836-28.679 34.276-97.118 97.299-141.204 103.101-15.485.088-30.971-.153-46.456-.303-8.412.108-12.943-8.495-17.897-14.041-5.415-7.506-10.61-15.176-15.717-22.897-9.177-14.073-24.696-21.848-36.481-33.457-18.955-17.768-37.457-36.051-56.212-54.04-33.054-33.958-72.628-60.827-109.185-90.882-39.309-30.525-67.915-71.238-102.436-106.575-30.771-30.771-61.815-61.426-89.744-94.853-8.912-9.825-18.023-19.45-25.279-30.674-3.444-5.328-7.533-10.364-12.844-13.99-18.038-11.403-35.629-24.006-55.198-32.636-34.209-10.814-71.402-7.103-106.82-11.208C-9.28 166.295-3.605 83.144-.095-.135Z" style="fill:#231f20;fill-opacity:1;fill-rule:nonzero;stroke:none" transform="matrix(1.33333 0 0 -1.33333 451.192 3100.317)"/><path d="M0 0v-18.767c-37.438-1.14-74.991-.474-112.47-1.263-5.504-.075-8.918 1.89-11.332 6.49-6.375 12.522-13.946 24.281-25.381 32.811-5.325 4.142-10.345 8.77-14.997 13.659-24.35 27.715-50.964 53.35-77.457 79.01-34.382 30.623-63.598 66.571-93.701 101.287-39.796 37.581-78.046 77.303-120.336 112.186-17.872 12.305-33.645 26.924-47.185 43.879-20.802 23.164-44.645 43.917-69.817 62.166-21.233 16.981-46.576 33.983-74.858 32.764-12.011-1.918-39.316 3.826-46.102-5.579-5.326-6.698-10.57-13.467-15.64-20.358-6.697-8.844-11.441-19.676-20.999-25.93-34.058-25.346-62.378-57.524-92.963-86.814-38.221-34.954-82.167-63.268-119.919-98.845-30.316-26.351-52.007-60.551-81.123-88.089-27.699-27.617-55.377-55.303-80.856-85.007-9.61-10.512-19.417-20.827-27.594-32.534-6.028-8.051-11.616-16.766-20.514-21.96-64.302-43.553-68.811-34.172-143.785-39.856l-1.574 18.357-.095-.135c35.354 4.868 74.775-1.838 106.765 16.387 17.589 11.41 38.389 19.996 52.072 36.315 33.435 44.711 73.273 84.27 112.485 123.869 35.141 33.759 62.007 75.18 100.347 105.735 33.633 28.646 70.116 54.071 103.057 83.473 29.291 27.46 55.845 58.231 87.49 83.001 18.722 12.37 27.424 33.858 41.889 50.328 8.345 10.758 29.082 4.527 41.581 6.443 21.487 2.166 42.174-6.091 59.993-17.618 23.742-15.934 45.457-34.536 66.946-53.374 19.779-16.613 33.177-39.407 53.821-55.067 46.453-33.874 84.942-76.967 127.436-115.415 26.284-27.361 49.617-57.592 76.057-84.896 31.611-31.831 66.022-61.036 95.256-95.166 15.533-19.202 39.131-31.161 48.872-54.975 2.884-5.478 6.687-7.756 13.186-7.652C-74.26-.54-37.067-.405.124-.112z" style="fill:#231f20;fill-opacity:1;fill-rule:nonzero;stroke:none" transform="matrix(1.33333 0 0 -1.33333 2182.663 3070.46)"/><path d="M0 0h18.886l.901-249.062c-6.156-1.105-12.152.751-18.143.262l.124-.112C1.475-165.903.61-82.893.099.116Z" style="fill:#231f20;fill-opacity:1;fill-rule:nonzero;stroke:none" transform="matrix(1.33333 0 0 -1.33333 2180.47 2738.727)"/></svg>