<svg xmlns="http://www.w3.org/2000/svg" width="1152.829" height="644.206" viewBox="2793.86 4807.03 1152.829 644.206"><path d="M0 0c-.003.713-.299 1.425-.523 2.425h-16.99C-19.301-63.937-.715-51.808-68.439-69.328c-47.141-13.927-91.437-36.736-134.551-60.08-22.079-14.012-61.519-29.797-75.448-50.786-9.717-13.006-24.276-21.555-35.763-32.93-13.283-12.568-23.791-27.94-38.671-38.82-20.433-16.326-35.98-37.379-50.906-58.586-5.179-7.33-7.391-15.574-7.287-24.59.387-31.178.42-62.358.792-93.536l17.364.247c-.288 30.575-.647 61.049-1.251 91.607-.22 10.409 2.307 19.754 8.404 28.096 14.502 19.765 28.774 40.014 48.199 55.368 10.243 8.103 19.754 17.021 27.999 27.244 10.281 12.434 23.306 22.235 35.317 32.91 10.647 7.489 15.517 20.468 26.646 27.31 69.73 43.214 142.982 84.444 223.341 103.545 8.075 3.754 24.57 3.248 24.477 14.75C-.03-31.721.065-15.86 0 0" style="fill:#231f20;fill-opacity:1;fill-rule:nonzero;stroke:none" transform="matrix(1.33333 0 0 -1.33333 3936.39 4843.079)"/><path d="M0 0h-17.499c-.579 34.691-1.647 69.466-.591 104.141 9.23 29.967 37.689 57.217 60.94 77.804 8.314 6.641 15.702 14.254 22.443 22.518 12.726 15.884 29.571 27.428 44.382 41.167 15.516 23.781 43.03 34.217 66.508 48.454 46.324 26.013 94.168 50.822 144.958 66.764 67.574 18.437 52.511 3.048 54.098 71.05l17.249.338-.117.086c-.9-73.387 12.513-51.569-57.956-72.482-49.807-16.501-97.002-40.679-142.597-66.515-15.476-9.003-31.299-17.401-46.092-27.546-9.557-5.924-14.659-16.143-22.628-23.737-14.24-12.633-29.771-23.945-41.67-39.011-6.002-7.369-12.739-14.005-20.01-20.09-11.191-9.366-22.296-18.782-31.383-30.346-12.959-17.682-32.574-34.56-31.431-58.314.599-31.451.161-62.932 1.284-94.375Z" style="fill:#231f20;fill-opacity:1;fill-rule:nonzero;stroke:none" transform="matrix(1.33333 0 0 -1.33333 2828.576 5417.711)"/><path d="M0 0v-17.752l-420.104-2.21c.076 6.024-.727 11.822.147 17.645l-.204-.094C-280.06-.84-139.94-1.021.168-.106z" style="fill:#231f20;fill-opacity:1;fill-rule:nonzero;stroke:none" transform="matrix(1.33333 0 0 -1.33333 3388.076 5414.622)"/><path d="M0 0c50.885.112 101.574.255 152.482.322l-.001.001c.875.132.068 16.734.362 17.097-11.924.962-413.767-.616-420.526-1.681V-.471C-178.456-.72-89.228-.116 0 0" style="fill:#231f20;fill-opacity:1;fill-rule:nonzero;stroke:none" transform="matrix(1.33333 0 0 -1.33333 3709.184 4840.655)"/></svg>