<svg xmlns="http://www.w3.org/2000/svg" width="565.094" height="702.974" viewBox="3156.85 463.815 565.094 702.974"><path d="M0 0c-73.074-.838-146.195-.51-219.243-2.055-.221-27.096.487-54.215.516-81.323-.029-8.113 9.664-9.605 15.882-10.696 28.676-4.292 57.587-6.589 86.487-8.747 16.943-1.713 34.215-2.235 50.841-6.02 2.166-.689 2.881-1.856 1.949-3.784-2.755-13.177-.16-27.15-1.611-40.574 2.675-34.96 2.099-69.923.963-104.914 1.304-36.633 2.184-27.899-38.3-34.53-30.528-3.634-61.362-4.288-91.787-8.692-3.545-1.259-10.818-.579-10.125-5.889.609-15.574 1.213-31.148 1.861-46.72 1.561-41.924 4.085-83.768 5.29-125.703l-15.887-.677c-2.093 39.922-3.877 79.843-5.674 119.782-.736 17.728-1.118 35.471-2.205 53.181-.8 5.836 8.978 5.159 12.908 6.349 33.976 3.857 68.156 5.662 102.103 9.768 21.372 4.174 27.54-.449 25.675 25.09-1.187 22.4 1.577 44.722.516 67.104.601 16.866-2.193 33.706-1.582 50.493.683 11.655-.818 23.641 1.039 35.128 1.079 3.029.692 4.138-2.457 4.891-30.54 5.461-61.82 6.21-92.677 9.306-11.706 2.558-60.194 1.018-59.716 15.793-.1 27.134-.544 54.202-.743 81.343l16.42.21v15.922c1.876.596 215.818 2.618 219.436 2.07C-.038 10.88-.203 4.981 0 0" style="fill:#231f20;fill-opacity:1;fill-rule:nonzero;stroke:none" transform="matrix(1.33333 0 0 -1.33333 3481.49 495.414)"/><path d="M0 0c-1.689 46.568-4.274 93.102-5.841 139.677-.298 7.587-.592 15.174-.89 22.761-.896 5.49 9.074 5.166 12.79 6.221 29.869 3.171 59.841 5.284 89.727 8.274 11.362 1.349 23.02 2.099 33.862 6.033 7.916 3.648 2.467 21.629 3.831 29.245.896 34.281 1.711 68.57-1.21 102.782 1.801 13.84-1.065 28.21 1.646 41.792.981 2.186.502 3.404-1.812 3.986-30.895 6.128-62.759 6.248-94.044 9.679-11.45 2.619-60.246 1.196-59.245 15.742-.261 27.697-.448 55.991-.879 83.384h16.509c.698-28.149.416-56.364.741-84.535 1.163-12.783 42.823-11.747 53.756-14.208 33.134-3.558 66.812-3.828 99.574-10.025 2.084-.706 2.822-1.663 1.978-3.574-2.577-11.338-.597-23.271-1.333-34.855.877-36.858 2.373-73.763.707-110.661-1.53-21.864 8.481-28.968-18.448-32.241-32.122-4.404-64.519-6.25-96.78-9.281-35.661-4.741-22.8 1.03-23.516-47.998C12.819 81.735 15.028 41.284 16.422.812 10.951.194 5.428.035-.067.076Z" style="fill:#231f20;fill-opacity:1;fill-rule:nonzero;stroke:none" transform="matrix(1.33333 0 0 -1.33333 3510.827 1121.602)"/><path d="m0 0 .778-16.744-218.577-9.723-.73 16.121C-145.677-6.562-72.764-3.935.069-.079z" style="fill:#231f20;fill-opacity:1;fill-rule:nonzero;stroke:none" transform="matrix(1.33333 0 0 -1.33333 3510.738 1121.5)"/></svg>