<svg xmlns="http://www.w3.org/2000/svg" width="1002.541" height="929.176" viewBox="1742.92 4094.36 1002.541 929.176"><path d="M0 0c-1.18-15.78-1.705-31.598-2.563-47.397-.152-2.827 1.026-4.741 3.342-6.127 15.914-6.412 34.081-5.319 50.975-7.242 24.236-1.534 48.485-2.914 72.716-4.537 13.443-.981 26.967-1.732 40.246-4.084 4.171-.511 4.486-6.533.637-7.487-30.928-8.278-63.588-7.228-95.303-10.41C35.131-90.161.119-92.421-34.59-97.336c-4.43-1.165-11.714-1.298-11.912-7.306-.612-10.693-1.353-21.378-2.074-32.064-1.333-18.016-2.488-36.039-3.282-54.086-.845-9.162 42.239-7.415 50.377-9.291 47.052-3.423 94.427-3.657 141.272-9.321 2.24-.638 2.81-1.262 3.014-3.17 1.216-9.55-27.715-7.203-34.616-9.004-63.331-5.131-127.063-5.957-190.185-13.36-3.153-.969-8.343-.612-8.895-4.797-1.03-9.44.938-18.796 1.235-28.181.025-11.094-1.442-22.173-1.984-33.246-4.567-8.785 71.413-9.251 80.3-11.121 48.419-3.322 97.092-4.552 145.265-10.644 2.55-.769 6.954-1.251 6.824-4.749.807-8.386-25.811-7.993-32.155-9.487-30.277-2.919-60.707-4.18-90.92-7.776-5.181-1.471-14.763-.936-14.978-8.177-4.829-21.19-5.137-43.124-7.973-64.641.227-6.282-4.272-15.668 3.274-18.892 30.349-9.137 63.124-7.407 94.47-11.009 5.925-1.357 58.772-1.977 35.428-12.733-24.017-6.114-48.915-7.081-73.365-10.666-22.825-4.203-23.268-1.839-18.427-25.135 7.6-44.569 15.392-89.066 22.913-133.654l-15.899-2.743c-8.947 48.474-16.984 97.111-25.443 145.675-.108 3.451-3.277 8.973.903 11.011 7.973 3.872 17.188 4.113 25.802 5.711 22.325 3.234 45.087 4.007 66.988 9.708 24.203 11.369-34.193 12.17-39.995 13.334-27.211 2.077-54.508 3.592-81.487 7.885-15.361 2.756-13.201 7.834-11.783 21.043 1.875 19.408 3.79 38.813 6.176 58.166 1.329 3.696.671 9.561 4.391 11.694 7.969 3.677 16.938 3.591 25.488 4.817 34.742 4.067 70.294 3.058 104.559 10.38 10.269 2.73 5.025 10.102-3.095 10.696-73.149 9.084-147.544 7.071-220.501 17.309-2.72.963-3.459 1.94-3.276 4.821.653 11.483 2.483 22.92 2.047 34.446-.942 8.56-1.864 17.135-1.459 25.764.115 4.785 6.891 4.313 10.263 5.41 61.478 6.554 123.373 8.16 185.015 12.67 6.148 1.386 50.037.578 36.037 12.482-45.923 6.043-92.588 5.871-138.79 9.296-8.765 1.781-53.568.169-53.472 9.288 1.559 28.972 3.514 57.925 5.498 86.867 1.075 8.971 26.771 7.517 34.219 9.581 30.18 3.173 60.444 5.554 90.713 7.692 26.998 2.481 54.344 2.68 80.969 8.161 2.995 1.164 8.876 1.176 8.476 5.359-.093 2.61-.458 3.318-3.007 3.874-14.452 3.074-29.351 3.043-44.024 4.422-27.405 1.847-54.844 3.225-82.236 5.268C9.78-58.6-2.951-58.425-14.672-54.073c-3.228 1.241-4.762 3.611-4.539 7.292 1.022 15.904 1.438 31.745 2.563 47.658C-11.004.557-5.467.243.067-.069z" style="fill:#231f20;fill-opacity:1;fill-rule:nonzero;stroke:none" transform="matrix(1.33333 0 0 -1.33333 1897.162 4163.21)"/><path d="m0 0 2.853-16.114c-82.288-14.418-288.749-49.695-368.416-63.378-25.853-3.496-51.844-2.896-77.902-4.04.804 1.622 2.606 1.711 3.643 2.973l-.578 4.776C-321.577-55.701-120.982-20.39.069-.065z" style="fill:#231f20;fill-opacity:1;fill-rule:nonzero;stroke:none" transform="matrix(1.33333 0 0 -1.33333 2563.698 4902.157)"/><path d="M0 0c-5.774 37.09-12.688 74.009-18.997 111.015-2.232 9.22 11.015 8.461 16.977 10.248 25.696 4.653 52.796 3.806 77.626 12.202 13.768 10.832-32.667 10.397-37.928 11.865-28.78 2.252-57.681 3.781-86.22 8.322-17.785 2.851-11.677 11.379-11.191 24.948 1.763 18.453 3.802 36.877 6.05 55.278 2.317 12.661 4.491 11.718 16.236 14.029 38.602 5.13 77.972 4.163 116.221 11.617 3.083.879 7.087 1.713 6.611 5.74-.11 4.376-6.237 4.287-9.37 5.284-51.321 5.867-103.035 7.286-154.532 11.037-13.308.805-26.609 1.733-39.891 2.897-6.138 1.629-28.648-.356-27.953 7.765.747 15.295 3.161 30.628.869 45.885-1.802 19.17-.859 19.155 18.065 21.116 61.478 5.687 123.234 7.63 184.783 12.373 6.524 1.687 34.485-.664 29.735 10.353-.649.909-2.064 1.454-3.236 1.761-39.875 4.977-80.305 5.32-120.408 7.9-21.835 1.788-43.983 1.517-65.548 5.628-8.991 1.048-3.932 11.98-4.652 18.097.562 9.414 1.184 18.823 1.795 28.234.682 10.527 1.379 21.053 2.071 31.58 1.507 5.893-2.102 16.173 5.181 18.421 37.374 7.752 76.002 8.483 113.968 12.048 31.266 3.457 63.655 1.839 94.046 10.603 3.206 1.452 2.812 7.208-1.201 7.302-14.544 3.003-29.52 2.963-44.272 4.347-38.617 3.516-77.956 2.449-116.06 9.948-3.715.961-7.535 3.56-7.08 7.968.684 12.048 1.204 24.106 1.783 36.161l-.069-.067 16.438-1.001c-.326-11.771-1.077-23.495-1.635-35.255-.402-6.802 7.655-8.232 12.78-9.318 42.452-6.061 85.575-5.949 128.276-9.703 9.099-.957 18.385-1.253 27.309-3.318 3.066-.351 3.342-5.962.561-6.903-31.271-8.696-64.51-7.562-96.663-10.783-31.527-2.349-63.032-5.112-94.453-8.606-6.636-1.978-20.228-.115-21.467-8.879-.632-11.251-1.503-22.487-2.211-33.733-1.08-17.148-2.106-34.3-3.134-51.451-1.53-7.238 12.017-6.308 16.748-7.603 57.195-5.301 114.758-5.51 171.923-11.169 2.296-.471 5.785-.42 6.125-3.442 3.045-10.757-40.996-8.695-48.77-10.377-58.528-4.197-117.308-5.633-175.618-12.413-3.167-.847-8.419-.856-8.684-5.1-.545-6.245-.266-12.488.636-18.636 1.888-13.812-.552-27.571-1.303-41.359-4.772-10.293 54.038-8.98 62.011-10.967 54.202-4.234 108.768-5.193 162.731-11.881 4.554-.082 10.017-5.173 4.9-8.842-14.472-5.373-30.377-5.021-45.564-6.763-23.805-1.819-47.64-3.316-71.379-5.909-12.906-1.806-18.671-1.69-20.228-16.336-2.891-22.102-4.816-44.324-7.174-66.489-2.498-9.373 8.261-11.48 15.241-12.644 34.299-5.116 69.038-6.18 103.519-9.662 5.889-.816 12.013-1.028 17.669-2.953 6.741-3.81-.493-8.167-5.17-8.903-21.411-5.213-43.655-5.921-65.405-9.154-22.738-5.112-27.19.901-21.326-25.101 5.22-31.41 11.068-62.718 16.156-94.139C10.677 2.103 5.351 1.333-.068.065Z" style="fill:#231f20;fill-opacity:1;fill-rule:nonzero;stroke:none" transform="matrix(1.33333 0 0 -1.33333 2563.377 4902.157)"/><path d="M0 0c-147.712-9.603-295.475-18.393-443.205-27.685l.147-.059c-.564 5.569-.938 11.323.008 16.854L-.002 16.717-.134-.079z" style="fill:#231f20;fill-opacity:1;fill-rule:nonzero;stroke:none" transform="matrix(1.33333 0 0 -1.33333 2488.003 4126.654)"/></svg>