<svg xmlns="http://www.w3.org/2000/svg" width="497.443" height="518.424" viewBox="1728.6 556.09 497.443 518.424"><path d="m0 0-15.262-.933c-1.659 22.433-2.435 44.608-3.76 67.023-1.9 10.258 1.242 37.515-5.802 43.209-3.649 3.847-15.121 9.039-8.935 15.067 17.186 15.573 117.902 24.114 44.827 43.762-16.942 5.744-34.944 8.987-50.872 17.351-14.636 8.685 11.826 15.594 18.113 18.868 26.935 10.736 88.347 23.211 21.61 37.315-18.44 4.568-36.976 8.76-55.387 13.443-66.44 18.155 37.997 25.453 53.425 36.372 3.928 1.832 8.165 4.77 7.83 9.671-.261 11.619-.619 22.623-.532 34.366 4.87.757 10.001.162 15.472.763.607 5.164-.125 10.348-.164 15.932l211.01 5.148.378-16.245.084.078c-70.355-2.205-140.749-3.246-211.118-5.337.064-11.221.356-22.238.716-33.425.163-4.356-1.453-7.612-5.256-9.465-13.281-11.788-122.109-19.217-57.967-37.396 27.975-8.473 58.004-11.617 84.889-22.998 12.276-9.4-20.518-17.402-26.499-20.272-11.624-5.172-69.339-17.824-32.84-30.736 18.535-6.697 37.575-11.868 56.355-17.802 18.995-5.989 16.305-12.319-.739-18.582-19.08-7.07-40.805-9.635-57.795-21.145-5.558-5.762 5.315-10.694 8.793-14.312 7.915-6.901 3.737-27.827 5.756-38.508C-2.558 47.438-.721 23.689-.063-.1z" style="fill:#231f20;fill-opacity:1;fill-rule:nonzero;stroke:none" transform="matrix(1.33333 0 0 -1.33333 1841.759 1042.566)"/><path d="M0 0h15.808c.962-12.602.456-25.272 1.201-37.899.222-5.117-1.753-8.399-6.091-10.788-15.493-11.9-122.561-18.709-54.238-37.562 27.408-8.061 57.092-10.944 83.05-22.862 10.649-10.379-29.739-18.875-36.068-22.497-12.222-5.626-57.764-15.891-23.871-27.993 19.895-6.662 40.068-12.504 59.956-19.192 27.176-10.311-14.782-20.505-24.739-23.576-12.413-4.309-26.335-6.049-37.164-13.858-6.578-5.311 2.743-10.619 6.664-13.974 4.034-2.869 5.565-6.625 5.775-11.639 1.107-28.861 3.533-57.672 4.6-86.52-4.96-1.217-10.045-.319-15.121-1.381-.552-5.32.365-10.517.332-16.08l-210.579-11.752a706 706 0 0 1-1.466 16.461l-.063-.1c70.394 3.677 140.874 7.394 211.208 11.84-.871 29.731-3.169 59.342-4.389 89.06-.178 3.792-1.525 6.745-4.452 9.075-6.006 4.802-16.491 11.633-4.902 17.025 13.529 7.211 28.958 9.618 43.345 14.598 13.954 4.904 41.016 13.107 11.575 22.397-19.79 6.226-39.962 11.359-59.3 18.941-31.576 12.64 27.836 25.304 37.51 30.054 6.023 2.924 36.227 10.264 24.759 19.665C-.379-97.529-27.429-95.381-52.447-88.049-132.445-67.224-24.371-62.531-4.1-48.301c3.667 2.182 5.391 5.187 5.244 9.519C.705-25.832.426-12.876.084.078z" style="fill:#231f20;fill-opacity:1;fill-rule:nonzero;stroke:none" transform="matrix(1.33333 0 0 -1.33333 2151.026 587.75)"/></svg>