<svg xmlns="http://www.w3.org/2000/svg" width="882.593" height="342.015" viewBox="4117.49 4142.46 882.593 342.015"><path d="M0 0v-16.435c-79.656-.139-452.34-.654-532.002-.499-12.382-.009-24.765-.045-37.147-.05-2.685-.001-2.713.036-2.763 2.752.005 4.539-.299 9.066-.078 13.594C-479.077-.425-93.189-.213 0 0" style="fill:#231f20;fill-opacity:1;fill-rule:nonzero;stroke:none" transform="matrix(1.33333 0 0 -1.33333 4945.553 4152.463)"/><path d="M0 0c-65.412-.037-423.862-.164-489.281.015-26.009-.015-52.017.014-78.025.132-1.526.406-4.582-.953-4.987.91.031 5.038.016 10.077.016 15.241H0Z" style="fill:#231f20;fill-opacity:1;fill-rule:nonzero;stroke:none" transform="matrix(1.33333 0 0 -1.33333 4931.357 4474.372)"/><path d="M0 0h-16.343c-1.079 12.243-.083 24.36.293 36.59.005 4.751-2.077 10.045 2.005 13.733 9.435 8.413-6.073 11.27-11.297 15.476-8.564 7.62 25.23 11.894 28.839 17.232 8.743 9.567-42.551 12.292-32.257 22.029 4.841 4.656 44.332 12.197 35.258 20.464-4.58 5.506-44.847 9.923-25.032 18.589 73.616 21.92-11.539 20.246-5.42 33.809 21.186 11.311 19.215 4.665 18.848 30.202h16.124c.024-23.627 3.079-19.554-18.046-29.45-10.688-9.66 42.321-12.487 33.609-22.208-9.224-8.345-23.031-7.989-33.24-14.721-7.586-7.448 25.82-11.606 29.732-16.536 9.59-10.799-47.864-15.851-35.238-25.36 9.73-6.088 21.922-6.709 31.795-12.438C28.082 77.105-20.557 75.36-8.723 65.479c5.91-4.026 20.503-7.11 10.5-15.689-4.435-5.088-.288-11.967-1.724-17.97C-.294 21.197-.991 10.626 0 0" style="fill:#231f20;fill-opacity:1;fill-rule:nonzero;stroke:none" transform="matrix(1.33333 0 0 -1.33333 4953.348 4452.205)"/><path d="M0 0c.332-24.041 2.257-18.939-18.412-29.049-8.268-9.355 41.889-12.462 34.268-21.722C7.83-58.01-3.612-59.162-13.286-63.324c-23.481-11.203 36.514-12.671 24.932-23.983-4.771-6.201-41.24-12.195-36.028-19.022 5.13-7.697 52.195-11.314 26.27-21.816-4.043-2.559-27.872-6.386-22.601-12.875 3.478-4.72 18.1-5.61 14.423-13.183-7.224-5.704-3.732-13.855-4.508-21.664-.255-10.513-1.186-21.04-.056-31.544h-16.167c-.832 12.562.247 25.155.366 37.728-.924 5.725-.82 10.849 3.946 14.853 4.912 8.373-10.249 8.911-13.989 13.854-5.479 7.315 25.773 11.13 29.824 16.775 7.208 9.355-40 11.468-33.219 21.275 19.507 11.218 64.064 15.822 14.685 29.127-2.806 1.662-9.017 2.051-9.046 6.003 8.598 9.945 26.427 7.235 35.469 17.413 3.629 6.378-18.386 9.527-22.584 11.875-23.716 7.402-10.682 9.955 3.354 16.956 5.772 4.471 2.055 13.729 3.058 20.134C-15.253 1.858-3.08-.85 0 0" style="fill:#231f20;fill-opacity:1;fill-rule:nonzero;stroke:none" transform="matrix(1.33333 0 0 -1.33333 4181.842 4175.633)"/></svg>