<svg xmlns="http://www.w3.org/2000/svg" width="992.972" height="702.63" viewBox="2953.62 6355.41 992.972 702.63"><path d="M0 0c-.468 5.497-.634 10.998-.146 16.487.784 11.315-1.295 23.079 1.26 34.123 5.021 7.794-46.748 8.247-52.788 9.806-28.9 2.156-57.812 4.453-86.488 8.746-6.243 1.092-15.894 2.581-15.882 10.695-.033 27.09-.727 54.191-.52 81.269-5.535.544-11.17-.109-16.729.013.199-27.139.642-54.21.743-81.342-.175-4.951 3.864-7.508 8.034-8.719 29.028-6.807 59.126-7.168 88.7-10.113 18.533-2.094 37.384-2.425 55.658-6.267 5.256-.768 1.812-4.966 1.75-8.369-.144-10.546-.15-21.102-.331-31.651-.612-16.786 2.182-33.627 1.582-50.493 1.061-22.382-1.705-44.704-.516-67.104 1.817-25.386-4.076-20.943-25.677-25.09-33.946-4.106-68.126-5.911-102.101-9.768-4.048-1.294-13.589-.381-12.909-6.348 1.088-17.711 1.469-35.454 2.206-53.181 1.797-39.94 3.58-79.861 5.673-119.783l15.888.677c-1.206 41.934-3.729 83.779-5.291 125.703-.648 15.572-1.252 31.146-1.861 46.719-.758 5.279 6.641 4.673 10.125 5.89 30.425 4.404 61.26 5.058 91.787 8.694 8.762 2.174 35.929 1.13 38.303 10.583C.27-79.253 3.127-39.566 0 0" style="fill:#231f20;fill-opacity:1;fill-rule:nonzero;stroke:none" transform="matrix(1.33333 0 0 -1.33333 3192.012 6604.658)"/><path d="M0 0c-1.689 46.568-4.274 93.102-5.841 139.677-.298 7.587-.592 15.174-.89 22.761-.896 5.49 9.074 5.166 12.79 6.221 29.87 3.171 59.841 5.285 89.727 8.274 11.362 1.349 23.02 2.099 33.862 6.033 7.916 3.648 2.467 21.629 3.831 29.245.896 34.281 1.711 68.57-1.21 102.782 1.801 13.84-1.065 28.21 1.646 41.792.981 2.186.502 3.404-1.812 3.986-30.895 6.128-62.759 6.248-94.044 9.679-11.45 2.619-60.246 1.195-59.245 15.742-.261 27.697-.448 55.991-.878 83.384h16.508c.698-28.149.417-56.364.741-84.535 1.163-12.783 42.823-11.747 53.756-14.209 33.134-3.557 66.812-3.827 99.574-10.024 2.084-.706 2.822-1.663 1.978-3.573-2.577-11.339-.597-23.271-1.333-34.856.877-36.858 2.373-73.763.707-110.661-1.53-21.864 8.481-28.968-18.448-32.242-32.122-4.403-64.519-6.249-96.78-9.28-35.661-4.741-22.8 1.03-23.516-47.998C12.819 81.735 15.028 41.284 16.422.812 10.951.194 5.428.035-.067.076Z" style="fill:#231f20;fill-opacity:1;fill-rule:nonzero;stroke:none" transform="matrix(1.33333 0 0 -1.33333 3735.474 7013.2)"/><path d="m0 0 1.906-16.746-540.225-9.204-1.79 16.122C-359.998-6.216-179.927-3.764.17-.079z" style="fill:#231f20;fill-opacity:1;fill-rule:nonzero;stroke:none" transform="matrix(1.33333 0 0 -1.33333 3735.449 7013.442)"/><path d="M0 0v-15.921c180.023 1.04 360.353 1.221 540.456 1.885l-.142 16.107C531.406 2.618 4.618.597 0 0" style="fill:#231f20;fill-opacity:1;fill-rule:nonzero;stroke:none" transform="matrix(1.33333 0 0 -1.33333 2985.52 6368.297)"/></svg>