<svg xmlns="http://www.w3.org/2000/svg" width="757.747" height="518.429" viewBox="3188.4 5644.11 757.747 518.429"><path d="M0 0c.075-5.572 1.47-10.745.321-15.898.169-.051.282-.275.421-.424l.031-.031c134.86 2.079 269.654 3.139 404.499 5.326l-.72 16.175z" style="fill:#231f20;fill-opacity:1;fill-rule:nonzero;stroke:none" transform="matrix(1.33333 0 0 -1.33333 3329.45 5660.977)"/><path d="M0 0c-21.155 10.234-44.997 13.843-66.843 22.533-14.72 5.47-16.938 11.489-1.26 18.118 19.684 9.959 43.075 12.367 61.298 25.005C5.233 77.459-40.912 82.301-47.599 85.359c-19.559 5.287-39.804 8.439-58.578 16.207-21.505 10.034 16.172 15.887 23.602 18.242 16.145 4.39 33.197 6.205 48.148 14.127 3.803 1.853 5.42 5.108 5.257 9.464-.36 11.164-.65 22.154-.717 33.352a1.4 1.4 0 0 0-.229.494c-5.456-.594-10.574-.004-15.433-.76-.085-11.733.272-22.748.532-34.365.335-4.907-3.901-7.831-7.829-9.673-15.376-10.907-119.876-18.216-53.426-36.369 27.354-7.744 56.301-11.334 82.598-22.18 19.686-12.274-59.861-28.767-67.199-37.07C-111.25 24.654-46.854 12.93-39.736 9.099c73.055-19.656-27.589-28.166-44.827-43.761-6.197-6.098 5.301-11.13 8.934-15.068 7.052-5.803 3.891-32.712 5.805-43.208 1.324-22.417 2.099-44.585 3.758-67.023l15.197.929c-.661 23.757-2.494 47.474-3.606 71.216-2.02 10.583 2.169 31.632-5.752 38.508-25.781 16.143 5.14 20.702 18.939 26.171C-34.778-19.757 14.463-11.018 0 0" style="fill:#231f20;fill-opacity:1;fill-rule:nonzero;stroke:none" transform="matrix(1.33333 0 0 -1.33333 3369.3 5918.55)"/><path d="M0 0c-7.277 8.414-95.434 23.08-77.112 36.199 19.074 11.581 41.67 16.34 62.135 25.067 28.108 13.337-12.591 18.739-23.548 22.372-22.591 6.116-46.015 9.515-67.801 18.252-32.677 14.096 63.662 23.249 70.385 31.902 4.339 2.388 6.315 5.67 6.092 10.786-.745 12.63-.24 25.295-1.201 37.9h-15.722c.341-12.928.62-25.858 1.058-38.783.147-4.331-1.577-7.336-5.244-9.518-20.227-14.211-128.363-18.933-48.347-39.749 25.018-7.329 52.069-9.48 75.786-20.506C-11.966 64.61-42.366 57.1-48.276 54.255c-9.617-4.722-69.105-17.424-37.511-30.052 19.338-7.584 39.509-12.717 59.3-18.943 29.372-9.243 2.454-17.505-11.575-22.397-14.386-4.98-29.816-7.386-43.346-14.596-11.58-5.348-1.111-12.274 4.904-17.027 2.926-2.329 4.273-5.282 4.451-9.075 1.221-29.69 3.51-59.283 4.389-88.987l.668-.425c5.044 1.03 10.094.156 15.021 1.365-1.067 28.847-3.493 57.659-4.599 86.52-.211 5.013-1.742 8.769-5.776 11.639-15.038 9.804-8.608 15.085 5.076 20.071C-49.799-23.51 13.834-11.911 0 0" style="fill:#231f20;fill-opacity:1;fill-rule:nonzero;stroke:none" transform="matrix(1.33333 0 0 -1.33333 3933.535 5919.076)"/><path d="M0 0c-.396.132-.797.261-1.188.396-134.864-4.433-269.793-8.149-404.686-11.832 1.058-5.551 1.955-10.655 2.792-16.36L.642-16.044C.705-10.494-1.042-5.308 0 0" style="fill:#231f20;fill-opacity:1;fill-rule:nonzero;stroke:none" transform="matrix(1.33333 0 0 -1.33333 3842.74 6115.475)"/></svg>