<svg xmlns="http://www.w3.org/2000/svg" width="756.74" height="555.648" viewBox="4819.68 993.51 756.74 555.648"><path d="M0 0c-1.798 20.006-4.352 39.969-1.666 59.983-1.536 11.254 7.957 23.44.228 33.38-9.595 11.867-21.833 21.155-32.887 31.582-23.175 21.391-46.669 42.864-73.091 60.164-19.095 11.728-36.792 25.788-57.264 35.152-19.704 8.609-39.399 17.237-59.033 26.001-21.337 9.654-41.304 24.242-54.782 43.508-7.813 8.907-20.632 15.388-20.023 28.813-1.989 28.771 6.699 24.683-17.226 24.673V359.6c-54.599-1.048-109.141-2.338-163.732-3.573a14146 14146 0 0 0-53.322-1.09c-3.952.477-.591-13.612-1.449-16.716 55.954 1.356 111.912 2.53 167.871 3.656 16.258.339 32.516.675 48.772 1.076 1.639.041 2.18-.379 2.198-2.079.331-36.039-1.901-28.015 21.981-52.932 24.05-33.966 65.416-46.366 101.64-62.878 65.311-29.781 119.672-78.75 171.118-127.917 5.631-5.646 7.456-12.307 4.77-20.107-2.782-8.099-1.612-16.907-2.675-25.326-1.952-23.01 2.488-46.121 3.786-69.123C5.916-16.4 1.448-20.11 0 0" style="fill:#231f20;fill-opacity:1;fill-rule:nonzero;stroke:none" transform="matrix(1.33333 0 0 -1.33333 5564.245 1482.979)"/><path d="M0 0c-.829-38.066 5.764-26.581 25.156-52.465 31.014-39.104 83.602-47.778 124.93-71.973 49.741-29.094 94.041-65.99 135.409-105.926 7.304-7.496 18.21-15.395 14.206-27.274-3.212-12.218-3.153-25.032-3.76-37.548.673-21.929 4.914-43.655 4.568-65.582.001-2.449.008-2.445 2.399-2.348 4.524.227 8.956.283 13.495.598.577 24.431-4.652 48.386-3.993 72.843 1.121 11.094.524 22.411 3.839 33.175 1.279 4.298.83 8.717-1.85 12.502-15.19 18.267-34.765 32.681-51.586 49.487-34.099 30.177-71.728 57.076-112 78.334C111.851-97.913 66.509-85.724 39.416-50.03 17.982-24.885 16.113-35.348 16.572 1.849 13.639 1.057-.347 3.254 0 0" style="fill:#231f20;fill-opacity:1;fill-rule:nonzero;stroke:none" transform="matrix(1.33333 0 0 -1.33333 4829.774 1034.534)"/><path d="M0 0c71.843.116 145.615 5.89 218.115 7.836v16.845L-.759 15.699C-.518 10.24-.322 5.116 0 0" style="fill:#231f20;fill-opacity:1;fill-rule:nonzero;stroke:none" transform="matrix(1.33333 0 0 -1.33333 5253.646 1539.16)"/></svg>