<svg xmlns="http://www.w3.org/2000/svg" width="552.222" height="441.203" viewBox="991.34 1432.19 552.222 441.203"><path d="M0 0c-2.518-7.284-5.491-14.274-10.758-20.102-6.473-7.613-10.884-16.779-17.477-24.358-4.419-5.601-7.83-11.721-10.367-18.366-7.776-19.856-18.766-38.273-31.348-55.414-15.451-25.108-27.772-51.999-40.227-78.685-3.752-7.973-6.993-16.192-11.447-23.805-4.84-10.155-6.712-21.458-12.151-31.393-3.833-8.675-2.32-18.579-3.611-27.797h-16.833c.497 9.953-.134 20.537 4.373 29.688 2.619 5.656 4.952 11.418 6.606 17.415 4.835 14.467 13.021 27.547 18.745 41.703 9.946 22.194 21.098 43.758 32.617 65.107 10.492 15.791 21.597 31.309 29.73 48.526 5.661 11.439 9.07 24.256 17.668 33.998 4.191 5.006 7.673 10.465 11.139 15.967 5.688 8.017 12.714 15.195 15.328 24.96.831 2.507.806 2.54 3.417 2.551C-9.771.013-4.946 0 0 0" style="fill:#231f20;fill-opacity:1;fill-rule:nonzero;stroke:none" transform="matrix(1.33333 0 0 -1.33333 1206.965 1466.752)"/><path d="M0 0c1.786 9.602-.217 20.192 4.568 29.093C13.1 52.197 23.346 74.389 34.129 96.585c7.662 18.415 17.608 35.622 26.742 53.294 6.514 13.199 17.212 23.785 23.76 37.012 6.639 11.396 12.108 23.343 17.009 35.576 8.702 15.535 20.664 29.203 30.586 43.958 9.021 17.24 1.068 15.229 22.532 14.701-4.989-17.743-18.566-31.368-28.714-46.39-8.809-11.101-12.27-25.125-18.979-37.427-5.816-11.208-12.058-22.254-19.74-32.311-17.77-26.614-30.559-56.231-44.12-85.144-8.088-16.267-15.059-32.772-21.353-49.785-4.635-9.355-3.62-19.558-4.744-29.74C11.429.2 5.623.593-.036.034Z" style="fill:#231f20;fill-opacity:1;fill-rule:nonzero;stroke:none" transform="matrix(1.33333 0 0 -1.33333 1327.217 1839.608)"/><path d="M0 0v-17.339l-227.21-.536V-.51c75.756.066 151.491.343 227.245.477z" style="fill:#231f20;fill-opacity:1;fill-rule:nonzero;stroke:none" transform="matrix(1.33333 0 0 -1.33333 1327.17 1839.563)"/><path d="M0 0c1.62 5.569.648 11.305.988 17.097l226.661.923c.662-1.687.328-14.859-.407-16.549z" style="fill:#231f20;fill-opacity:1;fill-rule:nonzero;stroke:none" transform="matrix(1.33333 0 0 -1.33333 1207.626 1466.214)"/></svg>