<svg xmlns="http://www.w3.org/2000/svg" width="900.291" height="644.216" viewBox="4121.35 2204.85 900.291 644.216"><path d="M0 0v16.296c3.72 1.064 224.839 2.642 231.4 1.68V1.164h17.039c1.473-16.525.044-33.357.746-50.003.069-4.426-1.734-7.205-5.561-8.59-19.659-7.296-40.273-11.447-60.348-17.369-53.3-19.439-103.956-45.784-152.91-74.336-9.826-5.726-19.381-11.923-28.998-18.001-11.129-6.843-16.001-19.822-26.648-27.31-12.01-10.676-25.035-20.476-35.316-32.91-16.899-21.274-41.231-34.959-57.089-57.158-6.606-8.297-12.849-16.888-19.109-25.454-6.097-8.343-8.624-17.687-8.404-28.096.604-30.559.964-61.031 1.251-91.607l-17.455-.248.092-.107c-.372 31.213-.406 62.43-.793 93.643-.104 9.016 2.108 17.26 7.287 24.59 14.925 21.207 30.474 42.261 50.907 58.586 14.881 10.882 25.386 26.252 38.669 38.822 11.484 11.372 26.051 19.924 35.766 32.926 13.815 20.91 53.47 36.844 75.445 50.788 43.116 23.345 87.41 46.153 134.551 60.081 66.405 17.386 49.94 4.763 50.744 71.467C154.122.791 77.022-.108-.117.086Z" style="fill:#231f20;fill-opacity:1;fill-rule:nonzero;stroke:none" transform="matrix(1.33333 0 0 -1.33333 4679.388 2239.22)"/><path d="M0 0h-17.499c-.579 34.691-1.647 69.467-.591 104.141 9.23 29.967 37.689 57.217 60.94 77.804 8.314 6.641 15.702 14.254 22.443 22.518 12.726 15.884 29.571 27.428 44.382 41.167 15.516 23.781 43.03 34.217 66.508 48.454 46.324 26.013 94.168 50.822 144.958 66.764 67.574 18.437 52.511 3.048 54.098 71.05l17.249.338-.117.086c-.9-73.387 12.513-51.569-57.956-72.481-49.807-16.502-97.002-40.68-142.597-66.516-15.476-9.003-31.299-17.4-46.092-27.546-9.557-5.924-14.659-16.143-22.628-23.737-14.24-12.633-29.771-23.945-41.67-39.011-6.002-7.369-12.739-14.005-20.01-20.09-11.191-9.366-22.296-18.782-31.383-30.346-12.959-17.681-32.574-34.56-31.431-58.314.599-31.451.161-62.932 1.284-94.375Z" style="fill:#231f20;fill-opacity:1;fill-rule:nonzero;stroke:none" transform="matrix(1.33333 0 0 -1.33333 4156.07 2815.535)"/><path d="M0 0v-17.752l-231.167-2.21c.042 6.024-.4 11.822.081 17.645l-.112-.094C-154.116-.841-77.002-1.021.093-.106z" style="fill:#231f20;fill-opacity:1;fill-rule:nonzero;stroke:none" transform="matrix(1.33333 0 0 -1.33333 4464.185 2812.445)"/></svg>