<svg xmlns="http://www.w3.org/2000/svg" width="491.944" height="342.014" viewBox="269.084 644.224 491.944 342.014"><path d="M0 0v-16.436c-79.656-.138-159.355-.653-239.017-.499-12.382-.008-24.765-.044-37.147-.049-2.685-.001-2.713.036-2.764 2.752.005 4.539-.298 9.066-.077 13.594z" style="fill:#231f20;fill-opacity:1;fill-rule:nonzero;stroke:none" transform="matrix(1.33333 0 0 -1.33333 706.496 654.224)"/><path d="M0 0c-65.412-.036-130.878-.164-196.296.015-26.009-.015-52.017.014-78.026.132-1.525.406-4.581-.953-4.987.91.032 5.039.017 10.077.017 15.242H0Z" style="fill:#231f20;fill-opacity:1;fill-rule:nonzero;stroke:none" transform="matrix(1.33333 0 0 -1.33333 692.3 976.134)"/><path d="M0 0h-16.343c-1.079 12.243-.083 24.359.294 36.589.004 4.752-2.078 10.046 2.004 13.733 9.435 8.413-6.073 11.271-11.296 15.477-8.565 7.619 25.229 11.894 28.838 17.232 8.743 9.567-42.551 12.292-32.257 22.029 4.841 4.656 44.332 12.197 35.258 20.464-4.58 5.505-44.847 9.923-25.032 18.588 73.616 21.921-11.539 20.247-5.42 33.81 21.186 11.311 19.215 4.664 18.848 30.202h16.124c.025-23.627 3.079-19.555-18.046-29.45-10.688-9.66 42.321-12.487 33.609-22.208-9.224-8.345-23.031-7.989-33.24-14.721-7.586-7.449 25.82-11.606 29.732-16.536 9.59-10.799-47.864-15.851-35.238-25.36 9.73-6.088 21.922-6.709 31.795-12.438 8.452-10.306-40.187-12.052-28.353-21.932 5.91-4.027 20.503-7.11 10.5-15.689-4.436-5.088-.288-11.967-1.724-17.97C-.294 21.197-.991 10.626 0 0" style="fill:#231f20;fill-opacity:1;fill-rule:nonzero;stroke:none" transform="matrix(1.33333 0 0 -1.33333 714.29 953.966)"/><path d="M0 0c.332-24.041 2.257-18.938-18.411-29.049-8.269-9.355 41.888-12.462 34.267-21.722C7.83-58.01-3.611-59.162-13.286-63.324c-23.481-11.203 36.514-12.671 24.932-23.983-4.771-6.201-41.24-12.195-36.028-19.022 5.13-7.696 52.195-11.314 26.27-21.816-4.043-2.559-27.872-6.386-22.601-12.875 3.478-4.72 18.101-5.61 14.423-13.183-7.224-5.704-3.732-13.855-4.508-21.664-.255-10.512-1.186-21.04-.056-31.544H-27.02c-.832 12.561.246 25.156.365 37.728-.924 5.725-.82 10.849 3.946 14.853 4.913 8.373-10.249 8.912-13.988 13.854-5.48 7.315 25.772 11.13 29.823 16.775 7.208 9.355-40 11.469-33.218 21.275 19.506 11.218 64.063 15.822 14.684 29.128-2.806 1.661-9.017 2.049-9.046 6.003 8.598 9.944 26.428 7.234 35.469 17.412 3.629 6.378-18.386 9.528-22.584 11.875-23.716 7.402-10.682 9.955 3.354 16.956 5.772 4.471 2.055 13.73 3.058 20.135C-15.253 1.858-3.08-.85 0 0" style="fill:#231f20;fill-opacity:1;fill-rule:nonzero;stroke:none" transform="matrix(1.33333 0 0 -1.33333 333.431 677.394)"/></svg>