<svg xmlns="http://www.w3.org/2000/svg" width="627.752" height="519.791" viewBox="2394.51 555.406 627.752 519.791"><path d="M0 0h16.249c.248-39.892-.547-79.829-.889-119.739-.042-2.33.804-3.552 2.813-4.372 39.705-9.085 81.373-8.503 121.921-11.878 22.019-1.25 43.986-3.184 65.959-5.029 5.199-.38 5.31-1.278 6.642-6.195-3.497-9.393-38.476-10.284-48.559-12.484-48.961-6.982-98.498-12.798-146.487-24.829-6.134-2.264-7.017-3.682-7.078-10.251-.686-48.515-.667-97.039-1.566-145.543H-7.442c-.358-5.476-.079-10.729-.324-16.254-72.925.535-145.77 1.392-218.953 2.349-.362 5.35-.025 10.744-.081 16.127l-.075-.058c73.203-.458 146.392-1.931 219.589-1.975.221 49.451.776 98.754 1.389 148.183-.166 3.827 2.833 5.906 6.087 7.018 48.058 12.493 97.806 18.06 146.916 25.122 7.068 1.034 66.403 5.963 45.512 18.457-24.648 2.259-49.304 4.454-74.024 5.744-38.907 3.179-78.696 2.838-116.843 11.52-3.376.605-2.953 3.907-2.844 6.665C-.758-78.257-.444-39.092.053.072z" style="fill:#231f20;fill-opacity:1;fill-rule:nonzero;stroke:none" transform="matrix(1.33333 0 0 -1.33333 2728.667 589.765)"/><path d="m0 0-16.319.436c.199 48.457.775 96.931 1.348 145.387.331 12.139 32.918 12.028 42.46 15.259 41.265 8.088 82.967 13.829 124.723 18.707 5.934 1.647 64.07 3.869 50.348 14.312-38.959 6.067-78.702 7.211-118.041 9.901-30.75 3.228-62.724 1.89-92.579 10.348-4.722 1.024-.72 28.587-1.791 34.701.408 30.327.202 60.657.974 90.971H7.678l-.072.064c-.763-32.198-.61-64.417-1.028-96.623-.075-8.472-.161-16.945-.376-25.414-.318-4.274 4.914-4.615 7.911-5.608 41.466-6.911 83.641-7.977 125.514-10.893 26.346-1.942 52.802-3.372 78.942-7.312 16.824-10.581-50.176-13.448-55.43-14.973-47.725-5.637-95.191-13.303-142.375-22.398-7.573-2.047-20.942-2.754-19.343-13.548C.881 95.525.267 47.735-.074-.059z" style="fill:#231f20;fill-opacity:1;fill-rule:nonzero;stroke:none" transform="matrix(1.33333 0 0 -1.33333 2426.266 1040.562)"/><path d="M0 0v16.345c73.237-.41 145.759-1.489 219.068-1.834.116-5.577-.356-10.909.054-16.435l.053.071C146.094-1.09 73.009-.822-.072.064Z" style="fill:#231f20;fill-opacity:1;fill-rule:nonzero;stroke:none" transform="matrix(1.33333 0 0 -1.33333 2436.504 587.2)"/></svg>