<svg xmlns="http://www.w3.org/2000/svg" width="748.131" height="597.455" viewBox="4835.01 2228.23 748.131 597.455"><path d="M0 0c.199-15.232.171-30.404-2.031-45.453-.475-28.464 3.621-59.026-13.617-83.794-7.448-10.149-16.883-18.64-22.324-30.253-3.001-5.797-6.573-11.301-9.939-16.907-8.717-14.03-12.541-30.38-20.783-44.708-7.6-15.785-19.221-29.884-23.48-47.096-4.249-24.66-27.403-38.607-49.506-45.597-24.649-10.729-112.887-26.975-115.28-54.53-.628-17.232-16.616-25.094-26.883-36.182l222.334-6.795 1.646-4.691-228.33 7.887 2.121 2.956c-4.939 1.684-9.84.317-15.397 1.269 10.837 9.432 24.769 17.893 26.765 33.359-.607 29.55 94.319 46.87 119.245 58.038 21.48 6.868 42.185 21.378 46.083 45.007 4.741 17.213 16.457 31.308 23.964 47.304 7.871 14.472 12.001 30.621 20.833 44.676 7.498 12.572 13.637 26.339 24.069 36.827 7.251 7.44 12.314 16.262 15.852 25.877 7.999 20.888 4.864 43.56 5.388 65.403 2.035 15.707 2.094 31.469 2.198 47.315H.084Z" style="fill:#231f20;fill-opacity:1;fill-rule:nonzero;stroke:none" transform="matrix(1.33333 0 0 -1.33333 5246.972 2261.012)"/><path d="M0 0h16.37c.621-9.212.02-18.531.14-27.778-.656-6.886-2.678-13.537-2.038-20.554.408-29.612 2.85-61.662-17.751-85.782-23.348-25.576-35.624-58.368-50.346-89.163-4.709-9.166-10.021-18.022-15.079-27.009-6.957-11.409-6.896-25.551-14.731-36.58-12.153-17.082-33.415-23.573-52.351-30.122-22.882-9.544-104.74-25.184-103.555-52.679-1.205-19.892-24.272-25.938-32.336-41.621l-16.37.715c1.614 10.59 30.16 19.769 31.521 41.122 1.18 32.217 101.217 46.292 127.732 61.489 15.409 6.986 30.123 17.164 34.643 34.366 3.713 18.986 15.467 34.379 24.148 51.259 7.654 13.322 11.729 28.323 18.972 41.845 5.208 9.474 10.606 18.855 16.26 28.068 13.329 18.072 29.227 34.109 31.123 57.773 2.3 15.226.902 30.625 1.056 45.951-.771 7.386 1.615 14.398 2.026 21.688.33 9.015-.54 18.135.633 27.079C.065.067 0 0 0 0" style="fill:#231f20;fill-opacity:1;fill-rule:nonzero;stroke:none" transform="matrix(1.33333 0 0 -1.33333 5550.932 2261.994)"/><path d="M0 0v17.174h226.932c.912-6.087-.506-11.867.953-17.824l.068.068C151.948.246 75.924.115-.086.089z" style="fill:#231f20;fill-opacity:1;fill-rule:nonzero;stroke:none" transform="matrix(1.33333 0 0 -1.33333 5247.084 2261.128)"/></svg>