<svg xmlns="http://www.w3.org/2000/svg" width="670.879" height="345.285" viewBox="1648.69 1480.21 670.879 345.285"><path d="m0 0-16.855 16.7c53.243.01 106.503-.985 159.756-1.398 18.466-.167 36.931-.283 55.397-.316 8.043-.907 13.781-11.741 20.397-16.424l-.453-.799L.718-.579l-.181-.573c25.547-26.015 56.678-45.836 83.408-70.613 34.483-33.238 69.995-65.476 104.706-98.518 17.801-14.383 36.178-28.274 54.24-42.359l-.148-.458c-5.275.216-11.304-1.609-16.242.429-33.425 24.863-65.47 51.262-94.825 80.865-26.655 23.452-51.009 49.26-78.207 72.079C30.791-39.467 5.207-22.446-15.947-.576H-.336z" style="fill:#231f20;fill-opacity:1;fill-rule:nonzero;stroke:none" transform="matrix(1.33333 0 0 -1.33333 1681.165 1512.472)"/><path d="M0 0c5.375-.518 11.641 1.114 16.6-.753 17.42-18.309 38.706-32.071 57.237-49.126 60.29-50.283 112.33-109.998 176.724-155.524l-.09-.563h-14.63l-.121-.576 16.372-13.712c-59.204-.987-118.315-2.619-177.502-4.062-11.2.174-22.829-1.559-33.834-.383-5.341 4.345-10.635 8.748-15.882 13.583l210.344 4.964c-22.474 18.05-46.199 34.096-66.433 54.708-20.831 20.7-42.778 40.312-64.206 60.329C72.588-57.57 33.28-32.294-.32-.553z" style="fill:#231f20;fill-opacity:1;fill-rule:nonzero;stroke:none" transform="matrix(1.33333 0 0 -1.33333 1973.443 1515.342)"/></svg>