<svg xmlns="http://www.w3.org/2000/svg" width="1818.338" height="1616.515" viewBox="440.635 5441.49 1818.338 1616.515"><path d="M0 0v-18.767c-37.438-1.14-74.991-.474-112.47-1.263-5.504-.075-8.918 1.89-11.332 6.49-6.375 12.522-13.946 24.281-25.381 32.811-5.325 4.142-10.345 8.77-14.997 13.659-24.35 27.715-50.964 53.35-77.457 79.01-34.382 30.623-63.598 66.571-93.701 101.287-39.796 37.581-78.046 77.303-120.336 112.186-17.872 12.305-33.645 26.924-47.185 43.879-20.802 23.164-44.645 43.917-69.817 62.166-21.234 16.981-46.576 33.983-74.858 32.764-12.011-1.918-39.316 3.826-46.102-5.579-5.326-6.698-10.57-13.467-15.64-20.358-6.697-8.843-11.441-19.676-20.999-25.929-34.058-25.347-62.378-57.525-92.963-86.815-38.221-34.954-82.167-63.268-119.919-98.845-30.316-26.351-52.007-60.551-81.123-88.089-27.699-27.617-55.377-55.303-80.856-85.007-9.61-10.512-19.417-20.827-27.594-32.533-6.028-8.052-11.617-16.767-20.514-21.96-64.302-43.554-68.811-34.172-143.785-39.857l-1.574 18.357-.095-.135c35.354 4.868 74.775-1.838 106.765 16.387 17.589 11.41 38.389 19.996 52.072 36.315 33.435 44.711 73.273 84.27 112.485 123.869 35.141 33.759 62.007 75.18 100.347 105.735 33.633 28.646 70.116 54.071 103.057 83.473 29.291 27.46 55.845 58.231 87.49 83.001 18.721 12.37 27.424 33.858 41.889 50.328 8.345 10.758 29.082 4.527 41.581 6.443 21.487 2.166 42.174-6.091 59.993-17.618 23.742-15.934 45.457-34.536 66.946-53.374 19.778-16.612 33.177-39.407 53.821-55.067 46.453-33.874 84.942-76.967 127.436-115.415 26.284-27.361 49.617-57.592 76.057-84.896 31.611-31.831 66.022-61.036 95.256-95.166 15.533-19.202 39.131-31.161 48.872-54.975 2.884-5.478 6.687-7.756 13.186-7.652C-74.26-.54-37.067-.405.124-.112z" style="fill:#231f20;fill-opacity:1;fill-rule:nonzero;stroke:none" transform="matrix(1.33333 0 0 -1.33333 2224.783 6993.676)"/><path d="M0 0c-35.533-.047-71.066-.036-106.599-.219-8.395-.545-10.672 7.735-14.152 13.589-4.895 9.28-11.007 17.622-19.449 23.954-22.819 16.825-37.471 41.629-59.065 59.77a5591 5591 0 0 0-66.689 65.192 3248 3248 0 0 0-56.064 63.351c-17.333 20.331-38.534 36.812-56.683 56.388-26.488 23.647-50.832 49.81-79.788 70.543-12.806 9.068-23.87 20.031-33.833 32.221-21.865 25.305-47.162 48.173-74.65 67.243-7.812 5.011-13.556 12.718-22.546 15.965-13.774 8.065-28.218 15.833-44.668 16-13.822-.31-27.651-.39-41.478-.446-9.131.258-13.961-8.764-19.209-14.812-9.697-12.412-16.199-27.933-29.152-37.425-10.024-6.97-19.219-14.9-27.954-23.397-28.891-26.728-55.164-56.458-85.67-81.332-11.839-8.402-22.889-17.845-34.167-26.965-39.442-30.114-78.126-61.591-108.982-100.834-15.188-20.138-33.719-37.284-51.454-55.13-24.52-24.937-49.345-49.639-71.508-76.715-9.128-10.008-18.427-19.822-25.909-31.219-3.483-5.305-7.6-10.311-12.923-13.917-10.061-6.802-20.499-13.091-30.895-19.328-21.283-16.337-45.964-19.553-71.993-20.718-19.914-1.635-39.995-1.786-59.843-3.831l.69-18.174c.167-.202.402-.435.587-.574 35.323 4.067 72.493.398 106.615 11.187 11.837 4.496 21.942 12.143 32.89 18.307 12.478 8.335 27.323 14.854 35.152 28.32 20.631 27.491 43.987 52.984 67.913 77.629 28.613 30.365 59.939 58.331 85.728 91.191 26.408 32.194 57.877 59.378 90.853 84.554 20.778 16.927 42.044 33.324 62.7 50.365 31.778 30.008 61.32 62.865 95.787 89.896 17.957 12.688 25.266 34.663 40.736 49.772 2.445 2.735 5.612 3.976 9.235 4.012 26.844-.186 55.194 4.412 79.096-10.903 40.431-24.813 78.05-55.352 108.566-91.892 22.031-26.495 53.774-42.402 77.011-67.841 23.068-20.281 43.85-42.954 66.734-63.385 28.74-27.076 52.436-59.143 79.705-87.71 21.831-22.68 45.087-44.035 67.686-65.961 20.718-17.85 35.102-41.759 57.145-58.192 10.783-7.845 17.527-19.486 23.549-31.134 2.473-4.756 6.014-6.721 11.658-6.674 36.88.263 73.764.261 110.645.171V0C3.273 0 1.637.002 0 0" style="fill:#231f20;fill-opacity:1;fill-rule:nonzero;stroke:none" transform="matrix(1.33333 0 0 -1.33333 2215.446 6096.815)"/><path d="M0 0c-2.791 143.91-6.194 287.624-8.375 431.567.026.006-.11.053-.083.06.014.457-.258.849-.367 1.324-6.599-2.23-12.832-.344-18.907-4.125l13.108-650.272 18.799 1.111C3.075-146.88 1.494-73.442 0 0" style="fill:#231f20;fill-opacity:1;fill-rule:nonzero;stroke:none" transform="matrix(1.33333 0 0 -1.33333 487.611 6728.841)"/><path d="M0 0h18.886l.901-653.903c-6.156-2.9-12.152 1.973-18.143.689l.124-.294C1.475-435.57.61-217.632.099.305Z" style="fill:#231f20;fill-opacity:1;fill-rule:nonzero;stroke:none" transform="matrix(1.33333 0 0 -1.33333 2222.59 6122.515)"/></svg>