<svg xmlns="http://www.w3.org/2000/svg" width="986.8" height="996.34" viewBox="4002.19 773.762 986.8 996.34"><path d="m0 0-.916-16.692c-5.727-.463-10.996.196-16.365-.298-.914-16.411 2.786-36.274-8.011-49.866-13.597-7.852-26.795-16.115-38.064-27.156-3.791-2.71-5.396-6.276-6.461-10.804-9.8-17.343-2.83-31.89 4.381-48.588 11.029-28.81 61.75-44.537 84.097-69.425 17.063-14.803 35.507-28.18 50.173-45.558 11.541-12.279 18.254-28.544 31.292-39.454 19.51-17.351 31.716-41.463 53.918-55.948 30.026-22.2 59.071-46.116 86.254-71.722 20.496-23.146 46.359-40.446 70.171-59.895 25.108-23.511 53.212-44.527 73.525-72.643 8.823-10.815 5.092-25.211 5.574-38.003.651-12.01 1.463-24.011 2.218-36.015 3.276-24.388 9.151-48.352 9.383-73.03 5.152.425 10.138-.021 15.383.46.779 30.883-9.514 59.937-9.523 90.658-1.336 13.317-1.603 26.619-1.135 39.991.176 10.195-7.484 18.144-13.255 25.77-32.379 35.773-69.987 66.445-107.931 96.092-21.234 18.272-40.348 38.84-62.151 56.546-16.667 12.659-31.773 27.319-49 39.247-13.554 9.095-24.815 20.463-34.626 33.44-10.707 16.032-27.474 26.76-38.124 42.769-10.768 18.216-26.261 32.883-41.767 47.015-21.038 17.195-40.759 36.097-64.36 49.914-15.629 11.74-36.495 19.695-44.133 38.986-1.608 3.626-2.911 7.469-5.046 10.763-6.647 11.829-9.02 28.951.404 39.693 2.096 2.392 1.815 6.039 4.762 7.797 11.946 11.558 25.349 20.872 39.79 29.024C1.944-53.725-2.973-33.356-.83-17.011c72.488-.476 144.936-1.723 217.421-1.816l.675 16.664C212.69-1.289 2.982.766 0 0" style="fill:#231f20;fill-opacity:1;fill-rule:nonzero;stroke:none" transform="matrix(1.33333 0 0 -1.33333 4111.732 783.986)"/><path d="M0 0c-3.129 23.024-8.563 45.631-8.805 68.954-.57 12.258-.839 24.528-.575 36.791-.1 10.135-8.123 17.874-13.697 25.617-32.483 35.935-70.565 66.639-108.682 96.376-15.594 12.487-28.366 28.134-43.676 40.965-24.94 20.422-49.073 41.895-75.318 60.658-18.161 13.737-28.861 34.416-45.708 49.495-12.39 10.113-19.791 24.385-29.454 36.796-15.294 18.937-34.679 33.661-53.158 49.188-21.587 20.369-48.029 33.966-71.66 51.628-6.153 4.366-9.959 10.656-13.282 17.29-3.422 7.467-8.257 14.529-11.079 22.172a24 24 0 0 1-2.646 9.663c-1.134 2.212-.994 4.396.443 6.486 2.923 5.336 6.639 10.369 9.823 15.43.224 2.385 1.676 3.928 3.278 5.42 6.274 5.939 12.833 11.714 19.859 16.71 6.462 4.385 13.348 8.141 19.946 12.334 10.69 12.4 7.14 31.792 8.293 47.165-5.199 1.354-10.985.298-16.424.76-.74-15.639 2.662-35.45-8.232-48.154-15.238-9.034-31.143-18.651-42.443-32.34-2.156-6.487-8.413-11.03-7.228-18.641.431-4.108-1.79-8.603.459-12.408 4.394-7.888 6.237-16.835 10.372-24.877 2.9-6.436 6.563-12.418 12.406-16.587 18.762-13.66 38.535-25.944 57.346-39.489 26.465-23.522 57.332-43.936 76.744-74.188 11.458-19.238 30.699-31.754 43.226-50.214 7.472-9.659 15.817-18.466 25.753-25.65 22.062-15.528 41.862-33.912 63.142-50.472 25.338-20.632 46.155-46.033 72.984-64.969 14.963-10.591 28.365-23.031 41.927-35.333 20.531-18.023 41.878-35.878 57.21-58.791 4.782-6.81 3.905-15.2 4.028-23.061-.447-11.816.438-23.548 1.457-35.29.153-28.165 9.303-55.489 9.431-83.678H1.005C1.767-16.221.62-8.029 0 0" style="fill:#231f20;fill-opacity:1;fill-rule:nonzero;stroke:none" transform="matrix(1.33333 0 0 -1.33333 4977.315 1702.395)"/><path d="M0 0c-69.551-.742-139.162-.554-208.691-1.694v-16.659L7.71-16.571V.002C4.998.002 2.499.018 0 0" style="fill:#231f20;fill-opacity:1;fill-rule:nonzero;stroke:none" transform="matrix(1.33333 0 0 -1.33333 4946.717 1735.634)"/></svg>