<svg xmlns="http://www.w3.org/2000/svg" width="1051.158" height="519.786" viewBox="2895.49 4094.37 1051.158 519.786"><path d="m0 0-16.319.436c.199 48.457.775 96.931 1.348 145.387.331 12.139 32.918 12.028 42.46 15.259 41.264 8.088 82.967 13.829 124.722 18.707 5.935 1.647 64.071 3.869 50.349 14.312-38.959 6.067-78.702 7.211-118.041 9.902-30.75 3.228-62.724 1.889-92.58 10.347-4.721 1.024-.72 28.588-1.79 34.701.408 30.327.202 60.658.974 90.971 5.595 0 16.483.065 16.483.065-.763-32.199-.61-64.418-1.028-96.624-.075-8.472-.161-16.945-.376-25.414-.318-4.274 4.914-4.615 7.911-5.608 41.466-6.91 83.641-7.977 125.514-10.892 26.346-1.943 52.802-3.373 78.942-7.313 16.824-10.58-50.176-13.448-55.43-14.973-47.725-5.637-95.191-13.302-142.375-22.398-7.573-2.047-20.942-2.754-19.343-13.548C.881 95.526.267 47.735-.074-.058Z" style="fill:#231f20;fill-opacity:1;fill-rule:nonzero;stroke:none" transform="matrix(1.33333 0 0 -1.33333 2927.247 4579.52)"/><path d="M0 0c-.001.063-.012.127.025.188-178.837.071-357.611 1.516-536.444 1.983.132-5.363-.683-10.737.199-16.067 178.965-.958 357.107-1.815 535.444-2.35.598 5.52-.084 10.769.791 16.24C.013-.003 0-.003 0 0" style="fill:#231f20;fill-opacity:1;fill-rule:nonzero;stroke:none" transform="matrix(1.33333 0 0 -1.33333 3642.643 4582.494)"/><path d="M0 0c-1.332 4.917-1.443 5.815-6.642 6.195-13.302 1.027-26.582 2.346-39.89 3.304-45.348 3.105-90.8 4.984-135.934 10.634-4.89 1.267-14.455.744-14.871 7.34.344 39.911 1.139 79.847.891 119.74h-16.197c-.497-39.14-.81-78.281-1.145-117.422-.061-2.781-.584-6.035 2.845-6.663 38.147-8.684 77.934-8.343 116.842-11.523 24.72-1.289 49.376-3.484 74.024-5.744C1.058-6.593-59.115-11.642-65.588-12.595c-49.11-7.062-98.86-12.628-146.917-25.12-3.233-1.104-6.269-3.2-6.087-7.02-.612-49.43-1.167-98.73-1.388-148.182-.003 0 .002-.001 0-.001.002-.084.003-.098.007-.188h16.283c.898 48.503.88 97.028 1.567 145.542.061 6.568.943 7.987 7.078 10.249C-154.459-27-112.54-21.6-71.098-15.586-57.896-12.235-3.782-10.735 0 0" style="fill:#231f20;fill-opacity:1;fill-rule:nonzero;stroke:none" transform="matrix(1.33333 0 0 -1.33333 3936.65 4325.008)"/><path d="M0 0v16.344c179.438-.41 357.126-1.488 536.736-1.833.282-5.562-.868-11.003.133-16.436l.13.072C393.086-1.225 118.9-.576 0 0" style="fill:#231f20;fill-opacity:1;fill-rule:nonzero;stroke:none" transform="matrix(1.33333 0 0 -1.33333 2937.338 4126.158)"/></svg>