<svg xmlns="http://www.w3.org/2000/svg" width="381.247" height="356.093" viewBox="1055.48 637.244 381.247 356.093"><path d="M0 0h14.621c-1.881-21.838-23.176-40.26 8.33-50.159 5.135-2.718 44.309-9.095 34.591-17.697-8.151-7.852-76.027-24.233-40.608-35.342 12.862-5.216 28.328-6.9 39.155-15.844 6.715-11.028-44.652-17.357-45.723-30.822-.525-6.74 7.756-8.741 12.201-11.951 6.233-4.656 21.802-6.545 19.218-16.818-3.893-13.765-.935-28.484-2.348-42.596H25.352c.341 11.193.655 22.449.774 33.64.183 6.614 5.694 14.042-2.313 17.948-6.697 5.685-33.254 11.207-25.839 23.052 4.543 9.698 55.562 18.862 43.398 28.752-13.526 8.617-30.305 10.756-44.805 17.584-18.546 9.511 38.308 25.872 44.539 30.555C62.679-57.829-3.449-53.002-7.022-39.51-12.513-28.726 1.337-12.522.047.053z" style="fill:#231f20;fill-opacity:1;fill-rule:nonzero;stroke:none" transform="matrix(1.33333 0 0 -1.33333 1347.95 667.667)"/><path d="M0 0c-4.669-21.783-19.824-35.771 10.401-45.292 5.129-2.859 44.102-8.788 33.075-17.705C28.059-71.77 10.375-76.089-4.393-86.086c-9.482-8.294 8.542-11.36 13.996-14.062 10.639-5.087 24.743-5.373 33.096-14.023 6.101-14.229-77.318-21.204-33.52-42.634 5.891-4.259 20.704-6.539 19.129-15.734-4.454-14.177-1.218-29.382-2.794-43.99-2.437.645-13.762-1.613-12.965 1.522.625 13.412-1.399 27.468 1.691 40.533 5.185 11.973-22.286 16.905-28.739 24.229-16.826 17.579 55.206 24.012 42.313 37.587-13.393 8.596-29.97 10.666-44.369 17.337-20.391 9.332 39.395 26.877 45.584 31.704C42.899-54.042-1.55-47.191-7.03-43.937c-13.491 4.47-18.927 13.938-11.78 26.992C-12.079-.548-20.562.271.029-.024z" style="fill:#231f20;fill-opacity:1;fill-rule:nonzero;stroke:none" transform="matrix(1.33333 0 0 -1.33333 1094.771 674.614)"/><path d="M0 0c-63.299-1.572-126.694-2.618-189.93-5.263l.028-.024c2.216 3.214-.104 15.753 2.942 15.97 34.776.908 69.548 1.88 104.328 2.575 27.464.785 54.937 1.225 82.4 2.007 3.022.011-.486-12.562.186-15.316z" style="fill:#231f20;fill-opacity:1;fill-rule:nonzero;stroke:none" transform="matrix(1.33333 0 0 -1.33333 1348.013 667.597)"/><path d="M0 0c58.691-.025 117.32.294 176.002.57 17.396.346 11.184 1.144 12.843-14.679-44.919-.251-89.865-.25-134.787-.345-17.454-.068-34.92-.037-52.367-.197C-.688-14.311.197-2.502 0 0" style="fill:#231f20;fill-opacity:1;fill-rule:nonzero;stroke:none" transform="matrix(1.33333 0 0 -1.33333 1130.643 963.802)"/></svg>