<svg xmlns="http://www.w3.org/2000/svg" width="552.34" height="459.962" viewBox="274.743 1422.98 552.34 459.962"><path d="M0 0c1.924-6.534 6.334-11.207 11.659-15.049 6.908-4.984 11.46-11.622 15.407-19.089 8.138-14.509 8.468-31.549 16.963-45.955 7.114-13.815 17.522-25.394 25.445-38.709 24.985-36.77 52.155-72.314 72.175-112.162 9.479-20.386 6.305-43.818 7.381-65.678h-14.811c-1.897 22.88 1.653 47.48-9.769 68.424-21.175 40.617-49.691 76.491-74.462 114.783-11.466 16.539-24.466 32.363-29.991 52.08-2.476 8.323-3.054 17.359-8.083 24.765C3.98-15.831-11.876-15.176-15.713-.233c5.291.109 10.529-.256 15.756.201z" style="fill:#231f20;fill-opacity:1;fill-rule:nonzero;stroke:none" transform="matrix(1.33333 0 0 -1.33333 305.693 1455.328)"/><path d="M0 0c25.305.815 9.92.4 25.076-13.3 7.762-5.795 14.322-12.419 18.123-21.417 8.378-13.306 7.995-29.651 15.767-43.302 5.455-12.403 14.684-22.249 21.95-33.417 21.567-34.183 46.858-65.96 66.908-101.193 16.047-22.404 17.659-45.699 16.344-72.321-.222-3.614.044-4.56-3.954-4.384a422 422 0 0 1-7.626-.282c-2.374-.103-2.37-.09-2.449 2.364-.22 23.743-1.526 48.508-15.131 68.888-20.363 36.12-45.795 68.847-68.25 103.553C54.234-97.06 40.17-79.775 35.152-58.113c-2.053 6.895-2.902 14.301-6.73 20.508C21.002-17.165 4.852-16.143 0 0" style="fill:#231f20;fill-opacity:1;fill-rule:nonzero;stroke:none" transform="matrix(1.33333 0 0 -1.33333 597.712 1454.757)"/><path d="M0 0c-.907 5.617-1.548 11.084-2.18 16.796h218.366L218.407.69C145.596.324 72.768.561-.039.029z" style="fill:#231f20;fill-opacity:1;fill-rule:nonzero;stroke:none" transform="matrix(1.33333 0 0 -1.33333 305.75 1455.37)"/><path d="M0 0c72.138 1.526 144.104 4.023 216.152 6.714-.458-2.856 1.835-15.589-2.053-14.928-8.411-.245-16.82-.513-25.227-.842-24.558-.882-49.1-2.083-73.637-3.394-29.502-1-59.008-2.066-88.522-2.66C-2.739-14.277.817-23.215 0 0" style="fill:#231f20;fill-opacity:1;fill-rule:nonzero;stroke:none" transform="matrix(1.33333 0 0 -1.33333 506.23 1851.442)"/></svg>