<svg xmlns="http://www.w3.org/2000/svg" width="1151.987" height="1116.589" viewBox="440.645 4094.36 1151.987 1116.589"><path d="m0 0-16.238.95c1.001 26.926 2.655 53.82 3.923 80.737.766 18.735-.191 9.728 8.872 21.882 1.679 5.584 16.417 7.132 8.048 16.463-19.975 13.658-45.939 14.073-68.624 21.081-2.641.936-6.944 1.456-6.933 5.022.092 9.497 17.307 11.005 24.071 15.254 20.397 9.345 40.755 18.904 62.779 23.771 6.492 2.765 29.729 4.456 30.252 11.998-.023 3.61-.135 4.3-3.689 5.449-18.229 7.482-83.789 15.833-90.603 32.155-2.724 14.163 81.759 37.564 96.011 44.544 4.868 2.582 12.839 4.599 12.902 11.271.11 9.99.104 19.983.172 29.973 1.563 10.266-8.547 14.646-16.824 16.713-12.191 4.782-64.598 10.048-43.314 30.895 26.886 18.849 53.89 37.494 80.964 56.047 18.968 14.537 43.661 18.696 63.615 31.354 8.632 10.305-22.917 11.412-28.51 13.57-31.848 5.548-64.133 9.988-95.153 19.259-26.054 9.466 9.711 23.462 19.753 28.681 9.845 4.634 19.402 9.782 28.699 15.391 26.834 16.737 57.501 25.183 86.629 36.93 88.701 33.962-86.857 39.015-51.74 70.867 9.756 6.534 19.82 12.602 29.67 18.98 14.649 10.16 24.467 25.613 36.087 38.85 17.736 19.71 39.151 38.303 43.589 65.85.209 3.231 3.503 5.337 3.295 8.525.093 1.867.262 2.065 2.118 2.082 4.227.038 8.455.012 12.788.012-.553-16.274-7.936-32.938-17.904-45.962-9.916-12.052-21.306-22.692-30.944-34.982-6.83-8.035-13.591-16.131-20.501-24.097-12.332-13.214-29.89-19.915-43.879-31.084-24.165-29.735 133.33-35.681 59.101-66.899-25.154-10.35-51.428-18.068-75.845-30.12-13.421-7.564-26.788-15.242-40.477-22.326-14.242-7.831-55.609-22.722-17.761-32.635 38.336-10.829 78.784-13.005 116.869-24.053 9.796-8.401-16.352-13.893-21.253-17.321-9.427-4.143-18.953-8.08-28.22-12.554-31.508-19.12-60.982-41.861-91.668-62.414-28.873-22.489 30.491-28.47 43.994-33.981 6.112-2.086 13.678-5.301 13.31-12.98-.053-8.711-.056-17.423-.076-26.134 2.297-11.967-6.849-15.816-16.496-19.126-100.244-37.004-141.604-42.861-6.814-73.562 3.205-1.407 8.878-1.594 8.765-6.193.05-2.808-1.06-4.63-3.669-5.453-5.475-1.726-10.909-3.648-16.482-4.983-20.758-4.408-40.753-11.284-59.892-20.432-6.44-2.796-12.872-5.613-19.322-8.387-5.975-3.69-17.805-3.958-17.744-12.813-.036-3.531 4.204-3.944 6.728-4.973 22.033-6.648 46.37-8.035 66.642-19.334 12.758-10.029-4.299-12.848-5.679-17.671-1.097-5.257-8.888-6.04-8.563-12.026-.638-12.69-1.269-25.381-1.92-38.071C1.808 35.983 1.377 17.902-.075-.066z" style="fill:#231f20;fill-opacity:1;fill-rule:nonzero;stroke:none" transform="matrix(1.33333 0 0 -1.33333 545.248 5164.805)"/><path d="M0 0c-118.268-2.595-408.387-1.247-527.631-3.317-.424 5.472-.476 10.692-.429 16.239 72.726 1.578 454.757 2.473 527.5 3.927.172-5.797.337-11.356.5-16.917z" style="fill:#231f20;fill-opacity:1;fill-rule:nonzero;stroke:none" transform="matrix(1.33333 0 0 -1.33333 1561.045 4126.83)"/><path d="M0 0c-.401-5.446-.825-10.571-1.192-16.065-72.874 3.26-455.142 6.851-528.101 10.805-.021 5.483.307 10.844.444 16.307l-.077-.069C-399.295.429-130.046 9.301.072-.066z" style="fill:#231f20;fill-opacity:1;fill-rule:nonzero;stroke:none" transform="matrix(1.33333 0 0 -1.33333 1250.383 5179.53)"/><path d="M0 0c5.621.226 10.795.471 16.518.376.326-28.848-18.455-53.023-38.234-72.313-12.058-13.305-22.45-28.145-35.254-40.783-10.76-9.368-23.757-15.919-35.577-23.855-6.549-2.768-9.276-11.831-4.053-16.759 13.018-14.267 117.427-28.025 62.797-51.693-22.658-9.326-45.665-17.764-68.517-26.57-18.942-7.98-35.599-20.403-54.288-28.966-18.768-9.043-51.895-23.308-11.352-32.419 16.54-3.551 33.068-7.176 49.676-10.383 7.28-3.182 76.653-7.387 63.976-19.351-19.778-12.303-43.635-17.222-62.944-30.603-29.036-18.126-56.336-39.032-84.098-59.03-2.714-2.131-1.81-5.74-2.179-8.752-.183-4.683 5.372-6.83 8.862-8.66 14.055-5.749 29.132-8.337 43.56-12.958 16.053-3.819 11.654-17.239 12.125-29.826.292-17.815 2.004-21.87-16.806-28.044-108.069-39.083-136.368-42.735-3.57-74.42 3.73-1.16 6.305-2.121 5.673-6.482-.987-5.786-9.174-5.589-13.636-7.349-23.492-5.464-46.689-12.344-68.242-23.321-7.531-4.542-52.157-16.693-27.475-25.224 22.254-7.453 47.184-9.099 67.619-20.888 7.695-7.644-2.738-10.861-7.169-15.084-.578-2.919-2.481-4.871-4.733-6.386-7.538-5.995-3.271-22.142-5.143-31.621-1.405-26.15-2.518-52.295-4.183-78.43-5.45-.316-10.84.654-16.288.339l.075-.07c1.403 30.177 2.881 60.35 4.496 90.516 1.149 6.039-1.701 14.564 3.952 18.72 2.541 1.753 4.802 3.698 5.41 6.998 1.117 2.051 4.048 2.506 5.8 3.941 21.178 18.418-56.609 27.511-66.844 32.121-7.113 1.186-9.361 7.526-2.82 11.543 3.4 1.581 6.771 3.244 10.252 4.627 23.278 9.478 45.377 21.92 70.138 27.343 6.561 2.905 32.121 5.014 32.388 12.456-.03 3.69-.1 4.332-3.632 5.473-10.943 5.815-110.68 20.248-87.808 39.397 31.893 19.006 69.436 25.59 102.284 42.136 7.029 3.909 2.437 27.12 3.821 35.383 2.11 12.585-10.461 15.939-19.996 18.64-8.973 2.556-18.064 4.705-27.016 7.329-6.149 2.822-18.096 4.38-17.581 13.076-.377 4.235 1.213 7.439 4.771 9.749 28.506 19.196 55.448 40.567 84.651 58.727 16.468 10.374 35.126 16.366 52.755 24.394 2.929 1.784 7.5 2.8 8.372 6.543 2.498 9.159-37.734 11.057-44.982 13.618-24.183 3.866-48.226 8.572-72.023 14.37-39.04 9.238-2.401 24.065 14.199 32.243 23.624 11.712 45.291 27.075 70.569 35.304 20.8 8.328 43.123 13.903 62.195 25.923 26.35 19.751-62.58 33.607-72.313 44.609-5.053 3.188-5.439 12.41-.011 15.786 11.104 7.088 22.098 14.362 33.142 21.546 14.341 10.801 23.712 26.751 35.792 39.844 13.833 15.781 31.396 29.903 37.592 50.73C-3.245-17.644 1.036-9.088.061.07z" style="fill:#231f20;fill-opacity:1;fill-rule:nonzero;stroke:none" transform="matrix(1.33333 0 0 -1.33333 1560.607 4126.924)"/></svg>