<svg width="184" height="149" viewBox="0 0 184 149" fill="none" xmlns="http://www.w3.org/2000/svg">
<g clip-path="url(#clip0_5364_215)">
<path d="M142.687 149L142.687 108.981L-1.40763e-05 108.981L-1.75609e-05 149L142.687 149ZM184 46.093L142.687 46.093L142.687 108.981L184 108.981L184 46.093ZM104.553 30.2123C94.3834 30.2123 88.3455 30.2123 84.532 27.0362C78.494 20.6839 84.8496 12.4259 72.4558 3.85036C59.7443 -5.36045 39.0881 2.5799 39.0881 21.0015C39.0881 37.5174 52.1173 46.093 72.4558 46.093L142.687 46.093L142.687 7.97935L104.553 7.97934L104.553 30.2123Z" fill="currentColor"/>
</g>
<defs>
<clipPath id="clip0_5364_215">
<rect width="184" height="149" fill="white"/>
</clipPath>
</defs>
</svg>
