<svg width="140" height="254" viewBox="0 0 140 254" fill="none" xmlns="http://www.w3.org/2000/svg">
<g clip-path="url(#clip0_5364_217)">
<path d="M140 38.1L99.009 38.1L99.009 254L140 254L140 38.1ZM18.9189 99.06C9.45949 114.618 -5.55296e-06 130.492 -6.32604e-06 139.382C-7.40282e-06 151.765 11.3513 162.56 23.6486 162.56C35 162.56 46.3514 152.4 46.3514 139.7C46.3514 128.588 39.7298 111.442 39.7298 104.457C39.7298 93.6625 43.1982 89.535 72.2072 38.1L99.009 38.1L99.009 4.02679e-06L61.1712 7.01308e-07L61.1712 26.3525C55.8108 35.56 24.2793 90.4875 18.9189 99.06Z" fill="currentColor"/>
</g>
<defs>
<clipPath id="clip0_5364_217">
<rect width="140" height="254" fill="white"/>
</clipPath>
</defs>
</svg>
