<svg width="212" height="262" viewBox="0 0 212 262" fill="none" xmlns="http://www.w3.org/2000/svg">
<g clip-path="url(#clip0_5364_213)">
<path d="M45.6566 176.15C45.6566 186.325 43.4217 197.136 37.994 203.177C29.6928 211.762 15.9639 203.177 4.46991 218.439C1.59641 222.255 -7.41712e-06 227.66 -7.88987e-06 233.066C-9.41934e-06 250.553 12.7711 262 30.3313 262C37.0362 262 44.0602 260.092 50.4458 255.005C58.747 248.328 63.2169 233.383 62.8976 218.439L61.6205 176.15L61.6205 162.16L166.343 162.16L166.343 85.8495C166.343 75.6748 168.578 64.8641 174.325 59.1408C182.307 50.2379 196.036 58.8228 207.53 43.5607C210.404 39.7452 212 34.3398 212 28.9345C212 19.7136 207.849 9.5389 198.91 4.45152C194.44 1.90783 188.054 2.55198e-05 181.669 2.49618e-05C159.319 2.30088e-05 148.783 18.1238 149.422 43.5607L150.38 85.8495L150.38 124.005L45.6566 124.005L45.6566 176.15Z" fill="currentColor"/>
</g>
<defs>
<clipPath id="clip0_5364_213">
<rect width="212" height="262" fill="white"/>
</clipPath>
</defs>
</svg>
