<svg xmlns="http://www.w3.org/2000/svg" width="348.134" height="348.134" viewBox="1136.515 541.806 348.134 348.134"><g transform="rotate(135, 1310.582, 715.873)"><path d="M0 0c-9.766-6.297-18.986-12.023-28.87-17.733-12.215-7.588-17.288-21.74-23.365-34.057-8.47-17.552-8.81-37.571-12.79-56.421-1.214-18.373 2.357-10.731-21.743-13.433-4.276-.596-.105 17.465.139 20.287 2.811 23.579 5.649 47.031 16.998 68.29 5.597 15.34 21.692 22 33.459 31.907 7.528 6.456 14.503 12.738 22.343 19.177L.092 1.106l17.931 14.815C31.236 1.16 41.392-17.623 60.506-25.499c-4.693-4.855-9.635-9.226-13.709-14.548-.854-1.152-1.609-.989-2.603-.421C25.383-30.604 8.166-20.791 0 0" style="fill:#231f20;fill-opacity:1;fill-rule:nonzero;stroke:none" transform="matrix(1.33333 0 0 -1.33333 1315.202 627.361)"/><path d="M0 0c5.723-20.723 13.096-41.724 25.648-59.15 12.024-20.929 40.335-27.47 60.543-38.473-5.226-2.792-7.488-10.397-14.518-7.774-20.92 4.174-65.281 23.914-75.637 42.711-7.904 16.926-13.678 34.727-18.215 52.965-.214.779-.199 1.337.703 1.682C-14.302-5.492-7.233-2.175 0 0" style="fill:#231f20;fill-opacity:1;fill-rule:nonzero;stroke:none" transform="matrix(1.33333 0 0 -1.33333 1309.297 687.157)"/></g></svg>