<svg xmlns="http://www.w3.org/2000/svg" width="595.001" height="349.467" viewBox="1502.403 1906.417 595.001 349.467"><g transform="rotate(-90, 1799.904, 2081.151)"><path d="m0 0 13.285-18.621C5.178-26.567-29.666-41.36-20.114-54.744c5.504-5.879 13.043-9.38 18.257-15.604 5.636-6.056-3.483-12.994-5.488-18.985-2.093-3.882-3.133-8.112-4.012-12.414-2.385-12.362-.267-24.94.607-37.35 1.092-12.743-9.333-21.779-15.098-32.052-11.786-19.883-28.105-38.548-34.906-60.757-5.729-17.5 3.117-26.694 8.157-41.973 3.154-11.842-18.946-26.868-25.788-36.555-27.862-24.519-59.057-44.708-88.215-67.797l-13.808 18.407c26.176 20.606 55.368 37.821 76.927 63.579 35.996 31.458-18.942 32.847 12.584 82.662 12.536 22.727 30.301 43.851 41.429 66.859 1.874 19.999-6.991 41.829 4.939 60.281 1.618 4.796 8.269 10.567 3.929 15.39-6.046 8.539-27.006 15.151-18.319 27.54C-41.313-26.762-19.221-14.945 0 0" style="fill:#231f20;fill-opacity:1;fill-rule:nonzero;stroke:none" transform="matrix(1.33333 0 0 -1.33333 1946.925 1793.654)"/><path d="M0 0c-1.229-3.286-1.979-23.618-5.214-22.399-26.171 5.193-55.076 10.128-80.078 14.498 1.884 28.488 10.743 20.604-19.181 26.186l13.234 80.824 22.58-4.009-12.574-80.069z" style="fill:#231f20;fill-opacity:1;fill-rule:nonzero;stroke:none" transform="matrix(1.33333 0 0 -1.33333 1774.466 2338.714)"/></g></svg>