<svg xmlns="http://www.w3.org/2000/svg" width="373.833" height="373.833" viewBox="1612.85 540.715 373.833 373.833"><g transform="rotate(225, 1799.766, 727.631)"><path d="M0 0c-14.334-5.229-49.267-13.18-44.42-33.367C-58.9-26.61-70.629-16.238-82.145-5.386c-4.045 3.093-9.675-11.584-8.847-15.065-23.886 22.403-48.558 50.642-51.337 84.527-1.342 32.014.269 59.116 13.05 88.997 6.159-5.07 11.965-10.609 18.302-15.497.794-.642.573-1.23.329-2.012-9.304-22.691-8.246-47.032-8.729-71.054.948-25.924 18.074-47.37 33.922-66.461 1.025-1.282 1.754-1.334 3.302-.429 11.997 7.195 25.485 11.305 38.905 14.929C-11.548 18.429-21.55 24.381 0 0" style="fill:#231f20;fill-opacity:1;fill-rule:nonzero;stroke:none" transform="matrix(1.33333 0 0 -1.33333 1870.011 807.435)"/><path d="m0 0 7.92-17.852c-41.243-16.759-93.324-39.473-108.124-85.025-4.287 4.967-27.295 21.725-19.953 27.828C-92.577-34.168-44.806-15.487 0 0" style="fill:#231f20;fill-opacity:1;fill-rule:nonzero;stroke:none" transform="matrix(1.33333 0 0 -1.33333 1909.256 618.529)"/></g></svg>