<svg xmlns="http://www.w3.org/2000/svg" width="260.499" height="203.094" viewBox="1180.47 1056.75 260.499 203.094"><path d="M0 0c-13.846-3.103-27.477-5.854-41.242-8.882-9.022-2.621-17.081-7.816-26.272-10.041-3.457-.997-3.508-1.097-5.271 2.03-3.501 6.819-9.659 11.477-13.677 17.916-3.181 2.95-16.592-2.614-20.118-4.937-18.683 26.565-14.772 33.518-12.522 64.054 1.406 19.62 3.228 39.443 11.344 57.637 6.063-6.679 12.189-12.658 18.215-19.265.302-.344.387-1.148.212-1.601-6.637-17.944-6.014-37.312-8.222-56.063-2.006-9.515-3.552-20.384 3.236-28.43 2.601-2.641 4.551-9.248 8.277-9.61 23.687 4.355 47.607 7.171 71.468 10.365 1.463.01 3.289.84 4.564-.024C-6.68 8.846-3.16 4.142 0 0" style="fill:#231f20;fill-opacity:1;fill-rule:nonzero;stroke:none" transform="matrix(1.33333 0 0 -1.33333 1351.879 1223.783)"/><path d="M0 0c-31.279-7.79-61.722-20.943-87.407-40.531-9.292-7.079-19.373-13.121-28.039-20.988-4.89-.117-11.49 9.825-15.406 13.311 24.288 23.747 54.211 43.015 87.493 50.983C-32.384 5.45-21.334 7.81-10.322 10.33-6.763 10.439-3.063 2.415 0 0" style="fill:#231f20;fill-opacity:1;fill-rule:nonzero;stroke:none" transform="matrix(1.33333 0 0 -1.33333 1430.97 1106.143)"/></svg>