<svg xmlns="http://www.w3.org/2000/svg" width="231.58" height="347.933" viewBox="1194.93 2030.33 231.58 347.933"><path d="M0 0c-.035 26.574 1.38 52.945 2.014 79.486 4.131 10.404.226 22.689.508 33.786-2.335 8.295-7.287 21.398 2.7 26.631 5.05 3.53 15.715 5.522 13.38 13.577-10.081 14.238-82.959 8.201-92.627 29.134 4.89-.658 21.665 1.119 24.002-1.95 5.556-7.917 16.87-9.616 25.732-11.743 12.14-2.114 24.311-4.042 36.446-6.183 7.606-2.606 38.514-2.301 27.276-16.173-6.017-5.253-18.014-6.359-17.292-16.402-.95-6.467 2.123-11.822 3.209-17.953.414-5.226.569-10.473.826-15.712-.431-5.012 2.34-11.232-1.047-15.431C23.638 53.996 23.228 26.538 22.498-.7z" style="fill:#231f20;fill-opacity:1;fill-rule:nonzero;stroke:none" transform="matrix(1.33333 0 0 -1.33333 1303.632 2283.814)"/><path d="m0 0 62.062 56.522 15.341-17.11A4666 4666 0 0 0 29.417-4.146c-2.814-1.467-13.539-15.01-15.178-11.778-19.305 21.435-9.994 17.147-30.791.043l-55.925 60.205 16.781 15.72z" style="fill:#231f20;fill-opacity:1;fill-rule:nonzero;stroke:none" transform="matrix(1.33333 0 0 -1.33333 1313.304 2346.37)"/></svg>