<svg xmlns="http://www.w3.org/2000/svg" width="1093.277" height="443.896" viewBox="340.222 1329.901 1093.277 443.896"><g transform="rotate(-90, 886.861, 1551.849)"><path d="m0 0 22.715.488c1.105-24.013 2.314-48.468 1.353-72.539-.489-4.002.561-7.962 1.728-11.782 4.749-22.903 1.976-46.904 3.791-70.211-.445-16.637 4.943-32.732 4.552-49.345-.277-10.045-1.632-20.09-1.617-30.151 1.412-21.941-9.016-40.866-16.003-60.86-12.781-25.826-43.053-38.653-55.724-64.8-9.857-19.675-27.236-34.31-36.262-54.584-5.607-9.784-2.675-13.948 6.226-19.626 22.17-17.297 47.862-29.342 69.675-47.016 8.363-8.166 17.231-15.779 27.64-21.26 24.891-12.171 20.474-14.521 37.228-32.338 7.086-5.716 14.401-11.339 19.136-19.288 4.426-7.168 11.325-12.317 16.818-18.639 11.014-15.436 22.277-30.502 35.925-43.833 4.353-5.104 3.062-11.008 11.405-12.648 1.392-.465 1.979-1.264 2.005-2.813.117-6.875.371-13.747.565-20.621.818-29.552 1.65-59.111 2.587-88.657-1.426-.538-18.821-1.219-22.593-.894-1.537 34.197-2 68.497-3.154 102.728-.752 3.138 1.487 9.051-2.395 10.386-3.727 1.13-7.351 2.9-8.324 7.042-1.239 4.679-5.259 7.676-8.293 11.191-10.277 10.727-19.749 21.926-27.6 34.559-5.759 8.08-14.619 13.566-19.796 22.059-8.813 13.891-24.514 21.145-32.628 35.746-9.541 10.784-24.491 14.567-35.708 23.381-12.184 9.575-22.739 21.14-36.509 28.65-17.689 10.029-34.051 22.029-50.822 33.467-4.238 2.905-9.386 6.73-6.892 12.574 7.517 21.581 25.688 36.533 36.443 56.067 12.116 29.018 45.133 42.359 58.415 70.087 8.585 21.708 17.396 41.185 15.722 65.225 3.747 24.181-1.127 47.344-2.969 71.348-2.204 26.417 1.584 53.601-5.233 79.363C1.607-51.758 1.192-25.814 0 0" style="fill:#231f20;fill-opacity:1;fill-rule:nonzero;stroke:none" transform="matrix(1.33333 0 0 -1.33333 810.413 1015.856)"/><path d="m0 0 15.606 16.199 58.949-56.295 58.52 59.666 16.479-15.908-58.663-59.86L74.852-40.51c-5.715-5.354-10.342-10.701-15.884-16.313z" style="fill:#231f20;fill-opacity:1;fill-rule:nonzero;stroke:none" transform="matrix(1.33333 0 0 -1.33333 899.404 2012.727)"/></g></svg>