<svg xmlns="http://www.w3.org/2000/svg" width="350.32" height="219.603" viewBox="215.594 658.547 350.32 219.603"><g transform="rotate(-90, 390.754, 768.349)"><path d="M0 0c8.999-.654 18.502 1.687 27.036-1.92 6.124-4.517 38.058-7.926 35.631-15.399-1.76-3.484-18.413-6.073-23.128-8.085-4.953-2.712-45.671-7.321-33.013-16.366 10.286-8.522 86.059-15.07 39.858-27.778-11.061-3.689-22.619-5.965-33.243-10.869-21.058-13.486 69.137-16.471 52.291-28.961-15.576-6.168-32.33-8.801-48.12-14.408-22.284-10.226 38.645-16.988 43.586-22.806 6.15-2.684 2.67-28.58 4.183-36.448.026-.784-.248-.924-.954-.94-7.434-.229-14.673-.259-22.124-.678.068 10.873-.641 21.639-.752 32.498-.045 2.756-1.223 4.519-3.49 5.782-8.852 6.794-47.161 9.176-48.188 18.456 2.04 6.723 34.136 11.311 42.126 14.621 6.227 1.377 20.709 6.554 7.858 11.541-14.083 3.989-28.342 7.339-42.472 11.158-3.756 1.271-13.553 3.557-8.588 8.931 14.074 7.225 30.319 10.036 45.158 15.657 3.891.849 7.004 5.098 2.691 7.624C19.132-51.171.052-49.552-16.828-41.456c-10.471 8.81 26.527 12.859 31.419 15.476 7.715 2.122 15.379 4.432 23.054 6.698.915.271 2.06.499 2.133 1.775C42.669-9.707 6.531-5.107-.123-.211z" style="fill:#231f20;fill-opacity:1;fill-rule:nonzero;stroke:none" transform="matrix(1.33333 0 0 -1.33333 320.467 603.392)"/><path d="m0 0-59.369 56.517 15.733 16.647 59.075-56.625 58.394 60.265 16.5-16.103c-19.66-19.29-38.89-42.208-59.137-59.263C10.52 20.198 19.985 20.344 0 0" style="fill:#231f20;fill-opacity:1;fill-rule:nonzero;stroke:none" transform="matrix(1.33333 0 0 -1.33333 370.11 933.51)"/></g></svg>