<svg xmlns="http://www.w3.org/2000/svg" width="1200.3" height="397.942" viewBox="-219.937 1406.389 1200.3 397.942"><g transform="rotate(-90, 380.213, 1605.360)"><path d="M0 0c7.264-.906 14.294-1.925 21.52-2.782 1.08-.125 1.373-.525 1.232-1.575-1.242-17.397-7.13-35.127-4.952-52.5 6.664-18.992 11.3-38.567 15.909-58.182 2.451-16.156 16.599-36.508 7.353-51.733-18.204-32.232-47.752-42.175-73.571-65.421-18.784-17.666-37.95-34.997-58.567-50.519-11.89-8.539-24.419-16.459-32.887-28.737-16.002-21.142-33.806-40.795-51.335-60.661-4.832-6.857-13.727-12.493-14.163-21.427.174-9.341.449-20.087 10.052-24.758 7.134-4.311 14.681-7.813 22.492-10.626 24.163-8.662 44.333-24.799 65.995-38.082 15.547-9.419 31.922-17.687 45.47-30.032 20.6-18.96 43.53-35.742 60.229-58.475 7.652-9.368 15.513-18.536 25.662-25.401 11.128-8.594 28.17-14.755 29.552-30.722 4.237-22.732-9.375-32.274-24.917-45.718-17.91-17.353-35.436-35.306-53.27-52.823-7.573-8.252-11.416-18.014-11.431-29.359-.065-27.379-.749-54.756-.497-82.137.002-.794-.143-1.252-1.046-1.248-7.311.16-14.636-.22-21.924.211.028 18.039-.094 36.05.073 54.084 1.571 18.09-3.684 39.476 8.883 54.51 17.972 20.15 37.982 38.49 57.203 57.409 15.724 14.04 28.561 23.104 23.742 46.333-2.677 16.675-22.884 23.442-34.481 33.462-12.505 9.576-21.078 23.05-31.444 34.659-11.783 12.388-24.684 23.693-37.421 35.089-30.806 28.258-69.197 46.283-103.769 69.4-13.289 6.862-27.727 11.85-40.998 18.911-7.793 3.885-10.74 10.779-11.166 19.064-.841 6.835.798 12.771 5.782 17.622 9.744 11.909 20.126 23.313 30.401 34.787 11.281 12.717 21.94 25.946 32.129 39.543 5.959 7.462 13.376 13.351 21.163 18.765 16.637 11.245 31.294 25.034 46.815 37.716 16.25 14.532 31.563 30.224 50.397 41.496C-12.38-201.425.132-191.681 9.66-178.874c17.712 20.031 11.616 28.196 4.707 51.167C9.91-112.387 5.919-96.948 2.785-81.3.525-70.564-6.509-61.106-6.054-49.78-4.524-33.165-2.094-16.575 0 0" style="fill:#231f20;fill-opacity:1;fill-rule:nonzero;stroke:none" transform="matrix(1.33333 0 0 -1.33333 474.818 1015.206)"/><path d="M0 0c1.938-2.925 17.955-15.473 15.067-17.374-19.572-18.133-40.543-38.63-58.763-56.301-21.951 18.257-10.367 20.796-32.459-.145L-133.8-15.642-117.294.28l57.421-57.202z" style="fill:#231f20;fill-opacity:1;fill-rule:nonzero;stroke:none" transform="matrix(1.33333 0 0 -1.33333 509.793 2097.084)"/></g></svg>