<svg xmlns="http://www.w3.org/2000/svg" width="491.323" height="491.323" viewBox="1065.06 1399.414 491.323 491.323"><g transform="rotate(225, 1310.722, 1645.076)"><path d="m0 0-22.895-1.626c.277 11.182-4.705 23.743.171 34.138C-17.241 43.878-9.55 53.119-.088 61.35c5.192 5.115 5.541 13.37 11.27 18.172 5.586 5.5 10.541 11.552 15.602 17.517 10.176 12.899 25.434 19.558 39.105 27.962a285.7 285.7 0 0 0 56.225 29.608c6.56 2.896 11.826 7.821 17.464 12.136 9.303 3.277 19.475 4.344 29.239 5.87l.217-.29c-16.34-17.961-40.487-22.876-60.603-34.973-24.969-16.771-48.875-24.818-67.242-50.381-4.765-5.393-11.054-9.849-13.32-16.985-1.617-4.742-4.604-8.533-8.198-11.902C10.761 51.377 5.459 41.965.209 32.365-4.478 22.442.363 10.766 0 0" style="fill:#231f20;fill-opacity:1;fill-rule:nonzero;stroke:none" transform="matrix(1.33333 0 0 -1.33333 1255.982 1718.452)"/><path d="m0 0 15.084 17.053C35.166.012 56.07-19.569 75.505-35.57c21.108 17.872 37.421 41.179 56.767 61.042l17.207-15.213c-19.367-21.808-38.208-43.514-61.362-61.355-2.943 2.024-12.037 15.688-14.525 13.836-5.42-4.97-11.864-8.726-16.693-14.324-.497-.568-.868-.481-1.364.034-7.035 7.166-13.872 14.572-21.193 21.437C22.936-19.905 11.443-10.281 0 0" style="fill:#231f20;fill-opacity:1;fill-rule:nonzero;stroke:none" transform="matrix(1.33333 0 0 -1.33333 1140.08 1732.55)"/></g></svg>