<svg xmlns="http://www.w3.org/2000/svg" width="690.194" height="92.294" viewBox="329.873 2286.06 690.194 92.294"><path d="m0 0-181.647 10.68c7.136 3.87 7.113 8.431 2.576 13.875 70.462-1.683 140.047-5.356 209.497-11.487l.475-1.342C22.412 7.413 13.892 4.685 5.529-.255L52.326-2.59l.227-.621c-27.124-8.04-54.584-15.303-81.038-25.091-17.056.647-34.109 1.334-51.267 2.493C-53.851-15.064-26.08-10.235 0 0" style="fill:#231f20;fill-opacity:1;fill-rule:nonzero;stroke:none" transform="matrix(1.33333 0 0 -1.33333 939.996 2328.8)"/><path d="M0 0c86.279 4.318 172.541 9.009 258.764 14.334 22.911 1.431 45.819 2.963 68.698 4.821 7.349.597 12.541-3.815 18.651-6.814-75.185-4.86-150.435-8.697-225.664-12.814C80.259-.724 39.431-10.021-.19-.771z" style="fill:#231f20;fill-opacity:1;fill-rule:nonzero;stroke:none" transform="matrix(1.33333 0 0 -1.33333 340.126 2361.872)"/></svg>