<svg xmlns="http://www.w3.org/2000/svg" width="487.74" height="487.74" viewBox="1556.137 1078.918 487.74 487.74"><g transform="rotate(45, 1800.006, 1322.788)"><path d="M0 0c-1.368-6.55-2.283-12.689-1.388-19.28.13-1.611-.17-2.462-1.817-3.209-27.014-12.807-57.438-23.187-76.968-47.002-3.643-5.069-4.9-10.424-2.265-16.469 4.597-9.187 5.604-19.366 7.214-29.393 2.086-10.116-5.896-17.909-14.084-22.43-6.28-.918-12.436 2.698-18.87 3.124 5.413 4.25 11.852 9.343 10.198 16.962-2.375 11.858-6.639 23.616-14.441 33.029C-136.841-52.554-23.698-5.334 0 0" style="fill:#231f20;fill-opacity:1;fill-rule:nonzero;stroke:none" transform="matrix(1.33333 0 0 -1.33333 1861.261 1230.405)"/><path d="M0 0c11.266 25.662 27.822 49.501 49.408 67.449-15.711 9.574-30.299 21.068-38.203 38.06-.53.9-.223 1.297.635 1.749 8.737 4.324 17.041 9.129 24.915 14.869 8.266-15.932 19.161-30.501 34.857-39.679-7.394-4.574-14.877-8.723-21.568-14.664 5.203-3.034 10.576-5.169 16.095-7.326C49.767 44.423 35.307 25.653 25.408 4.929c-1.39-2.219-1.372-6.341-3.985-7.303C14.265-1.516 7.073-1.34 0 0" style="fill:#231f20;fill-opacity:1;fill-rule:nonzero;stroke:none" transform="matrix(1.33333 0 0 -1.33333 1861.286 1317.507)"/><path d="M0 0c10.18-26.112 15.33-54.675 12.756-82.63 17.88 4.339 36.323 6.527 53.927.1 1.011-.261 1.075-.758.788-1.685-3.12-9.235-5.595-18.505-7.103-28.131-17.111 5.42-35.117 8.018-52.706 3.409 1.994 8.463 4.352 16.688 4.882 25.62C6.72-84.851 1.411-87.14-4.017-89.518c.238 22.916-2.81 46.413-10.464 68.066-.587 2.553-3.513 5.454-2.346 7.982C-11.159-9.015-5.949-4.054 0 0" style="fill:#231f20;fill-opacity:1;fill-rule:nonzero;stroke:none" transform="matrix(1.33333 0 0 -1.33333 1666.036 1341.113)"/></g></svg>