<svg xmlns="http://www.w3.org/2000/svg" width="335.403" height="214.896" viewBox="676.299 653.596 335.403 214.896"><g transform="rotate(-90, 844.001, 761.044)"><path d="M0 0c-3.355-4.306-8.032-7.729-11.75-11.86-1.986-2.08-4.776-3.835-5.221-6.921-.764-1.386-1.935-2.735-2.842-4.082-10.515-11.419-20.921-22.978-31.466-34.377-1.029-.824-2.096-4.03-3.545-2.78-5.145 5.224-10.385 10.351-15.817 15.275-.565.479-.902.425-1.35-.163-3.751-5.625-9.409-9.642-13.431-15.002-1.478-1.296-6.093 5.514-7.83 6.521-4.169 4.987-9.73 8.589-14.189 13.34-10.081 10.595-20.694 20.63-31.428 30.521a243 243 0 0 0-7.041 6.734c-1.285 1.707 2.529 3.408 3.302 4.901 14.971 14.354 8.567 13.17 23.603-.216 13.165-13.94 27.973-26.165 41.497-39.799 1.937-1.07 4.647-6.433 6.775-4.484 4.751 4.715 9.426 9.504 14.217 14.178 3.611 3.659 7.386 7.141 9.407 11.898 5.887 6.14 12.064 11.738 17.895 17.715 2.521 1.643 13.453 15.124 14.927 13.044C-9.639 9.564-4.535 5.064 0 0" style="fill:#231f20;fill-opacity:1;fill-rule:nonzero;stroke:none" transform="matrix(1.33333 0 0 -1.33333 941.449 838.338)"/><path d="M0 0c1.586.015 5.728-.041 8.3.065 1.343.058-.726-3.26-.2-4.296-3.904-12.224 36.391-19.034 44.905-26.398 3.165-1.916 4.124-6.565 2.886-9.85-2.484-3.776-7.739-4.82-11.695-6.652-8.368-4.6-37.994-8.738-36.77-19.743-1.35-15.658 64.798-15.863 65-33.004 1.114-12.872-23.449-10.44-19.747-29.622.023-13.991.492-27.983.752-41.975-.943-2.311-9.64-.336-12.338-1.079-2.573-.039-5.146-.085-7.72-.109-2.021-.157-.641 3.06-.961 4.274-.062 11.986-.348 23.969-.344 35.955.382 4.361-1.398 9.937 1.601 13.539 3.753 7.043 15.339 8.47 17.852 15.977 1.972 12.734-15.396 14.406-24.235 17.586-12.788 3.806-26.114 6.603-38.063 12.664-2.359.979-2.431 3.564-2.348 5.818-1.459 9.935 19.088 12.312 25.971 15.98 7.309 3.845 24.57 4.601 22.406 15.811C30.409-24.987 8.865-21.961-.974-16.225c-7.666 3.17-13.566 5.082-12.021 14.76C-11.906 1.206-4.006-.765 0 0" style="fill:#231f20;fill-opacity:1;fill-rule:nonzero;stroke:none" transform="matrix(1.33333 0 0 -1.33333 788.138 603.43)"/></g></svg>