<svg viewBox="0 0 468 468" fill="none" xmlns="http://www.w3.org/2000/svg">
<g>
<path fill-rule="evenodd" clip-rule="evenodd" d="M87.83 201.83C92.09 202.51 96.17 203.69 99.52 206.62C110.82 212.24 120.08 202.66 128.04 195.53L128.63 196.12C128.42 205.73 129.13 215.7 128.04 224.93C111.38 229.93 91.92 240.88 86.92 259.42C85.38 266.11 86.54 273.92 91.71 278.92C99.05 285.13 106.53 292.88 111.53 300.81C114.9 306.34 118.37 312.13 119.01 318.53C119.35 321.94 119.02 324.13 121.73 325.42C158.29 342.92 212.61 340.71 212.61 340.71C226.1 341.09 238.82 338.82 251.92 339.2C249.26 340.09 246.63 341.09 243.82 341.6L243.52 341.3C234.38 343.84 225.24 346.33 216.21 349.11C203.58 353.58 190.35 356.65 178.7 363.52C177.43 366.3 181.3 366.12 182.61 367.42C188.02 370.82 191.51 376.35 190.42 382.71C193.67 384.81 198.61 383.75 202.4 383.6C204.29 383.75 205.8 382.09 207.52 382.71L207.82 382.41L208.12 382.71C221.4 378.89 233.98 373.3 248.03 371.29C255.93 371.08 265.13 368.66 271.73 373.39C270.52 376.41 266.96 379.52 268.12 382.41C268.89 384.33 269.99 385.06 271.14 385.4C281.52 388.43 285.19 375.22 291.82 369.19C293.86 366.08 298.74 365.94 298.74 361.71C296.64 356.24 290.07 355.11 285.51 352.39C285.84 351.89 286.37 351.92 286.72 351.5C301.22 348.45 315.3 344.52 329.61 341L329.91 341.3C335.23 339.91 340.32 338.08 345.82 337.1L347.6 335.3C348.07 333.79 348.07 331.72 347.6 330.21C344.37 324.97 341.36 320.42 336.51 315.8C335.56 314.2 337.31 311.45 335.03 310.42L324.53 308.91C288.85 308.23 253.92 311.1 218.62 312.22C183.59 312.16 146.26 315.86 117.83 299C108.75 291.43 101.2 281.96 104.01 269.92C105.58 260.1 114.25 250.84 123.83 248.32C125.22 248.32 126.79 246.96 128.03 248.32C128.68 257.2 126.61 266.1 128.62 274.41C130.28 284.53 140.87 290.3 149.3 293.61C158.53 295.83 166.1 302.69 173.03 309.82L186.32 300.08C193.45 295.23 202.27 294.27 209.42 289.58C218.93 283.35 219.4 278.48 219.7 267.18C219.7 267.18 219.81 245.04 219.9 235.34L220.42 233.91C229.47 231.72 240.39 230.39 249.83 232.7L251.31 234.21L251.01 269.62C251.1 276.37 253.41 283.55 259.71 286.42C270.57 293.02 276.39 291.51 293.02 304.41C310.26 292.11 321.51 296.54 333.52 280.71C338.68 273.91 337.72 261.31 337.72 254C342.04 257.4 342.84 261.99 347.01 265.71C347.81 265.8 348.61 266.81 349.41 266.01C351.13 264.09 351.01 261.42 351.81 259.12C352.4 259.03 352.85 259.24 353.32 259.42C355.6 261.05 358.94 263.3 358.44 266.61C355.72 272.7 352.7 278.68 350.33 284.92L350.35 285.65C350.04 286.58 350.42 287.4 350.33 287.91C351.25 290.1 353.11 292.17 355.12 293.62C358.14 294.86 361.89 295.22 364.7 293.32C366.21 286.81 367.42 280.21 371.33 274.71L371.75 273.75C375.8 267.67 377.99 263.14 376.72 256.1C376.51 255.12 375.89 253.91 376.13 253.11C374.8 248.61 372.91 244.35 370.72 240.21C366.58 235.86 363.68 229.15 356.93 228.5C352.79 227.85 350.27 230.51 348.23 233.62C344.71 231.67 341.01 230.16 337.14 229.12C337.32 206.22 337.97 183.5 337.73 160.4L338.32 159.81C341.99 163.63 343.73 168.21 346.43 172.41C346.46 173.71 348.44 175.31 346.43 176.32C343.41 177.21 342.14 180.37 341.93 183.21C343.03 189.13 348.53 193.77 353.91 195.81C353.67 197.08 351.66 197.38 351.22 198.8C350.51 199.69 350.63 201.31 350.63 202.11C350.42 203.83 351.73 205.63 352.73 207.2C359.98 212.23 366.66 204.95 372.52 201.22C375.21 199.92 378.11 199.06 380.63 197.32C382.64 189.15 371.55 188.06 370.42 180.81C369.36 130.41 315.84 114.51 315.84 114.51C290.13 107.29 267.53 105.81 267.53 105.81L269.04 98C268.92 95.78 266.94 94.86 265.43 93.5C265.43 93.5 225.14 76.25 196.44 99.5C196.47 101.98 197.15 104.23 199.43 105.8C199.73 106.78 201.38 107.99 200.32 108.79C129.59 104.41 110.33 143.28 110.33 143.28C103.73 151.65 105.69 163.52 104.03 173.9L104.65 175.7C106.16 177.12 108.23 175.43 109.74 176L110.04 175.7L110.34 176L110.64 175.7C111.5 176.2 111.47 177.09 111.85 177.8C113.09 181.85 111.2 185.64 108.86 188.3C106.79 187.06 104.39 186.7 101.94 186.5C96 187.54 89.9 191.44 87.24 197.3C87 198.6 86.29 200.85 87.86 201.8L87.83 201.83ZM276.81 380.92H271.13C271.49 379.91 272.26 379.82 272.61 378.82C273.65 379.18 275.39 379.5 276.22 378.52C275.24 376.6 273.88 375.62 272.91 373.7C275.42 374.35 277.26 376.6 279.21 378.52C278.86 379.76 278.09 380.56 276.82 380.92H276.81ZM283.11 378.23H282.52C280.71 375.21 278.91 372.22 277.11 369.21C279.62 371.43 282.91 373.06 284.62 375.81C284.12 376.64 283.17 377.23 283.11 378.24V378.23ZM294.2 365.63C291.69 367.4 289.29 369.5 287.01 371.93C287.04 373.08 285.5 373.59 285.2 374.62C284.37 374.03 284.34 373.56 284.9 372.81C285.08 372.63 285.28 372.49 285.2 372.22L284.9 371.92L284.01 372.81C281.73 371.1 281.32 368.08 279.51 365.92C281.73 367.1 283.83 368.58 285.78 370.42C285.84 370.86 285.07 371.31 285.78 371.6C286.61 371.16 286.46 370.3 287.29 369.82L280.99 362.01C283.33 363.79 286.94 365.06 287.59 368.31C287.38 368.61 286.88 368.78 287 369.2L287.3 369.52C289.96 366.38 293.1 364.49 296 362.01C296 363.07 295.11 364.55 294.19 365.62L294.2 365.63ZM283.7 359.33C286.48 360.28 289.17 362.08 291.21 364.12C290.53 364.57 290.17 365.81 289.11 365.33C288.08 362.73 285.06 361.78 283.7 359.32V359.33ZM295.12 362.02C294.38 362.46 293.64 362.82 293.02 363.53C290.12 360.93 287.61 358.71 284.92 356.31C288.32 358.2 292.11 359.18 295.13 362.02H295.12ZM322.42 326.94C329.2 326.05 336.83 325.4 343.1 327.83L344.91 330.23C346.71 333.48 342.25 333.54 340.71 334.73C330.71 336.74 320.33 337.9 310.42 340.14C319.09 337.66 327.87 335.38 336.81 333.54C333.5 333.13 330.06 334.19 326.63 334.43C317.13 335.79 307.84 337.6 298.73 339.84C310.12 336.14 322.13 333.77 334.11 331.44C325.24 331.29 316.72 333.84 308.02 335.02C301.81 336.76 295.21 337.62 288.82 338.92C293.76 337.59 298.7 336.32 303.52 334.72L302.9 334.13C291.48 335.87 278.73 337.18 266.93 335.31C286.31 334.66 304.77 331.79 322.43 326.94H322.42ZM273.52 350.01C275.74 350.69 278.22 350.72 280.41 351.52C277.6 353.18 274.7 352.79 271.42 352.41C250.33 350.7 231.31 355.67 213.2 362.03L212.9 361.73C204.14 365.04 194.47 367.82 184.41 366.23C190.59 361.02 198.82 359.43 206 356.02L211.09 354.84L208.4 356.02C206.3 356.55 204.26 357.29 202.4 358.42L202.72 358.72L214.41 355.44L209 358.13C210.24 358.37 211.81 357.75 213.2 357.54L211.1 359.34L211.43 359.64C230.45 352.39 251.31 348.75 273.52 350.02V350.01ZM92.03 260.02C93.27 256.4 96.11 252.15 98.92 248.93C95.9 256.74 92.47 264.4 92.62 273.54C91.97 269.22 90.56 264.33 92.03 260.02ZM106.11 259.13C103.86 263.48 103.75 267.76 101.02 272.91L100.72 275.31C100.01 273.65 100.31 271.05 99.8 269.01C99.39 269.16 98.91 269.22 98.62 269.63C99.12 270.52 97.79 271.44 97.41 272.32C97.2 273.83 96.58 275.13 96.82 276.82C95.37 269.63 95.25 261.91 99.22 255.82L98.92 255.52C100.46 252.18 102.68 249.04 105.52 246.23C102.27 250.73 100.25 255.75 98.63 260.93L98.93 261.23C98.55 264.13 97.21 267.03 97.72 269.93C98.7 268.39 98.28 266.35 99.23 264.81L98.93 264.51C101.56 257.91 104.23 250.75 110.61 246.23C107.36 250.52 105.08 255.22 103.72 260.31L103.47 261.52C105.51 258.21 108.12 253.44 111.82 251.31C110.87 254.33 107.68 256.37 106.11 259.12V259.13ZM363.81 256.41L366.21 259.13L365.62 266.32C367.04 267.33 369.41 266.97 371 266.62C372.39 266.27 373.51 264.76 374.31 263.63C374.1 266.62 372.56 269.01 371 271.44L371.33 271.74C367.93 278.22 363.17 284.11 363.52 292.12C361.92 292.12 360.12 293.48 358.73 292.12C359.59 292.36 360.12 291.73 360.83 291.53C360.71 289.81 358.82 289.93 357.81 289.13V288.54C359.41 288.42 361.21 288.78 362.6 288.21C361.18 286.17 358.37 286.26 356.62 284.34C359.19 283.66 361.8 285.73 363.81 283.72C362.68 282.15 360.41 282.12 358.72 281.32C360.14 280.46 362.77 280.64 364.1 279.51L363.8 279.21C363.12 279.51 362.14 278.77 361.4 278.32V277.7C363.03 277.29 364.68 276.9 366.19 276.22C365.63 275.92 365.09 275.54 364.38 275.6C365.74 273.83 367.87 272.64 370.09 272.32C369.5 270.63 367.34 271.43 366.19 270.51C364.12 269 360.3 267.7 360.48 264.8C358.94 263.5 358.65 261.69 358.7 259.71C360.09 258.47 361.15 255.27 363.79 256.4L363.81 256.41ZM350.91 243.84C352.63 242.6 350.26 240.44 350.61 239.02C349.81 237.63 348.57 236.42 348.21 234.82C350.46 236.62 350.9 239.14 353.59 239.94C354.3 236.42 351.84 231.48 355.69 229.44C357.11 229.62 358.56 229.8 359.59 230.95C358.85 230.77 357.88 230.33 357.19 230.95L356.89 231.25L360.47 235.16C358.96 234.66 357.3 233.59 355.68 234.24C357.51 235.69 358.46 237.49 359.29 239.33C358.79 238.26 357.93 238.38 357.19 237.55C355.74 239.53 361.48 242.31 356.89 242.93C356.59 242.72 356.42 242.22 355.97 242.34L355.67 246.54C355.11 245.83 354.4 245.42 353.57 245.33C350.52 251.16 349.72 256.78 348.48 263.35H347.56C347.68 256.87 348.24 250.6 350.58 245.04C349.99 244.71 350.67 244.21 350.88 243.86L350.91 243.84ZM128.63 168.52L122.03 172.72C120.97 171.03 122.65 169.23 122.62 167.34C124.07 163.49 125.49 159.41 128.63 156.54C129.07 160.33 129.07 164.73 128.63 168.52ZM132.21 276.82C131.17 275.37 130.58 273.21 130.44 271.11C130.82 244.34 130.79 216.97 131.62 190.73L133.13 188.63C133.28 217.83 132.98 247.62 132.21 276.82ZM133.13 168.22C131.15 168.6 131.27 166.62 131.33 165.23L131.63 152.92C132.52 152.54 132.28 151.15 133.43 151.41C133.34 157.03 133.67 162.8 133.13 168.21V168.22ZM138.51 155.91C138.13 197.47 138.15 240.69 137.33 282.82C136.38 282.94 135.91 281.81 135.23 281.31C136.18 237.47 135.76 192.32 136.74 148.13L137.92 147.21C139.49 149.67 137.42 153.01 138.51 155.91ZM142.88 219.36V220.35C142.91 242.83 141.77 264.25 141.83 286.73C141.09 286.52 140.62 285.72 140.03 285.22C140.59 270.69 140.24 255.46 140.33 241.11C140.62 219.01 140.95 196.91 141.25 174.81L140.95 154.43C141.36 153.93 142.28 154.07 142.73 154.43C143.2 175.94 143.37 197.85 142.9 219.35L142.88 219.36ZM140.89 152.23L141.11 146.22H142.67L143 152.52C142.29 152.43 140.9 152.22 140.9 152.22L140.89 152.23ZM147.84 184.73V222.83C147.34 244.93 147.75 267.38 146.33 289.13C145.59 288.92 144.58 288.44 144.53 287.62C144.46 286.54 144.5 286.13 144.53 285.22L145.45 166.12V165.23L145.75 157.72C147.52 158.52 147.85 161.91 147.85 163.88V184.73H147.84ZM147.84 146.92V152.63H146.03L145.73 146.17H147.83V146.92H147.84ZM151.42 290.63L149.94 290.3C149.23 264.8 149.88 239.12 150.53 213.83L152.04 215.31C152.28 240.6 151.63 265.51 151.42 290.63ZM157.38 243.62L157.42 244.42L156.53 293.03C155.82 292.73 154.84 293.06 154.43 292.11C154.19 266.67 154.81 242.71 155.02 217.41L155.35 217.33L155.61 217.41C157.39 218.56 157.41 219.84 157.71 221.61C157.06 228.92 158.03 236.31 157.37 243.61L157.38 243.62ZM150.86 210.07C150.86 204.54 150.65 165.92 150.65 164.04C150.65 160.33 149.49 157.84 148.72 156.24L169.01 156.02C169.01 156.02 167.62 159.98 167.62 164.04C167.62 166.64 167.32 210.23 167.32 210.23C165.25 212.57 163.12 214.22 159.48 216.5C155.79 214.7 153.42 212.3 150.85 210.08L150.86 210.07ZM150.88 146.33H152.63V152.63C152.63 152.63 151.42 152.54 150.83 152.63C150.47 150.71 150.6 148.25 150.88 146.33ZM155.62 152.63C155.62 152.63 155.73 148.25 155.95 146.33H157.72L157.81 152.63H155.62ZM160.95 146.33L162.84 146.36V152.63C162.84 152.63 161.63 152.54 161.04 152.63C160.69 150.71 160.83 148.25 160.96 146.33H160.95ZM165.53 146.63C166.15 146.19 167.3 146.19 167.93 146.63V152.34C167.43 152.87 166.54 152.55 165.83 152.64L165.53 146.63ZM167.33 214.73V224.64C166.8 224.67 166.04 224.67 165.23 224.64C164.84 221.57 165.23 218.88 165.23 215.94C165.23 215.94 166.47 214.79 167.33 214.73ZM161.32 295.73L159.81 295.14C159.81 279.61 160.05 228.98 160.05 228.98C160.55 230.55 162.23 232.7 162.23 237.22C162.23 241.74 161.31 295.73 161.31 295.73H161.32ZM162.24 224.64C161.03 224.79 160.62 224.67 160.06 224.5C160.06 222.38 159.87 218.81 162.24 218.01C162.68 220.02 162.68 222.63 162.24 224.64ZM166.44 299.63C163.48 299.19 164.58 295.99 164.34 293.92L164.64 285.52C165.47 285.58 166.15 286.05 166.74 286.73C166.62 291.02 166.98 295.52 166.44 299.63ZM171.23 303.53L169.43 301.73L169.73 289.42C170.38 289.75 171.03 289.95 171.53 290.63C171.44 294.92 171.77 299.42 171.23 303.53ZM176.02 302.61C175.72 302.99 175.56 303.37 175.13 303.82H174.21V293.32L175.72 292.4C176.25 295.36 175.93 299.2 176.02 302.61ZM181.11 299.33L180.22 300.22H179.01C179.13 296.61 178.77 292.82 179.34 289.42L180.82 288.21L181.44 288.83L181.12 299.33H181.11ZM185.93 296.02C185.12 296.52 184.87 297.41 183.83 296.91L184.13 285.23L185.93 284.02C186.37 287.84 186.37 292.21 185.93 296.03V296.02ZM186.52 236.91C186.52 238.77 186.22 279.97 186.22 279.97C182.75 283.42 179.42 286.76 175.12 289.71L164.62 281.19L164.9 237.28C164.9 233.76 164.51 232.96 163.12 227.93H188.03C188.03 227.93 186.52 232.74 186.52 236.92V236.91ZM170.93 162.54C170.93 159.93 172.11 158.34 172.11 158.34C172.55 180.23 172.55 202.71 172.11 224.64C171.64 224.79 171.19 225.02 170.6 224.94C169.8 203.64 170.93 163.62 170.93 162.55V162.54ZM170.55 146.63H172.41C172.32 148.64 172.11 152.64 172.11 152.64H170.6L170.55 146.63ZM175.72 152.64C175.28 150.81 175.28 148.47 175.72 146.63C177.14 146.39 177.64 146.84 177.82 148.14C177.73 149.47 178.06 151.72 177.52 153.23C177.67 154.74 177.43 157.16 177.52 158.64C177.96 159.73 177.94 160.65 177.89 161.85L177.52 214.14L177.22 224.64C176.81 225.17 175.39 224.85 174.79 224.94V224.02L175.41 154.15L176.59 152.94C176.41 152.56 176.03 152.64 175.7 152.64H175.72ZM180.81 146.63H182.61V152.64H180.51C180.66 150.6 180.15 148.11 180.81 146.63ZM180.51 159.53C182.99 163.23 182.61 168.41 182.61 173.64L182.02 224.94C180.66 225 179.56 225.03 179.62 223.43L180.51 159.53ZM186.52 224.94H184.72C184.28 221.42 184.28 217.34 184.72 213.85C185.67 213.76 186.35 214.91 186.82 215.33C186.73 218.55 187.06 221.93 186.52 224.94ZM190.72 293.63C190.36 294.16 189.83 294.31 189.21 294.22V237.84C189.36 234.44 189.98 231.24 191.01 228.23C191.81 249.8 190.8 271.84 190.71 293.64L190.72 293.63ZM191.31 224.94C190.47 225.01 189.21 224.67 189.21 224.67C189.21 224.67 189.21 219.17 189.58 217.1C192.22 218.02 191.37 222.63 191.31 224.94ZM195.51 292.12C195.04 292.5 194.36 292.42 193.71 292.42V245.62L194.33 219.82L195.81 218.64L196.43 219.53C195.66 243.55 196.73 268.67 195.51 292.13V292.12ZM201.22 290.31C200.57 290.87 199.74 290.99 198.82 290.93C198.55 266.32 199.2 241.32 199.41 216.53C199.77 215.47 200.86 214.99 201.81 214.73C202.05 240.5 201.43 264.76 201.22 290.31ZM201.81 209.77C200.08 211.99 196.53 214.99 194 216.83C190.55 214.79 187.22 212.6 184.79 209.64C184.79 209.64 185.09 168.02 185.09 164.05C185.09 160.08 182.91 156.25 182.91 156.25H205.21C205.21 156.25 202.41 160.37 202.41 164.05L201.82 209.78L201.81 209.77ZM185.3 146.63H187.1V152.78C186.09 152.94 184.96 152.8 184.96 152.8C184.96 152.8 184.85 148.5 185.29 146.63H185.3ZM189.8 152.95L190.13 146.63H191.61C191.96 148.64 191.83 152.95 191.83 152.95H189.8ZM194.92 146.63H196.43C196.73 148.81 196.98 151.04 196.86 153.23H195.22L194.92 146.63ZM200.01 146.63H202.11V152.93C201.61 153.46 200.72 153.14 200.01 153.23C199.57 151.22 199.57 148.64 200.01 146.63ZM206.02 274.43L205.72 287.92L204.21 288.84C203.41 264.55 204.14 241.45 204.23 217.55L204.21 216.83C204.86 203.72 203.92 190.38 204.6 177.28L204.51 176.63C204.81 170.58 203.33 163.97 206.61 159.24C206.88 197.55 206.23 235.65 206.02 274.43ZM206.61 153.23H205.43C204.99 151.22 204.99 148.64 205.43 146.63H206.61C207.08 148.64 207.08 151.22 206.61 153.23ZM211.43 260.62V283.43C210.99 284.44 209.98 284.97 209 285.23C208.91 256.39 209.06 227.8 209.32 199.52V198.82L209.91 155.04L211.71 153.53C211.3 153 210.5 153.32 209.91 153.23L210.21 146.63H212.02C212.26 184.82 211.64 222.24 211.43 260.61V260.62ZM217.73 151.73L216.81 272.58C216.85 274.68 216.13 277.93 214.41 280.06C214.17 245.06 214.79 208.52 215 173.35C214.91 172.11 215.27 169.95 214.7 168.53L215 147.23C216.21 146.25 218.4 146.58 219.82 146.93L217.72 151.72L217.73 151.73ZM219.83 232.73C219.92 232.05 219.56 231.16 220.13 230.63C221.64 230.54 224.12 230.9 225.81 230.33C227.41 229.98 228.41 230.98 230.01 230.63C226.82 231.16 223.21 232.05 219.83 232.73ZM233.35 217.66C229.94 218.24 225.97 218.32 222.81 219.84C226.42 220.25 230.21 220.2 233.61 221.05C230.09 221.67 224.68 222.03 220.71 223.74C224.91 224.75 229.11 223.06 233.31 224.04C229.91 224.96 226.21 225.16 223.1 226.76L233.9 227.35C229.37 228.33 224.73 229.01 220.11 229.75C220.17 223.92 219.96 217.86 220.11 212.36C222.27 211.5 224.58 211.09 227 210.85C225.02 212.12 222.83 212.92 220.7 213.87C222.5 214.76 224.1 213.4 226.08 213.87C228.09 214.4 230.49 214.08 232.71 214.17C229.46 215.27 225.17 215.21 221.91 216.86C225.52 217.58 229.85 216.62 233.33 217.67C233.42 217.7 233.47 217.65 233.33 217.67L233.35 217.66ZM252.22 153.54L252.52 152.65C265.12 152.74 278.29 152.41 290.33 152.95L286.72 154.75L254.62 155.05C253.85 154.46 252.02 155.17 252.22 153.54ZM334.7 171.56L334.11 172.15C331.12 171.47 326 173.89 325.12 170.05L325.42 169.46H334.12C335.07 169.84 334.59 170.82 334.71 171.56H334.7ZM334.7 165.85C330.03 166.29 325.91 166.29 321.21 165.85C320.83 165.26 319.76 164.9 320.03 164.05H334.41C334.97 164.46 334.62 165.26 334.71 165.85H334.7ZM334.4 188.04C332.8 188.51 332.35 188.53 329.34 188.32L328.72 188.37L312.51 188.05L312.21 186.27H334.1C334.63 186.68 334.31 187.45 334.4 188.05V188.04ZM334.4 230.64L333.81 231.26L313.4 230.96V228.86H334.11C334.64 229.27 334.32 230.04 334.41 230.63L334.4 230.64ZM334.4 225.55C327.6 225.99 319.85 225.99 313.4 225.55C313.72 224.75 312.66 222.86 314.32 223.15L334.11 223.45C334.64 223.95 334.32 224.87 334.41 225.55H334.4ZM313.1 257.35C316.32 255.93 319.49 254.54 322.72 253.15C321.15 255.16 319.23 257.09 317.01 258.86C315.92 258.36 315.09 260.28 313.73 260.04C313.43 259.18 313.05 258.35 313.11 257.35H313.1ZM313.4 251.05H320.62C318.93 253.33 315.95 253.77 313.4 254.66C312.96 253.63 312.96 252.06 313.4 251.05ZM313.4 247.74C313.1 246.94 313.1 246.17 313.4 245.34L314.02 245.04L329.31 245.34L327.21 247.44L313.4 247.74ZM327.81 251.05H334.11V253.45C331.8 253.89 328.93 253.89 326.63 253.45C326.27 252.35 327.34 251.82 327.81 251.05ZM329.61 247.74C329.23 246.53 330.2 245.61 330.82 245.05L334.1 245.35V247.75C332.3 247.93 331.44 247.66 329.6 247.75L329.61 247.74ZM313.72 242.06C313.25 241.35 313.25 240.08 313.72 239.34L333.81 239.66C333.9 240.08 334.9 241.05 334.11 241.76C327.48 242.29 320.53 241.97 313.73 242.06H313.72ZM333.81 220.46L313.72 220.13C313.16 219.63 313.51 218.74 313.4 218.03L313.86 217.64L334.4 218.03C334.19 218.86 334.9 220.01 333.81 220.46ZM334.11 212.95C334.64 213.36 334.32 214.16 334.41 214.75C327.7 215.19 320.06 215.19 313.73 214.75L314.03 212.65L334.12 212.95H334.11ZM317.01 208.75L318.82 207.24L334.41 207.57V209.05C328.82 209.41 322.43 209.76 317.02 208.75H317.01ZM334.4 203.96C330.7 204.4 326.41 204.4 322.72 203.96L324.52 201.86H334.11C334.64 202.36 334.32 203.25 334.41 203.96H334.4ZM314.02 207.24C312.04 203.45 317.6 202.06 319.4 199.46L318.81 198.84L297.21 198.54C296.71 197.83 296.85 196.59 297.21 195.85C307.09 196.06 317.38 195.35 326.91 196.44L314.01 207.24H314.02ZM308.31 269.36C307.39 272.88 305.5 276.02 303.81 279.24C305.11 274.71 306.09 270.07 307.09 265.45C307.53 265.8 308.21 265.54 308.6 266.04C308.84 267.22 308.22 268.05 308.01 269.03L308.31 269.36ZM269.32 205.46C265.68 202.74 261.84 198.54 258.23 195.85H287.31L287.26 196.27C287.42 196.94 287.22 197.15 287.31 197.66V197.99V198.25C280.51 198.9 273.11 198.19 266.31 198.84C266.93 201.47 271.43 202.09 269.33 205.47L269.32 205.46ZM269.62 254.66C269.24 255.28 268.61 255.31 268.11 254.96C266.93 253.21 264.47 252.53 263.61 250.76H269.32C270.3 252.06 268.61 253.36 269.62 254.67V254.66ZM253.71 169.46C265.48 168.9 275.37 169.25 287.32 169.16C287.32 169.81 287.47 170.58 286.73 170.94L283.12 171.86L254.04 171.56C253.48 171.06 253.83 170.14 253.71 169.46ZM254.04 163.45H263.63C263.84 164.04 264.49 164.46 264.22 165.25C261.11 165.78 257.62 165.46 254.34 165.55C253.57 164.75 254.25 164.49 254.04 163.45ZM266.61 159.84C267.5 157.18 271.32 157.83 271.73 160.43C271.94 162.71 271.67 165.07 269.63 166.14C268.45 166.41 267.65 165.82 266.94 164.96C266.47 163.54 266.47 161.56 266.94 160.14L266.61 159.84ZM273.83 158.04H285.81C286.49 160.44 286.96 162.92 287.02 165.55C282.61 166.44 278.41 165.11 273.83 165.55C274.27 163.24 274.27 160.34 273.83 158.04ZM254.33 174.55C262.5 174.58 270.75 174.4 278.62 175.14L275.93 177.24C268.5 177.03 260.01 177.74 253.71 176.65C253.86 175.91 253.36 174.93 254.33 174.55ZM254.03 180.26H273.52L272.9 182.36C266.81 182.89 260.33 182.57 254.03 182.66C253.56 182.04 253.56 180.88 254.03 180.26ZM254.03 185.64L271.13 185.94L270.81 187.45C265.4 187.89 259.45 187.89 254.04 187.45C253.57 187.04 253.57 186.06 254.04 185.65L254.03 185.64ZM253.7 198.54L254.03 196.14C254.95 196.85 256.63 197.06 256.72 198.54C255.92 199.01 254.53 199.01 253.7 198.54ZM262.43 203.04L261.81 203.66L253.7 203.36L254.03 201.56C256.81 202.06 260.54 200.29 262.43 203.04ZM253.7 192.57L254.03 191.06C259.33 191.15 264.8 190.82 269.92 191.36V192.57C264.71 193.01 258.94 193.01 253.71 192.57H253.7ZM254.03 206.65H266.31L268.41 208.75C263.79 209.19 258.62 209.19 254.03 208.75C253.56 208.51 253.56 207.15 254.03 206.65ZM269.62 247.44C266.1 248 262.23 247.65 258.53 247.74C257.67 246.85 255.66 246 256.13 244.75L269.32 245.05C269.85 245.67 269.53 246.65 269.62 247.45V247.44ZM257.91 252.56C256.9 253.54 254.95 253.21 253.71 252.86V250.76C255.37 250.79 257.7 250.38 257.91 252.57V252.56ZM269.62 241.44L255.21 241.77C253.49 242.07 253.7 240.2 253.7 239.05H269.32C269.85 239.67 269.53 240.65 269.62 241.45V241.44ZM253.71 234.55C254.83 234.4 256.52 234.7 257.62 235.47L258.54 233.96L269.63 234.26V236.06L254.04 236.36C253.48 235.95 253.83 235.18 253.71 234.56V234.55ZM257.32 224.96V222.86L269.63 223.16V224.96C265.7 225.4 261.26 225.4 257.32 224.96ZM269.63 228.87V230.64C266.02 231.2 262.03 230.85 258.24 230.97C257.23 230.53 257.56 229.17 257.91 228.54L269.62 228.87H269.63ZM269.63 219.55C265.7 220.11 261.44 219.76 257.32 219.85C256.88 219.23 256.88 218.07 257.32 217.45C260.13 217.54 262.9 217.31 265.5 217.52C265.97 217.42 266.52 217.54 266.93 217.45H269.33C269.86 217.95 269.54 218.87 269.63 219.55ZM269.63 214.46C265.7 214.9 261.26 214.9 257.32 214.46C256.88 213.84 256.88 212.69 257.32 212.06L269.63 212.36V214.46ZM253.72 246.26L254.05 244.75C254.88 245.28 255.47 246.49 255.23 247.74C254.17 248.09 253.4 247.33 253.72 246.26ZM253.72 256.14C256.53 256.85 260.95 254.67 262.16 258.52L253.72 258.54C254.02 257.62 253.16 256.82 253.72 256.14ZM253.72 261.85C253.72 261.85 254.98 260.39 259.43 261.26C262.06 262.44 266.8 259.87 267.83 263.66C263.57 264.1 258.24 264.1 253.72 263.66C253.31 263.19 253.31 262.33 253.72 261.85ZM267.24 259.75C265.2 257.89 263.1 255.49 261.53 253.15C264.16 254.33 266.53 256.14 269.04 257.65C268.89 258.54 268.27 260.05 267.24 259.75ZM287.03 182.95C286.14 182.86 285.05 183.19 284.34 182.65C284.87 181.35 286.23 180.85 287.33 180.25C287.24 180.78 287.57 182.23 287.03 182.94V182.95ZM293.63 217.44C292.77 219.07 291.94 216.97 290.94 217.14L290.02 216.25C289.78 203.65 290.43 191.43 290.64 179.03L293.33 179.33C293.86 191.84 293.54 204.74 293.63 217.43V217.44ZM292.45 221.64C294.4 221.08 295.82 219.24 297.54 218.03L298.13 217.44L298.43 217.74L303.25 213.54H304.14V216.26C300.23 219.34 296.6 223.09 292.45 225.55C287.92 222.09 284.49 217.89 279.85 214.75L279.55 211.14C283.99 214.25 288.19 218.03 292.45 221.64ZM304.14 236.34C302.01 237.79 299.73 236.1 297.25 236.64C295.47 232.23 301.66 235.04 303.85 234.24C304.38 234.74 304.06 235.66 304.15 236.34H304.14ZM304.14 230.63L297.25 230.96C296.81 230.43 296.81 229.36 297.25 228.86H303.85C304.38 229.27 304.06 230.04 304.15 230.63H304.14ZM297.25 239.33H303.85C304.38 239.86 304.06 240.75 304.15 241.43C302.35 242.55 299.74 241.85 297.55 242.05C296.54 241.52 296.9 240.07 297.25 239.33ZM297.25 253.44C296.81 252.82 296.81 251.67 297.25 251.04H303.85V253.44H297.25ZM303.55 256.75C302.16 258.67 299.14 257.96 296.95 258.53L297.25 256.43L303.55 256.76V256.75ZM297.25 247.73C296.81 247.02 296.81 245.75 297.25 245.04C299.56 245.25 302.22 244.54 304.14 245.63L303.84 247.73H297.24H297.25ZM297.25 261.55C298.94 261.25 300.65 260.96 302.34 260.63C303.08 261.96 303.2 263.56 304.74 264.53C303.5 265.68 301.37 265.95 299.65 266.63L296.96 266.93C296.13 265.15 297.17 263.35 297.26 261.55H297.25ZM302.34 225.84C301.24 225.31 299.74 225.63 298.43 225.54C298.49 224.48 299.7 223.62 300.53 223.14C301.74 223.44 304.02 222.4 304.14 224.03C304.79 225.63 303.1 225.42 302.34 225.83V225.84ZM304.14 208.74C301.92 209.1 298.96 209.45 296.95 208.44L297.25 207.23C299.56 207.35 302.01 206.99 304.14 207.56V208.74ZM304.14 203.65L297.25 203.95C296.81 203.45 296.81 202.35 297.25 201.85C299.73 202.29 301.84 200.93 304.14 201.85V203.65ZM297.25 212.35C298.05 212.44 299.02 212.11 299.65 212.65L297.25 214.75C296.81 214.13 296.81 212.98 297.25 212.35ZM290.03 239.65L289.73 239.33L290.03 227.64C291.27 227.94 292.1 229.15 293.34 229.44C293.7 246.24 294.02 263.82 293.04 280.44H289.73C289.82 267.22 289.49 253.05 290.03 239.64V239.65ZM287.04 266.63C284.14 267.05 281.06 266.1 278.34 265.15C279.02 263.76 279.23 262.16 279.55 260.62C282.09 260.68 284.17 261.83 286.74 261.83C287.27 263.25 286.95 265.03 287.04 266.62V266.63ZM287.04 253.14C284.61 253.58 281.65 253.58 279.23 253.14L278.93 251.04L286.15 250.45C287.57 250.72 286.83 252.14 287.04 253.14ZM287.04 247.43C284.61 247.99 281.83 247.64 279.23 247.73C277.31 242.79 284.26 245.95 286.74 245.04C287.27 245.66 286.95 246.64 287.04 247.44V247.43ZM286.74 259.14C285.68 258.58 284.42 259.37 283.39 258.75L282.84 258.84L282.2 258.7C281.19 258.97 280.15 258.13 278.94 257.93V256.42H286.75C287.19 257.16 287.19 258.43 286.75 259.14H286.74ZM283.72 242.04L283.18 241.92C282.15 241.92 280.65 241.75 279.23 241.75C278.79 241.13 278.79 239.95 279.23 239.33C281.83 238.44 284.26 239.8 287.04 239.33C287.04 239.34 287.47 240.08 287.34 239.95V241.13C286.66 242.02 285.12 242.14 283.73 242.05L283.72 242.04ZM287.33 202.74V203.02L287.28 203.37L287.33 203.65C284.84 204.54 282.51 203.21 279.84 203.65C279.37 203.15 279.37 202.05 279.84 201.55C282.33 201.64 285.02 201.31 287.33 201.85V202.19V202.45V202.77V202.74ZM287.33 208.43C285.7 209.44 283.16 209.08 281.32 208.73C280.94 208.14 279.9 207.78 280.14 206.93C282.54 207.02 285.11 206.69 287.33 207.23V207.58V207.85L287.28 208.21L287.33 208.45V208.43ZM287.33 213.22C286.68 213.52 286.21 212.78 286.15 212.33C286.53 212.42 287.13 212.09 287.33 212.63L287.03 212.93L287.33 213.23V213.22ZM279.55 218.01C280.26 218.22 280.73 219.02 281.33 219.52C281.18 220.08 280.15 219.73 279.55 219.82V218.02V218.01ZM279.55 223.13C282.15 223.63 285.67 221.86 287.33 224.64V224.98V225.24L279.84 225.54C278.83 225.1 279.16 223.77 279.54 223.14L279.55 223.13ZM279.55 230.94C279.08 230.32 279.08 229.14 279.55 228.51C282.15 228.72 285.11 228.01 287.33 229.13V230.31C285.38 231.43 282.15 230.73 279.55 230.93V230.94ZM287.33 234.52L286.74 236.62L279.23 236.32V234.22C281.95 234.31 284.82 233.98 287.34 234.52H287.33ZM287.33 186.24V187.72C285.44 188.19 282.95 188.19 281.03 187.72C281.41 184.97 285.23 186.74 287.33 186.24ZM287.33 191.33L287.03 193.13C284.63 192.92 281.85 193.63 279.84 192.54L280.43 191.33H287.32H287.33ZM272.63 250.44L272.33 250.14C272.71 233.19 272.68 218.28 273.54 201.53H275.94C276.74 219.72 275.73 237.92 275.64 256.11H272.92C272.42 254.39 272.68 251.97 272.62 250.43L272.63 250.44ZM274.09 257.63C275.96 257.63 277.47 259.14 277.47 261.01C277.47 262.88 275.96 264.39 274.09 264.39C272.22 264.39 270.71 262.88 270.71 261.01C270.71 259.14 272.22 257.63 274.09 257.63ZM273.25 266.92C274.17 267.16 275.79 266.33 275.94 267.84C276.21 272.04 277.18 275.95 278.93 279.52H278.34C276 275.59 272.78 271.65 273.25 266.92ZM278.64 269.64C277.9 269.29 277.84 268.31 278.34 267.84L285.53 269.35L278.64 269.65V269.64ZM284.05 272.92H286.74C287.12 273.42 287.01 274.1 287.04 274.72L286.45 275.31C283.94 274.72 279.56 276.82 278.94 273.53C279.56 271.96 282.52 272.67 284.06 272.91L284.05 272.92ZM281.65 278.04C283.43 278.34 286.06 277.27 287.04 278.93V280.14C285.23 280.29 282.31 281.32 281.03 279.22C280.97 278.54 281.09 278.33 281.65 278.04ZM299.34 284.02C298.93 287.87 294.34 285.44 291.83 286.12H291.24C289.08 284.97 284.61 287.48 284.35 283.72C289.35 283.81 294.53 283.48 299.35 284.02H299.34ZM296.32 279.82C296.23 277.07 300.13 278.84 302.03 278.34C302.21 279.23 301.82 279.88 301.14 280.44C299.54 280.23 297.3 280.94 296.32 279.82ZM298.75 275.32C297.86 275.53 297.3 275.05 296.65 274.73C296.03 272.04 298.66 273.43 299.93 272.63C300.94 273.16 302.33 272.84 303.54 272.93C304.64 276.45 300.52 274.97 298.75 275.33V275.32ZM298.75 269.64C300.49 269.05 302.21 268.37 304.13 268.13V269.64H298.75ZM308.23 264.39C306.36 264.39 304.85 262.88 304.85 261.01C304.85 259.14 306.36 257.63 308.23 257.63C310.1 257.63 311.61 259.14 311.61 261.01C311.61 262.88 310.1 264.39 308.23 264.39ZM310.04 232.93C310.24 233.44 310.11 233.61 310.14 233.93V236.92L309.84 254.34C309.13 254.87 308.04 254.52 307.12 254.64C307.24 237.39 306.88 219.26 307.45 201.84H310.14C310.05 212.25 310.57 222.7 310.04 232.93ZM297.54 186.25C299.14 186.63 302.01 185.24 302.33 187.43V188.02C300.82 188.49 298.75 188.49 297.24 188.02L297.54 186.24V186.25ZM297.24 182.94V181.14C298.19 181.02 298.63 182.15 299.34 182.65L297.24 182.95V182.94ZM297.54 191.34C299.64 191.84 303.46 190.1 303.84 192.85C301.83 193.29 299.25 193.29 297.24 192.85L297.54 191.34ZM313.43 193.14C313.07 192.7 312.96 191.78 313.43 191.34L334.43 191.64V193.15C327.63 193.59 320.23 193.59 313.43 193.15V193.14ZM334.43 182.93C326.53 183.82 318.81 182.49 310.73 182.93C310.47 182.13 309.43 181.63 309.84 180.53H334.13C334.66 181.15 334.34 182.13 334.43 182.93ZM310.14 192.84C309.64 193.37 308.72 193.05 308.04 193.14C307.33 186.42 303.07 179.32 296.33 176.93C292.04 175.04 286.8 176.31 283.43 179.33C279.23 182.73 276.83 187.41 276.24 192.55C275.56 193.67 274.49 192.43 273.25 192.85C273.34 192.55 273.1 192.41 272.92 192.23C274.02 186.25 276.56 180.6 281.94 176.64C286.94 172.56 295.64 172.82 300.84 176.34V176.25C304.11 178.26 306.56 181.63 308.01 184.95L308.03 185.04C308.98 187.53 310.19 189.92 310.13 192.85L310.14 192.84ZM290.02 165.24L288.54 156.54C289.19 155.39 290.7 156.36 291.53 155.62L291.83 155.92C293.16 155.86 295.47 155.83 296.33 157.13C296.12 160.32 294.53 162.93 293.64 165.83C292.46 165.62 290.86 166.33 290.03 165.24H290.02ZM293.63 169.74C292.92 170.27 291.82 169.95 290.94 170.04C290.76 168.59 293.1 168.95 293.63 169.74ZM298.42 171.54C298.03 171.24 297.35 170.92 297.24 170.62L297.54 169.14C306 169.14 314.67 168.67 321.83 171.83C314.05 172.63 306.24 171.62 298.43 171.53L298.42 171.54ZM297.24 165.53L299.34 159.23C307.65 160.29 315.96 162.69 321.53 169.14C314.19 166.77 306.12 166.21 297.83 166.12L297.24 165.53ZM334.72 160.41C328.12 160.97 321.14 160.62 314.34 160.73L310.73 158.63C318.92 158.07 325.79 158.42 334.43 158.33C334.99 158.83 334.64 159.72 334.73 160.4L334.72 160.41ZM309.54 155.62C304.92 154.38 298.62 157.19 295.13 153.22C294.73 153.03 294.29 152.95 293.83 152.92H292.49C292.06 152.93 291.63 152.95 291.22 152.92H292.49C292.94 152.9 293.4 152.89 293.83 152.92H298.11C308.94 153.01 320.71 152.68 331.72 153.22L333.82 155.32C331.47 155.8 309.53 155.62 309.53 155.62H309.54ZM250.73 149.32L249.84 146.92L323.32 147.22C324.77 147.63 325.95 148.7 327.23 149.62C301.61 150.45 276.61 149.41 250.73 149.32ZM253.72 158.02C257.33 158.14 261.12 157.78 264.52 158.34L263.93 160.12H254.05C253.07 159.76 253.37 158.55 253.72 158.02ZM253.72 266.91H270.23C270.44 267.74 271.09 268.33 270.82 269.33C266.88 269.98 253.72 269.33 253.72 269.33C253.28 268.71 253.28 267.53 253.72 266.91ZM254.05 272.62L272.04 272.92L272.63 274.72C266.74 275.25 260.44 274.93 254.35 275.02C253.82 274.4 253.46 273.33 254.05 272.62ZM256.74 280.13C256.12 279.57 255.23 278.71 255.82 278.03L274.72 278.33C274.72 279.04 275.96 279.25 275.64 280.14H256.74V280.13ZM261.24 283.71C261.86 284.01 262.39 283.15 262.75 283.71C268.25 283.35 274.52 283.03 279.85 284.01L281.33 285.52C274.82 285.37 266.63 287.47 261.24 283.72V283.71ZM292.45 300.22H294.55C293.99 301.46 292.81 300.96 292.45 300.22ZM300.23 296.61C295.14 295.93 288.46 298.35 284.94 294.51C290.94 294.63 297.13 294.27 302.93 294.81L300.24 296.61H300.23ZM312.54 291.52L277.45 290.93L274.73 289.42L275.03 289.12C289.14 289.21 303.81 288.88 317.33 289.42C316.15 290.46 314.22 291.02 312.54 291.52ZM323.93 286.11L301.45 285.81C301.3 284.86 302.43 284.42 302.93 283.71C310.65 283.8 318.52 283.47 326.04 284.01L323.94 286.11H323.93ZM329.34 280.43C321.94 280.84 313.42 280.99 305.94 280.13L307.45 278.32L330.52 278.62C330.79 279.48 329.72 279.8 329.34 280.42V280.43ZM332.95 275.02C325.11 275.46 316.77 275.46 308.93 275.02C308.84 274.58 309.02 273.51 309.55 272.92L310.73 272.62C318.04 273.27 325.94 272.56 333.24 273.21L332.94 275.02H332.95ZM333.84 269.93C326.03 269.72 317.86 270.43 310.44 269.34L311.03 267.24C318.75 267.03 326.18 267.6 333.84 267.54C334.28 268.16 334.28 269.31 333.84 269.94V269.93ZM334.14 264.22C327.51 264.66 320.35 264.66 313.76 264.22C314.41 262.98 316.07 262.95 317.04 261.82H333.84C334.49 262.5 334.52 263.42 334.14 264.22ZM334.44 258.51L333.85 259.13L321.54 258.83L323.64 256.73H333.85C334.06 257.32 334.68 257.74 334.44 258.51ZM334.14 236.62C327.43 237.06 320.15 237.06 313.43 236.62L313.75 234.22H333.84C334.85 234.66 334.49 235.99 334.14 236.62ZM334.44 197.63V198.81C332.55 199.28 330.06 199.28 328.14 198.81C329.26 198.25 329.56 196.27 331.16 196.12C332.28 196.53 335.27 195.06 334.44 197.63ZM307.46 177.29C307.46 177.29 306.51 176.27 304.98 175.12C314.77 175.33 325.33 174.62 334.73 175.74L334.81 177.22C328.3 177.69 307.45 177.29 307.45 177.29H307.46ZM371.36 194.64C371.33 195.56 372.48 196.77 372.84 197.92C373.25 197.83 373.85 198.16 374.05 197.62C373.93 195.05 372.07 193.21 371.03 191.02C372.84 191.34 374.46 193.36 375.23 194.93C375.94 193.18 374.1 191.79 373.75 190.11C376.06 191.41 378.46 193.72 377.95 196.74L377.65 196.42C370.52 199.02 365.67 205.24 358.45 207.54C357.92 207.42 357.27 207.78 356.94 207.21C358.04 206.06 360.67 205.29 359.63 202.71C358.54 202.21 357.44 203.54 356.35 203.92C355.11 201.85 350.85 201.61 352.15 198.8C352.95 195.99 356.03 197.44 357.24 194.92C354.64 193.53 351.68 193 349.43 190.72C353.87 191.19 358.9 191.58 361.14 196.1C362.41 198.53 362.38 201.9 362.32 204.5C364.51 203.2 366.73 201.9 368.92 200.59C368.5 200.06 367.74 200.38 367.14 200.29C367.73 198.04 366.08 196.68 366.22 194.61C367.91 196.21 368.79 198.16 369.24 200.29C369.74 200.32 370.04 199.7 370.42 199.4C370.24 196.53 368.5 194.34 368.02 191.59C369.38 191.95 370.53 193.48 371.33 194.61L371.36 194.64ZM362.63 194.94C364.17 196.89 365.79 198.84 365.65 201.54C365.3 202.07 364.76 202.22 364.14 202.13C364.52 199.35 362.25 197.34 362.63 194.94ZM368.04 179.02L368.34 180.82C361.65 178.66 354.41 180.58 348.85 183.81C350.27 186.77 353.49 187.92 356.36 188.63V189.22C352.6 189.37 348.5 187.72 347.12 186.36C345.74 185.01 344.86 183.44 345.66 181.52C346.46 179.6 348.54 176.97 350.35 176.61L350.05 176.91L350.35 177.21L350.05 177.54L350.35 177.84L350.05 178.14L350.35 178.44L350.05 178.74L350.35 179.04L350.05 179.34L350.64 179.96C355.46 178.3 361.67 176.38 366.53 178.45C367.15 178.36 367.68 178.51 368.04 179.04V179.02ZM266.95 97.43C266.62 102.31 260.8 101.51 257.93 104.03C257.78 105.42 259.41 106.37 260.36 107.02L265.45 107.64C262.46 108.23 259.27 106.58 256.46 106.72C256.55 108.14 257.41 109.26 257.64 110.62C256.07 109.79 255.63 107.42 254.65 105.83C255.21 98.94 264.38 102.72 266.96 97.43H266.95ZM198.23 101.33L198.55 99.53C203.28 103.73 210.35 100 215.65 102.81C216.92 103.96 218.7 103.79 219.85 105.24H222.54C222.07 105.86 221.06 105.18 220.74 106.13C221.95 107.96 219.94 109.47 219.23 110.63L218.93 110.93C219.37 109.84 219.37 108.15 218.93 107.03C215.32 110.96 209.14 110.79 203.93 110.64C207.54 109.1 212.27 110.26 215.32 107.36C215.26 105.32 212.81 105.2 211.44 104.34C208.57 103.66 206.17 104.49 203.33 103.75C201.61 102.95 199.54 103.1 198.21 101.35L198.23 101.33ZM193.44 135.23L193.74 134.93L194.04 135.23L194.36 134.93L194.66 135.23C202.03 133.84 209.51 132.83 215.96 129.23C218.06 127.51 219.24 125.41 219.54 122.93C219.81 121.16 217.79 120.33 218.36 118.43C220.73 110 229.63 113.52 235.46 111.54C243.03 111.21 250.22 111.84 257.06 113.31C259.28 117.1 260.31 121.36 260.67 125.91C260.7 127.33 258.27 127.74 259.16 129.52C261.23 132.42 264.82 133.83 269.74 135.29C278.08 137.77 300.87 136.33 314.06 142.42C312.45 143.06 311.34 143.01 311.34 143.01C287.02 142.33 263.21 142.21 238.74 142.71C241.37 143.24 243.44 145.05 245.66 146.61L245.34 146.91C252.77 154.69 249.81 166.73 251.34 176.91C251.25 184.81 250.25 192.74 251.04 200.61C250.39 203.42 251.1 206.79 250.45 209.63C240.86 207.56 229.39 208.15 220.16 210.52L220.46 155.91C221.02 151.3 223.57 147.24 227.35 144.22L232.44 142.42C203.63 142.12 177 141.83 148.16 141.53C161.18 135.23 178.39 137.68 193.16 134.93L193.46 135.23H193.44ZM110.93 173.63C109.81 174.34 108 173.36 107.05 174.52C108.53 172.89 110.13 170.26 112.43 170.02C115.24 169.22 117.02 171.44 118.44 173.33L119.33 176.02C116.28 175.84 114.12 173.48 110.93 173.62V173.63ZM100.46 199.43C100.61 195.47 103.15 192.21 106.44 189.82C107.95 190.26 109.22 187.63 110.34 189.82C111.82 189.11 112.94 186.33 115.13 186.83C114.51 188.78 112.73 190.26 112.14 192.21C112.47 192.92 112.91 192.18 113.35 192.21C114.74 190.38 116.6 188.51 118.44 187.12C117.79 190.52 115.54 193.24 113.65 196.11L113.95 196.41C116.32 195.17 118.15 192.62 120.25 190.73L119.95 190.43L121.43 188.63C120.44 191.73 119 194.95 116.49 197.19V197.49C116.81 197.71 117.25 197.2 117.55 197.03L117.85 196.73L118.15 197.03L120.55 194.63C118.75 199.93 113.54 202.79 109.16 205.72C107.21 206.67 105.02 206.1 103.15 205.42C100.87 204.24 100.01 201.96 100.46 199.42V199.43ZM107.35 198.51C106.46 198.3 104.48 198.51 104.33 199.72C105.34 199.34 106.93 199.69 107.35 198.51ZM110.93 196.41C110.43 195.14 111.05 193.1 109.45 192.53C108.5 193.12 107.53 193.65 106.76 194.63C108 195.55 109.19 196.61 110.63 197.03C110.54 196.73 110.78 196.59 110.93 196.41ZM108.24 201.82H109.16C109.78 201.52 110.79 200.87 110.64 200.02L108.24 201.82ZM362.33 262.41C362.71 261.37 364.04 260.72 363.84 259.42C363.4 258.21 362.33 259.12 361.74 259.42C360.91 260.37 361.09 261.99 362.33 262.41ZM114.32 344.85C146.39 379.56 186.76 397.2 234.03 397.14C276.88 397.2 313.47 382.86 344.88 353.7C379.59 321.63 397.23 281.26 397.18 234C397.24 191.14 382.9 154.55 353.74 123.15C321.67 88.44 281.3 70.8 234.03 70.85C191.18 70.79 154.58 85.13 123.18 114.29C88.47 146.36 70.83 186.73 70.88 234C70.82 276.85 85.16 313.45 114.32 344.85ZM234 74.1C274.44 74.07 312.97 89.23 342.64 116.68C376.66 148.11 393.95 187.68 393.89 234C393.95 276 379.9 311.86 351.32 342.64C319.89 376.66 280.32 393.95 234 393.9C193.56 393.93 155.03 378.77 125.35 351.32C91.33 319.89 74.04 280.32 74.1 234C74.07 193.56 89.23 155.03 116.68 125.35C148.11 91.33 187.68 74.04 234 74.1ZM116.03 197.18V197.62H116.47V197.49C116.42 197.45 116.37 197.4 116.32 197.32C116.37 197.28 116.42 197.23 116.47 197.19L116.03 197.18ZM357 197.02L356.63 196.74L356.7 197.32L356.38 197.02C355.76 197.32 355.08 197.52 354.6 198.2C355.4 199.09 356.12 199.57 356.63 200.61C357.69 201.11 358.02 199.84 358.73 199.43C358.35 198.39 358.12 197.46 357 197.02ZM459.21 234C459.21 109.63 358.39 8.8 234.01 8.8C109.63 8.8 8.8 109.63 8.8 234C8.8 358.37 109.63 459.2 234 459.2C358.37 459.2 459.2 358.38 459.2 234H459.21ZM400.56 234C400.56 325.98 325.99 400.55 234.01 400.55C142.03 400.55 67.46 325.98 67.46 234C67.46 142.02 142.02 67.45 234 67.45C325.98 67.45 400.55 142.02 400.55 234H400.56ZM468.01 234C468 104.77 363.23 0 234 0C104.77 0 0 104.77 0 234C0 363.23 104.76 468 234 468C363.24 468 468 363.23 468 234H468.01ZM4.74 234C4.73 107.38 107.38 4.73 234 4.73C360.62 4.73 463.27 107.38 463.27 234C463.27 360.62 360.62 463.27 234 463.27C107.38 463.27 4.73 360.62 4.73 234H4.74ZM225.52 449.02C228.54 446.42 233.15 444.44 235.13 440.62L234.54 441.21L231.17 443.57C229.66 444.07 228.18 446.35 226.67 445.05C227.29 444.37 228.03 443.98 228.77 443.57C230.93 441.56 233.74 440.46 234.48 437.56L234.51 436.12C234.51 436.12 227.2 443.13 223.12 445.71C222.76 445.79 221.64 445.89 221.31 445.35L222.52 444.17L222.82 444.47C223.4 444.33 224.27 444.12 224.33 443.26C227.41 441.45 230.36 438.11 232.72 435.21V434.62L232.25 433.95L225.06 440.94L224.33 440.07C225.6 438.09 228.88 433.45 229.86 431.32C228.03 429.72 227.73 429.7 225.18 429.2C222.19 431.71 221.22 435.03 219.17 437.93C217.91 437.16 221.47 431.6 222.83 429.51C223.11 429.08 221.58 430.13 221.58 430.13C217.08 434.33 216.28 440.04 214.69 445.42C214.25 445.54 213.53 445.02 213.2 444.81C211.96 448.09 214.32 450.64 213.53 454.1C214.36 454.4 214.8 453.69 215.3 453.21C216.81 453.89 217.88 453.39 219.21 452.71C219.3 452.33 218.94 451.73 219.51 451.53C218.47 451.56 216.88 452.3 216.17 451.35C218.77 449.75 221.64 448.78 223.98 446.56C224.54 446.35 225.37 446.89 225.73 447.21C224.25 448.95 222.64 449.03 221.31 450.51C222.61 450.27 223.91 449.58 224.92 450.5C224.06 451.09 223.23 451.8 222.23 452.01C226.31 451.92 231.06 448.23 232.11 446C230.84 447.01 229.33 447.91 228.2 448.71C227.46 449.06 226.25 449.49 225.51 449.02H225.52ZM431.27 265.43L430.85 265.34C430.66 266.23 430.42 266.92 429.41 266.71L418.81 264.5C417.8 264.29 417.82 263.68 418.02 262.73L417.6 262.64L415.36 273.4L418.74 274.93L418.91 274.61C418.19 273.92 417.54 273.17 417.01 272.34C416.4 271.39 416.34 270.82 416.54 269.85L417 267.64C417.15 266.91 417.36 266.29 418.25 266.48L423.49 267.57L423.21 268.91C422.81 270.83 422.17 271.6 419.92 271.34L419.85 271.66L425.54 272.85L425.61 272.53C423.47 271.61 423.4 270.77 423.79 268.77L424.02 267.68L430.09 268.94L429.46 271.95C429.23 273.08 428.7 274.02 427.19 274.76C426.73 274.99 426.25 275.2 425.76 275.39V275.83L429.16 275.52L431.26 265.44L431.27 265.43ZM434.07 241.51L433.65 241.47C433.58 242.24 433.42 242.95 432.39 242.86L421.61 241.89C420.58 241.8 420.55 241.07 420.62 240.24L420.2 240.2L419.72 245.47L420.14 245.51C420.25 244.3 420.39 243.83 421.42 243.92L426.63 244.39L425.97 251.75L420.76 251.28C419.73 251.19 419.7 250.45 419.79 249.41L419.37 249.37L418.89 254.68L419.31 254.72C419.4 253.75 419.55 253.22 420.57 253.31L431.35 254.28C432.38 254.37 432.41 255.11 432.34 255.93L432.76 255.97L433.24 250.62L432.82 250.58C432.73 251.63 432.56 252.34 431.53 252.25L426.5 251.8L427.16 244.44L432.19 244.89C433.22 244.98 433.25 245.72 433.14 246.9L433.56 246.94L434.05 241.51H434.07ZM433.88 220.14C433.86 219.53 434 218.94 434.14 218.37L430.35 217.66L430.22 217.93C430.99 218.53 431.85 218.9 432.58 219.48C433.14 219.92 433.45 220.11 433.48 220.86L433.6 224.17L421.65 224.61C420.78 224.64 420.56 224.21 420.45 222.82L420.03 222.84L420.24 228.59L420.67 228.57C420.67 227.09 420.86 226.68 421.73 226.65L433.68 226.21L433.8 229.5C433.83 230.25 433.53 230.46 433.01 230.94C432.32 231.57 431.49 232.01 430.74 232.54L430.89 232.82L434.64 231.93C434.46 231.37 434.27 230.79 434.25 230.19L433.88 220.14ZM427.12 188.19L416.59 190.71C415.59 190.95 415.38 190.5 415.14 189.52L414.73 189.62L415.99 194.88L416.4 194.78C416.11 193.4 416.24 192.89 416.87 192.74L422.23 191.46L422.58 192.93C422.9 194.52 422.82 195.59 420.77 196.29L420.85 196.6L425.88 195.4L425.8 195.09C423.58 195.17 423.49 194.29 423 192.83L422.65 191.36L428.7 189.91L429.37 192.7C429.68 193.98 429.74 194.58 429.09 195.78C428.74 196.47 428.29 197.11 427.71 197.67L427.87 198.01L430.66 196.28L428.28 186.34L427.87 186.44C428.08 187.3 428.13 187.96 427.13 188.2L427.12 188.19ZM414.2 168.85C418.74 166.97 421.67 168.47 422.6 170.71C423.28 172.35 422.72 175.86 418.09 177.78C415.33 178.92 411.31 178.88 409.98 175.67C408.84 172.91 410.97 170.19 414.2 168.85ZM413.45 166.82C411.15 167.77 407.52 170.82 409.59 175.83C411.83 181.24 416.75 180.67 418.9 179.78C423.55 177.86 424.23 173.53 422.94 170.42C422.17 168.57 419.07 164.5 413.45 166.83V166.82ZM213.99 450.2L214.67 449.74L214.4 446.75C213.65 447.11 214.25 449.27 213.99 450.2ZM235.73 426.5C235.55 426.35 235.4 426.12 235.14 426.2C234.67 426.53 234.67 427.38 235.14 427.71C235.44 427.36 235.91 427.06 235.73 426.5ZM259.28 420.5C258.99 420.43 258.47 419.79 258.24 419.61C261.91 419.31 265.19 418.16 267.83 415.41C267.71 414.46 266.88 413.55 266.32 413.01L263.63 415.7C260.76 418.51 256.43 416.06 252.85 415.44C245.57 413.43 239.57 408.34 231.85 407.34C229.33 406.9 226.26 406.9 223.77 407.34C221.82 408.14 219.22 409.44 218.33 411.51C220.93 410.06 223.77 409.94 226.58 408.97L227.89 410.27C226 411.07 223.72 411.04 221.89 412.07C222.31 412.11 223.35 412.72 223.74 412.67C225.77 412.37 227.38 411.02 229.75 411.5L229.88 409.41C231.77 408.61 232.64 409.62 234.53 409.71C237.28 411.66 240.8 411.69 243.55 413.62C244.2 414.63 247.07 413.83 245.95 415.72C246.45 416.02 247.07 416.02 247.43 416.64L246.6 417.05C242.55 417.52 238.76 419.27 236.1 422.46L236.96 423.53C237.79 423.8 238.23 423.11 238.74 422.61C239.45 422.94 239.05 423.56 239.11 424.01C239.32 423.98 239.61 424.21 239.87 424.08C240.6 423.73 241.4 422.74 241.72 422.07C241.84 421.82 241.51 421.54 241.53 421.31C240.79 421.87 240.46 421.95 239.99 422.51L239.22 421.89C239.31 421.27 239.56 421.63 239.95 421.12C241.25 419.73 243.12 418.93 244.74 419.31C244.74 419.69 245.17 420.09 245.05 420.21C244.79 420.48 244.32 420.4 244.04 420.91C243.95 421.21 244.17 421.98 244.35 422.16C246.15 421.73 248.96 421.3 250.69 420.89C251.23 420.76 250.99 419.99 251.07 419.82C250.34 419.48 248.83 419.87 247.93 419.9C247.33 419.92 246.68 419.04 246.26 419.01C247.77 417.89 248.89 418.6 250.76 418.39C252.57 419.37 254.93 418.95 256.77 419.9L256.24 421.43C258.4 421.82 262.74 421.87 264.33 420.57L263.02 420.13C261.89 420.32 260.43 420.77 259.31 420.5H259.28ZM233.04 424.1L232.74 424.4L232.41 424.1C231.64 424.63 232.62 426.5 232.41 425.91C232.62 425.53 232.97 425.61 233.33 425.61C233.24 425.11 233.57 424.43 233.03 424.1H233.04ZM232.21 429.5L233.26 430.12V429.5H232.21ZM225.52 425.02C225.08 425.4 225.08 426.38 225.52 426.8C225.96 426.92 226.11 426.42 226.44 426.21C226.11 425.83 226.29 424.97 225.52 425.03V425.02ZM226.73 423.51C226.88 423.33 227.11 423.18 227.03 422.92H226.11V423.51H226.73ZM228.21 427.42H228.83C229.19 427.21 229.1 426.86 229.13 426.5C228.95 426.15 228.57 426.23 228.21 426.2V427.41V427.42ZM230.31 423.81C230.49 423.66 230.72 423.48 230.63 423.22C230.37 422.27 228.74 422.48 229.12 423.52C229.33 424.05 229.92 423.73 230.3 423.82L230.31 423.81ZM230.63 428.31C230.96 428.28 231.34 428.4 231.52 428.01C231.61 427.71 231.4 427.57 231.22 427.42C230.98 427.92 230.39 427.57 230.63 428.31ZM222.53 426.21C222.71 426.39 222.86 426.59 223.12 426.51C223.44 426.16 223.92 425.89 223.71 425.33C223.15 425.21 222.17 425.39 222.53 426.22V426.21ZM223.99 422.77C223.78 422.21 223.16 422.56 222.78 422.44C222.54 423.03 223.1 423.59 223.7 423.36C223.58 423.06 223.82 422.92 224 422.77H223.99ZM220.43 426.57V427.34L221.02 427.06L220.43 426.56V426.57ZM274.63 410.49C273.82 408.56 271.85 409.42 270.3 409.2C269.27 409.97 268.71 410.91 268.97 412.24C270 413.48 271.2 414.34 272.87 413.96C274.75 414.13 274.71 411.95 274.62 410.49H274.63ZM215.73 415.43C216.74 415.17 218.72 414.38 217.97 412.75C216.17 412.49 214.19 412.84 214.41 414.95C214.67 415.52 215.25 415.39 215.73 415.43ZM213.83 441.21L214.29 440.92L215.49 436.96L217.12 433.11C217.12 433.11 213.45 436.3 213.84 441.22L213.83 441.21ZM339.65 406.25C334.89 398.3 326.03 406.13 322.28 399.86C320.69 397.2 321.62 394.17 324.21 392.62C327 390.95 330.36 392.27 332.45 394.46L333.22 394L329.6 389.49C327.57 389.7 325.51 390.38 323.76 391.43C319.79 393.81 317.32 398.63 319.94 403.01C324.58 410.75 333.92 402.82 337.68 409.08C339.15 411.54 338.78 414.28 336.22 415.81C333.8 417.26 331.42 416.81 329.64 414.67L328.87 415.13L331.99 419.12C333.46 418.52 335.02 417.99 336.4 417.16C340.51 414.7 342.25 410.59 339.65 406.24V406.25ZM380.8 383.81L376.95 378.88L376.19 379.56C377.4 381.9 377.94 382.74 375.31 385.1L371.49 388.54L356.82 372.22C354.98 370.18 356.07 369.15 357.59 367.73L356.91 366.97C355.48 368.31 354.13 369.57 352.73 370.83C351.45 371.98 350.14 373.05 348.74 374.32L349.42 375.08C350.99 373.72 352.13 372.75 353.97 374.79L368.64 391.11L364.2 395.1C361.86 397.2 361.01 396.07 359.5 394.57L358.71 395.28L362.62 400.16L363.23 399.61C362.85 398.95 363.34 398.03 364.39 397.09L377.64 385.17C378.37 384.52 379.18 383.83 380.21 384.33L380.79 383.8L380.8 383.81ZM405.55 351.08C404.76 352.2 404.03 353.37 402.58 355.42C398.3 361.48 393.95 360.43 391.67 358.82C388.94 356.89 388.37 353.42 389.4 350.39C383.07 350.3 379.42 350.02 376.91 350.32C375.03 350.53 373.49 350.88 372.33 352.52L371.5 351.93C372.06 351.13 372.7 350.37 373.26 349.57C373.89 348.67 374.52 347.72 375.12 346.8C380.39 346.15 385.65 346.65 390.91 346.9L392.97 343.98L385.53 338.73C383.28 337.15 382.39 338.34 381.16 340.02L380.33 339.43C381.42 337.89 382.45 336.56 383.45 335.15C384.54 333.61 385.57 332.08 386.67 330.46L387.5 331.05C386.27 332.59 385.76 334.19 387.59 335.48L403.85 346.96C406.09 348.54 406.99 347.35 408.22 345.67L409.05 346.26C407.77 348 406.65 349.52 405.54 351.09L405.55 351.08ZM392.8 346.4C390.01 350.34 391.52 353.72 393.83 355.35C396.62 357.32 399.71 357.3 402.39 353.51C402.96 352.71 403.25 352.09 403.56 351.45L394.17 344.81C393.73 345.22 393.19 345.85 392.81 346.4H392.8ZM425.57 315.29L403.58 314.46C401.95 314.39 398.46 314.12 397.43 314.38C396.48 314.63 395.78 315.62 395.31 316.78L394.37 316.4C394.93 315.02 395.58 313.63 396.14 312.25C396.86 310.47 397.53 308.71 398.22 306.91L399.16 307.29L398.9 307.95C398.53 308.86 398.27 310.02 399.29 310.44C399.69 310.6 400.83 310.73 401.62 310.75L407.63 311.07L411.1 302.52L408.88 300.69C407.54 299.6 406.08 298.41 404.95 297.95C403.24 297.26 402.83 298.49 402.24 299.73L401.9 300.57L400.96 300.19C401.54 298.77 402.2 297.35 402.77 295.93C403.36 294.48 403.93 292.97 404.48 291.5L405.43 291.88C404.78 294.2 404.91 294.72 406.58 296.46C407.65 297.57 408.89 298.58 410.05 299.6L421.15 309.53C421.87 310.16 423.02 311.18 424.11 311.62C424.47 311.77 424.76 311.88 425.09 311.93C425.14 312.84 425.2 313.84 425.83 314.69L425.58 315.31L425.57 315.29ZM409.34 311.12L421.61 311.57L421.64 311.5L412.38 303.63L409.34 311.12ZM388.8 133.67C385.5 135.57 384.8 135.61 383.1 132.65L382.21 133.16C383.73 135.64 385.17 138.16 386.62 140.68C388.58 144.08 390.47 147.53 392.42 150.93C394.38 150.25 396.41 149.77 398.43 149.33L398.1 148.43C393.7 149.2 392.39 147.95 390.31 144.72L389.1 142.61C387.16 139.24 388.04 138.56 391.81 136.39L397.6 133.06L399.69 136.7C401.2 139.32 401.82 140.41 398.56 142.29L398.95 142.97C400.06 142.38 401.56 141.29 402.65 140.66C403.87 139.96 405.75 138.97 406.54 138.6L406.15 137.92C405.31 138.27 403.16 139.5 401.58 136.74L399 132.25L408.67 126.69L410.96 130.67C412.92 134.07 412.84 136.15 409.94 138.5L410.5 139.08L415.57 136.16C413.61 132.9 411.75 129.66 409.87 126.4C408.56 124.12 407.23 121.81 405.99 119.49L405.11 120C406.55 122.75 406.73 123.37 403.94 124.97L388.83 133.66L388.8 133.67ZM364.27 111.44C366.6 113.93 369.87 115.82 372.88 117.36L373.37 116.9L373.4 116.07L377.16 112.56C379.25 110.6 380.27 111.69 381.16 112.64L381.91 111.94C381.08 111.11 379.81 109.82 378.58 108.5C377.37 107.21 376.17 105.86 374.94 104.49L374.19 105.19C375.61 106.71 376.63 107.8 374.54 109.76L370.27 113.76C369.55 113.62 367.65 113.2 365.53 110.94C360.7 105.78 362.82 98.1 367.78 93.46C372.45 89.09 379.63 87.86 384.38 92.93C387.38 96.14 388.67 100.15 386.04 104.01L386.63 104.64L390.19 100.4C388.85 97.19 387.23 94.14 384.85 91.58C379.24 85.59 370.43 85.07 364.41 90.71C360.31 94.54 356.77 103.4 364.3 111.45L364.27 111.44ZM322.97 77.25C325.44 78.78 327.87 80.38 330.29 81.97C333.57 84.13 336.81 86.35 340.09 88.51C341.54 87.02 343.13 85.67 344.74 84.38L344.04 83.73C340.45 86.4 338.73 85.87 335.41 83.92L333.38 82.58C330.13 80.44 330.61 79.44 333 75.8L336.67 70.23L340.18 72.54C342.71 74.2 343.75 74.89 341.68 78.04L342.34 78.47C343.06 77.44 343.91 75.79 344.6 74.74C345.38 73.56 346.61 71.83 347.15 71.15L346.5 70.72C345.9 71.41 344.55 73.48 341.89 71.73L337.56 68.88L343.69 59.57L347.53 62.09C350.81 64.25 351.68 66.14 350.15 69.54L350.91 69.81L354.12 64.92C350.9 62.89 347.78 60.84 344.63 58.77C342.43 57.32 340.2 55.86 338.05 54.35L337.49 55.2C340.02 57 340.45 57.48 338.69 60.17L329.11 74.73C327.02 77.91 326.41 78.26 323.55 76.39L322.99 77.24L322.97 77.25ZM288.37 61.76C291.61 62.96 294.82 64.24 298.07 65.53C301.17 66.76 304.24 67.98 307.31 69.28L310.88 64.23L310.14 63.77C307.6 66.86 305.74 67.3 301.51 65.62C296.33 63.56 296.19 62.2 297.27 59.5L303.98 42.61C304.99 40.06 306.4 40.57 308.34 41.3L308.72 40.35C306.88 39.66 305.19 39.03 303.51 38.37C301.87 37.72 300.2 37.02 298.5 36.3L298.12 37.25C300.04 38.05 301.41 38.64 300.4 41.2L293.05 59.7C292.23 61.78 290.54 61.66 288.76 60.83L288.38 61.78L288.37 61.76ZM251.18 53C254.59 53.58 257.98 54.23 261.41 54.89C264.69 55.52 267.92 56.14 271.19 56.85L273.75 51.23L272.93 50.91C271.02 54.42 269.27 55.2 264.79 54.34C259.32 53.29 258.93 51.97 259.48 49.12L262.91 31.27C263.43 28.57 264.9 28.81 266.95 29.17L267.14 28.17C265.21 27.84 263.42 27.53 261.65 27.19C259.91 26.86 258.15 26.48 256.34 26.09L256.15 27.09C258.19 27.52 259.64 27.84 259.12 30.54L255.36 50.08C254.94 52.28 253.26 52.47 251.36 51.99L251.17 52.99L251.18 53ZM161.58 52.44C164.4 60.81 171.79 64.58 180.5 61.65C182.96 60.82 186.82 58.4 188.06 56.91L187.09 51.19L186.16 51.25C186.73 55.41 184.53 58.96 180.85 60.2C175.12 62.13 167.95 58.54 165.42 51.02C162.41 42.09 167.66 37.13 171.94 35.69C176.11 34.29 179.78 35 181.96 39.11L182.89 38.8L180.73 33.61C177.53 33.57 174.3 33.58 171.29 34.59C164 37.04 159.03 44.8 161.6 52.43L161.58 52.44ZM106.78 88.69L102.36 77.37L102.42 77.32L113.01 83.53L106.78 88.68V88.69ZM99.53 75.38C99.79 75.57 99.99 75.81 100.24 76.12C100.99 77.03 101.52 78.47 101.86 79.37L106.92 93.37C107.45 94.81 108.07 96.29 108.48 97.78C109.13 100.1 108.99 100.62 107.32 102.35L107.97 103.14C109.15 102.11 110.37 101.05 111.58 100.05C112.76 99.07 114.02 98.13 115.2 97.16L114.55 96.37L113.85 96.95C112.74 97.77 111.79 98.65 110.62 97.23C109.85 96.29 109.12 94.55 108.46 92.96L107.37 90.29L114.48 84.41L119.62 87.54C120.31 87.94 121.25 88.59 121.53 88.92C122.23 89.77 121.45 90.67 120.69 91.29L120.15 91.74L120.8 92.53C122.26 91.27 123.68 90.04 125.16 88.82C126.31 87.87 127.54 86.95 128.69 86L128.04 85.21C127.07 86.01 125.99 86.55 125.04 86.32C124.01 86.06 121.06 84.16 119.66 83.33L100.7 72.17L100.19 72.6C100.34 73.65 99.92 74.55 99.54 75.38H99.53ZM69.13 106.52L69.93 107.16C71.26 105.56 72.22 104.42 74.37 106.14L89.76 118.45C91.91 120.17 91 121.36 89.74 123.01L90.54 123.65C91.74 122.09 92.86 120.63 94.03 119.16C95.11 117.81 96.22 116.54 97.4 115.07L96.6 114.43C95.27 116.03 94.31 117.17 92.16 115.45L76.77 103.14C74.62 101.42 75.53 100.23 76.79 98.59L75.99 97.95C74.79 99.51 73.7 100.94 72.57 102.35C71.47 103.73 70.31 105.11 69.12 106.53L69.13 106.52ZM42.71 152.19L43.62 152.64C45.12 149.62 46.86 148.86 49.88 150.36L64.01 157.38C68.47 159.6 67.67 161.22 66.61 163.36L67.52 163.81C68.25 162.25 69 160.65 69.77 159.1C70.54 157.55 71.4 156.01 72.16 154.46L71.25 154.01C69.36 157.81 68.19 157.7 63.34 155.29L50.23 148.77L79.55 140.42L79.95 139.61L59.63 129.51C56.18 127.8 56.59 126.55 57.65 124.41L56.74 123.96C56.06 125.33 55.46 126.7 54.78 128.07C53.98 129.69 53.12 131.32 52.28 132.92L53.19 133.37C54.97 129.87 56.32 129.62 59.56 131.23L73.55 138.18C69.76 139.28 64.64 140.85 59.85 142.2C53.43 144.01 48.61 145.69 45.74 146.06C45.27 147.01 44.85 148.03 44.38 148.98C43.84 150.07 43.28 151.11 42.7 152.18L42.71 152.19ZM31.32 192.39C31.63 191.05 31.86 189.69 32.43 187.25C34.1 180.02 38.52 179.35 41.24 179.98C44.49 180.73 46.34 183.74 46.53 186.92C52.42 184.61 55.9 183.49 58.12 182.26C59.78 181.35 61.08 180.44 61.53 178.5L62.52 178.73C62.3 179.69 62 180.62 61.78 181.58C61.53 182.65 61.31 183.77 61.1 184.85C56.47 187.45 51.4 188.98 46.45 190.73L45.65 194.21L54.52 196.26C57.2 196.88 57.57 195.43 58.08 193.42L59.07 193.65C58.65 195.49 58.19 197.11 57.8 198.8C57.38 200.64 57 202.44 56.6 204.36L55.61 204.13C56.17 202.25 56.03 200.56 53.85 200.06L34.46 195.58C31.78 194.96 31.41 196.41 30.9 198.42L29.91 198.19C30.43 196.09 30.9 194.27 31.33 192.39H31.32ZM44.89 191.9C45.98 187.2 43.3 184.64 40.55 184.01C37.22 183.24 34.37 184.44 33.33 188.95C33.11 189.91 33.07 190.58 33.03 191.3L44.24 193.89C44.49 193.34 44.75 192.56 44.9 191.91L44.89 191.9ZM35.79 287.32L52.89 283.95C56.63 283.21 57.3 283.4 57.96 286.75L58.96 286.55C58.53 284.59 58.15 282.83 57.81 281.1C57.46 279.33 57.15 277.55 56.81 275.62L55.81 275.82C56.17 277.87 56.42 279.34 53.73 279.87L44.37 281.71L43.44 277.01C42.77 273.62 43.61 273.42 46.18 272.43L46.03 271.66C45.01 271.94 43.21 272.38 41.98 272.62C40.59 272.89 38.5 273.23 37.75 273.29L37.92 274.17C40.75 274.13 41.27 274.31 41.89 277.47L42.79 282.01L31.85 284.16L30.95 279.62C30.12 275.42 30.88 273.59 34.08 272.56L33.75 271.7L28.36 273C29.11 276.41 29.81 279.96 30.5 283.46C31.05 286.27 31.53 289.1 32.07 291.83L33.07 291.63C32.59 288.57 32.62 287.92 35.78 287.3L35.79 287.32ZM45.1 318.07L63.33 310.59C65.87 309.55 66.47 310.91 67.3 312.82L68.24 312.43C67.46 310.63 66.72 308.94 66.01 307.19C65.35 305.59 64.79 304 64.07 302.26L63.12 302.65C63.87 304.59 64.4 305.98 61.86 307.03L43.63 314.51C41.09 315.55 40.49 314.19 39.66 312.28L38.72 312.67C39.5 314.47 40.22 316.13 40.91 317.8C41.58 319.43 42.23 321.12 42.89 322.84L43.84 322.45C43.09 320.51 42.56 319.12 45.1 318.07ZM87.4 344.78C85.41 341.96 83.48 339.09 81.53 336.19C79.67 333.42 77.83 330.69 76.03 327.88L70.24 330.03L70.59 330.83C74.43 329.71 76.22 330.4 78.76 334.18C81.87 338.8 81.21 340 78.8 341.63L63.72 351.78C61.44 353.32 60.57 352.1 59.38 350.4L58.53 350.97C59.66 352.58 60.7 354.05 61.71 355.55C62.7 357.02 63.67 358.54 64.67 360.09L65.52 359.52C64.39 357.77 63.59 356.51 65.87 354.98L82.38 343.87C84.24 342.62 85.56 343.67 86.56 345.37L87.41 344.8L87.4 344.78ZM97.22 372.97L103.14 378.48L92.49 384.33L92.43 384.28L97.22 372.97ZM117.3 375.42C116.12 374.38 114.92 373.31 113.77 372.24C112.65 371.2 111.55 370.07 110.43 369.03L109.73 369.78L110.39 370.39C111.34 371.38 112.34 372.21 111.09 373.56C110.26 374.45 108.63 375.4 107.13 376.26L104.63 377.68L97.88 371.39L100.32 365.89C100.63 365.16 101.15 364.14 101.44 363.82C102.19 363.02 103.18 363.67 103.9 364.34L104.42 364.82L105.12 364.07C103.69 362.79 102.28 361.53 100.87 360.22C99.78 359.2 98.71 358.1 97.62 357.09L96.92 357.84C97.84 358.7 98.51 359.7 98.41 360.68C98.28 361.74 96.78 364.9 96.14 366.4L87.53 386.65L88.02 387.11C89.04 386.82 89.99 387.12 90.86 387.4C91.02 387.12 91.23 386.89 91.5 386.6C92.3 385.74 93.67 385.02 94.51 384.58L107.74 377.75C109.1 377.03 110.49 376.24 111.91 375.63C114.13 374.69 114.66 374.75 116.6 376.19L117.3 375.44V375.42ZM138.94 389.55C136.72 388.21 132.38 386.82 130.44 386.84L126.7 391.28L127.35 391.95C130.16 388.83 134.29 388.21 137.62 390.22C142.79 393.35 144.68 401.15 140.58 407.93C135.7 415.99 128.53 415.18 124.67 412.85C120.91 410.58 119.08 407.31 120.81 402.99L119.97 402.48L117.4 407.49C119.44 409.96 121.53 412.42 124.25 414.07C130.83 418.05 139.97 416.83 144.13 409.95C148.7 402.39 146.8 394.32 138.94 389.56V389.55ZM209.37 38.98C208.53 31.92 211.54 26.59 217.23 25.91C223.9 25.12 228.27 32.7 228.98 38.63C229.82 45.69 226.81 51.02 221.12 51.7C214.45 52.49 210.08 44.91 209.37 38.98ZM205.22 40.62C206.1 48.03 213 53.93 220.8 53C229.34 51.99 233.98 44.12 233.13 36.99C232.25 29.58 225.35 23.68 217.55 24.61C209.01 25.62 204.37 33.49 205.22 40.62ZM25.83 235.23C26.05 227.38 32.89 221.41 40.35 221.61C47.53 221.81 54.64 227.54 54.4 236.14C54.18 243.99 47.34 249.96 39.89 249.76C32.71 249.56 25.6 243.83 25.84 235.23H25.83ZM53.15 235.63C53.31 229.9 48.46 226.15 41.36 225.96C35.4 225.79 27.26 229.02 27.07 235.73C26.91 241.46 31.76 245.21 38.86 245.4C44.82 245.57 52.96 242.34 53.15 235.63ZM218.15 374.57L218.07 374.28C216.93 374.51 216.78 374.53 216.61 373.91L214.23 365.07L213.98 365.14C213.72 365.57 213.31 366.62 211.92 367.31L212 367.62C212.84 367.47 213.23 367.37 213.42 367.56C213.55 367.7 213.65 367.97 213.78 368.43L215.35 374.25C215.52 374.88 215.19 374.98 214.19 375.33L214.27 375.62L218.15 374.58V374.57ZM227.56 372.45L227.5 372.22C229.34 370.82 230.14 368.77 229.78 366.51L229.74 366.49C229.28 367.3 228.91 367.76 227.96 368.02C226.34 368.46 224.84 367.48 224.42 365.89C223.93 364.08 224.89 362.35 226.7 361.87C228.95 361.27 230.45 363.12 230.97 365.07C231.77 368.06 230.23 371.04 227.56 372.46V372.45ZM226.95 362.09C225.46 362.49 225.34 364.14 225.68 365.39C226.03 366.67 226.82 367.82 228.31 367.42C229.62 367.07 229.75 365.67 229.45 364.55C229.16 363.47 228.42 361.7 226.96 362.09H226.95ZM244.29 368.04C241.95 368.35 240.76 365.18 240.52 363.37C240.27 361.47 240.75 358.1 243.14 357.78C244.44 357.61 246.49 358.91 246.96 362.52C247.23 364.57 246.85 367.7 244.29 368.04ZM243.18 358.07C241.44 358.3 241.73 361.84 241.88 363.04C242.04 364.25 242.58 367.98 244.45 367.73C246.14 367.51 245.69 363.53 245.57 362.55C245.42 361.41 244.91 357.84 243.18 358.06V358.07ZM263.21 356.47L260.02 356.18C259.64 356.15 259.25 356.11 258.86 356.04C258.54 356 258.44 355.96 258.48 355.58L258.24 355.56L257.09 358.2L257.42 358.23C257.62 357.91 257.68 357.51 257.93 357.31C258.03 357.24 258.15 357.16 258.34 357.18L262.34 357.54L258.66 364.02C258.01 365.14 257.54 365.98 257.54 366.04C257.51 366.34 257.92 366.36 258.13 366.38C258.7 366.43 258.83 366.2 259.04 365.75L263.18 356.87L263.22 356.46L263.21 356.47ZM176.11 320.82C176.92 320.82 177.5 320.91 177.5 321.85V331.69C177.5 332.63 177.06 332.72 176.14 332.72V333.1H181.06V332.72C179.77 332.68 179.35 332.46 179.35 331.87V326.86H180.73C182.2 326.92 183.13 327.21 183.32 329.17H183.61V324.47H183.32C182.92 326.45 182.13 326.34 180.73 326.47H179.35V320.82H181.96C183.15 320.82 183.7 320.89 184.62 321.72C185.15 322.18 185.63 322.71 186 323.33L186.33 323.26L185.39 320.43H176.1V320.81L176.11 320.82ZM197.14 320.86C200.21 320.86 203.6 322.94 203.6 327.51C203.6 329.62 202.37 333.95 197.05 333.95C192.13 333.95 190.83 329.84 190.83 327.58C190.83 322.06 195.33 320.86 197.14 320.86ZM197.05 333.56C200.21 333.56 201.64 330.2 201.64 327.49C201.64 322.94 198.89 321.25 197.27 321.25C195.07 321.25 192.79 323.2 192.79 327.65C192.79 330.83 194.33 333.56 197.05 333.56ZM255.44 318.38C261.16 318.08 263.13 321.02 263.32 324.5C263.54 328.72 260.96 330.98 255.74 331.26C253.96 331.36 252.18 331.32 250.42 331.43L250.4 331.05C251.28 331 251.71 330.89 251.66 329.95L251.14 320.13C251.09 319.19 250.43 319.14 249.73 319.18L249.71 318.8C251.62 318.68 253.51 318.49 255.44 318.38ZM253.5 329.53C253.57 330.94 254.45 330.93 255.89 330.87C259.41 330.72 261.47 328.28 261.28 324.8C261.07 320.79 258.98 318.58 254.89 318.8C253.52 318.87 252.94 319.07 253 320.28L253.49 329.53H253.5ZM290.44 316.42C296.16 316.1 298.14 319.05 298.33 322.53C298.56 326.75 295.99 329.02 290.76 329.31C288.98 329.41 287.2 329.38 285.44 329.49L285.42 329.11C286.3 329.06 286.73 328.94 286.68 328.01L286.14 318.19C286.09 317.26 285.42 317.2 284.73 317.24L284.71 316.86C286.61 316.74 288.52 316.54 290.44 316.43V316.42ZM288.52 327.57C288.6 328.98 289.48 328.97 290.91 328.91C294.43 328.75 296.48 326.3 296.29 322.82C296.07 318.81 293.98 316.61 289.89 316.83C288.51 316.91 287.94 317.1 288.01 318.31L288.52 327.56V327.57ZM210.07 321.01V321.4C211.27 321.43 211.4 321.57 211.43 322.79L211.57 329.65C211.62 331.93 212.74 333.89 216.47 333.81C220.3 333.73 221.24 331.8 221.19 329.25L221.05 322.59C221.03 321.56 221.61 321.16 222.58 321.14V320.76L218.61 320.84V321.22C219.89 321.27 220.53 321.33 220.56 322.59L220.7 329.25C220.74 331.4 220.09 333.34 217.04 333.4C213.99 333.46 213.47 331.4 213.45 330.1L213.3 322.74C213.28 321.75 213.51 321.3 214.89 321.29V320.9L210.09 321L210.07 321.01ZM229.59 320.34L229.61 320.73C230.27 320.71 230.74 321.2 231.27 321.7L231.84 331.43L231.83 331.49C231.81 332.43 231.17 332.47 230.3 332.61L230.32 332.99L234.11 332.77L234.09 332.38C232.86 332.42 232.38 332.08 232.34 331.45L231.8 322.2L242.36 332.43L242.63 332.41L241.97 321.16C241.93 320.56 242.32 320.18 243.57 319.91L243.55 319.52L239.78 319.74L239.8 320.12C240.92 320.17 241.43 320.26 241.48 321.2L241.97 329.59L232.32 320.17L229.59 320.33V320.34ZM267.33 317.44L267.35 317.82C268.18 317.77 268.84 317.82 268.9 318.75L269.51 328.57C269.57 329.5 269.03 329.63 268.15 329.69L268.17 330.07L278.13 329.45L278.66 326.12L278.34 326.05C277.91 326.85 277.41 327.6 276.81 328.26C276.12 329.02 275.64 329.22 274.74 329.27L272.69 329.4C272.01 329.44 271.42 329.4 271.37 328.58L271.07 323.73L272.31 323.65C274.09 323.54 274.92 323.91 275.23 325.95L275.52 325.93L275.19 320.66L274.9 320.68C274.61 322.78 273.89 323.04 272.04 323.18L271.03 323.24L270.68 317.62L273.46 317.45C274.5 317.38 275.46 317.62 276.47 318.77C276.79 319.12 277.08 319.49 277.37 319.87L277.75 319.75L276.67 316.86L267.33 317.45V317.44ZM220.52 102.27C220.94 102.24 221.31 101.96 221.45 101.57L224.42 93.82L224.16 93.38C224.64 93.1 224.99 92.67 225.34 92.24L228.75 100.93C229.07 101.76 229.25 102.15 230.03 102.27V102.58H226.23V102.27C226.67 102.27 227.45 102.27 227.45 101.69C227.45 101.27 226.63 99.4 226.44 98.76H222.96C222.81 99.28 221.97 101.27 221.97 101.65C221.97 102.22 222.74 102.22 223.15 102.28V102.59H220.51V102.28L220.52 102.27ZM224.64 94.24L223.12 98.36H226.28L224.63 94.24H224.64ZM232.05 102.58H235.07V102.27C234.09 102.24 233.73 101.95 233.73 101.45V94.09L241.63 102.69H241.85V93.74C241.85 93.26 242.17 92.98 243.18 92.82V92.51H240.18V92.82C241.07 92.91 241.46 93.01 241.46 93.75V100.43L234.24 92.52H232.07V92.83C232.59 92.85 232.94 93.25 233.34 93.68V101.42L233.33 101.46C233.27 102.2 232.76 102.2 232.06 102.28V102.59L232.05 102.58ZM245.06 92.52C246.58 92.5 248.09 92.43 249.62 92.43C254.17 92.43 255.61 94.85 255.61 97.62C255.61 100.97 253.47 102.66 249.31 102.66C247.9 102.66 246.48 102.56 245.08 102.57V102.26C245.78 102.26 246.13 102.19 246.13 101.44V93.63C246.13 92.89 245.61 92.81 245.05 92.81V92.5L245.06 92.52ZM249.45 102.36C252.25 102.39 253.98 100.54 253.98 97.77C253.98 94.58 252.42 92.74 249.17 92.74C248.08 92.74 247.61 92.87 247.61 93.83V101.19C247.61 102.31 248.31 102.34 249.45 102.36ZM109.82 150.46L112.2 153.62L112.47 153.5C112.28 152.56 111.87 151.74 111.69 150.84C111.55 150.15 111.44 149.81 111.9 149.24L113.92 146.69L123.12 153.97C123.79 154.5 123.67 154.96 122.87 156.07L123.2 156.33L126.7 151.9L126.37 151.64C125.43 152.74 125.03 152.93 124.36 152.4L115.16 145.12L117.16 142.59C117.62 142.02 117.97 142.04 118.67 142.02C119.58 141.98 120.48 142.19 121.38 142.27L121.44 141.97L118.08 140.03C117.86 140.56 117.63 141.11 117.26 141.58L111.14 149.32C110.77 149.79 110.29 150.14 109.82 150.48V150.46ZM122.62 135.68L122.88 136.02C123.49 135.55 124.12 135.18 124.76 135.99L131.43 144.53C132.07 145.34 131.55 145.87 130.9 146.38L131.16 146.72L135.34 143.46L135.08 143.12C134.12 143.87 133.68 144.09 133.04 143.27L129.82 139.14L135.65 134.58L138.87 138.71C139.51 139.52 138.99 140.05 138.16 140.7L138.42 141.03L142.63 137.74L142.37 137.41C141.6 138.01 141.11 138.26 140.48 137.45L133.81 128.91C133.18 128.1 133.69 127.57 134.34 127.06L134.08 126.72L129.84 130.03L130.1 130.37C130.93 129.72 131.56 129.35 132.2 130.17L135.31 134.15L129.48 138.71L126.37 134.72C125.73 133.91 126.25 133.38 127.19 132.65L126.93 132.32L122.63 135.68H122.62ZM141.83 122.67L141.96 123.08C142.83 122.81 143.55 122.69 143.86 123.68L147.07 134.03C147.38 135.02 146.83 135.29 145.9 135.58L146.03 135.99L156.54 132.73L156.24 129.03H155.88C155.63 130 155.28 130.94 154.81 131.8C154.27 132.79 153.8 133.13 152.86 133.42L150.7 134.09C149.99 134.31 149.34 134.43 149.07 133.56L147.48 128.44L148.79 128.03C150.66 127.45 151.65 127.63 152.52 129.73L152.83 129.63L151.11 124.07L150.8 124.17C151.03 126.49 150.33 126.96 148.39 127.59L147.33 127.92L145.49 121.99L148.42 121.08C149.52 120.74 150.6 120.74 151.98 121.71C152.41 122 152.82 122.32 153.23 122.66L153.61 122.44L151.7 119.62L141.85 122.68L141.83 122.67ZM166.12 116.64C169.49 116.46 173.35 118.53 173.63 123.56C173.76 125.88 172.66 130.72 166.81 131.04C161.4 131.34 159.72 126.89 159.58 124.41C159.25 118.33 164.12 116.75 166.12 116.64ZM166.78 130.62C170.25 130.43 171.62 126.65 171.46 123.66C171.19 118.65 168.06 116.96 166.28 117.06C163.86 117.19 161.47 119.47 161.74 124.38C161.93 127.87 163.79 130.79 166.78 130.62ZM184.94 115.01C187.36 114.93 190.12 115.76 190.22 118.63C190.29 120.75 189.03 121.75 187.17 122.44C188.49 123.75 189.93 125.64 190.8 127.29C191.19 128.05 191.85 128.39 192.78 128.35L192.8 128.78L189.45 128.89C188.55 127.46 186.84 124.75 185.58 123.54C184.93 122.89 184.02 122.8 183.15 122.79L183.31 127.54C183.35 128.57 183.83 128.66 185.07 128.61V129.03L179.83 129.21V128.79C180.95 128.75 181.37 128.64 181.27 127.61L180.9 116.78C180.86 115.75 180.38 115.67 179.45 115.7V115.28C181.23 115.22 183.09 115.07 184.95 115.01H184.94ZM184.94 122.23C187.02 122 188.09 120.75 188.02 118.69C187.95 116.61 186.55 115.38 184.43 115.45C183.4 115.49 182.9 115.66 182.94 116.71L183.13 122.37C183.74 122.35 184.34 122.29 184.95 122.23H184.94ZM196.17 114.92L196.2 115.34C197.13 115.28 197.66 116.24 198.12 116.88L201.69 122.26L202 126.96C202.07 127.99 201.35 128.14 200.58 128.19L200.61 128.61L205.72 128.28L205.69 127.86C204.84 127.92 204.11 127.86 204.04 126.83L203.71 121.85L207.09 115.57C207.38 115.04 207.62 114.74 208.24 114.56L208.21 114.14L204.9 114.36L204.93 114.78C205.42 114.78 206.23 114.8 206.27 115.46C206.34 116.47 203.96 120.19 203.45 121.3L201.59 118.56C201.34 118.17 199.87 116.1 199.85 115.84C199.8 115.11 200.77 115.05 201.28 115.02L201.25 114.6L196.17 114.93V114.92ZM268.32 125.85L269.36 115.74C269.46 114.78 269.02 114.64 268.07 114.54L268.11 114.14C269.89 114.29 271.72 114.47 273.55 114.66C276 114.91 277.99 116.32 277.71 119.02C277.42 121.77 274.64 122.36 272.33 122.13L270.63 121.95L270.21 126.05C270.11 127.01 270.78 127.18 271.76 127.28L271.72 127.68L266.8 127.17L266.84 126.77C267.88 126.88 268.21 126.82 268.31 125.85H268.32ZM275.69 118.6C275.89 116.66 275.16 115.23 273.09 115.01C271.83 114.88 271.39 114.87 271.28 115.93L270.7 121.55L271.32 121.61C273.87 121.87 275.36 121.84 275.69 118.59V118.6ZM280.87 127.84C281.91 128.04 282.32 128.02 282.45 127.06L284.37 117.07C284.55 116.12 284.12 115.94 283.27 115.78L283.34 115.39C285 115.71 286.73 115.96 288.44 116.29C290.68 116.72 293.03 118.06 292.52 120.71C292.15 122.67 290.78 123.31 288.94 123.56C289.87 125.03 290.8 127.07 291.24 128.76C291.44 129.53 291.97 129.98 292.83 130.15L292.75 130.54L289.66 129.95C289.14 128.46 288.14 125.62 287.24 124.25C286.78 123.52 285.96 123.25 285.17 123.06L284.33 127.44C284.15 128.39 284.58 128.57 285.71 128.79L285.64 129.18L280.8 128.25L280.88 127.86L280.87 127.84ZM290.49 120.3C290.86 118.38 289.84 116.97 287.88 116.59C286.93 116.41 286.44 116.47 286.25 117.44L285.25 122.66C285.81 122.77 286.38 122.84 286.94 122.91C288.89 123.13 290.13 122.21 290.49 120.31V120.3ZM296.13 130.02C296.67 130.12 297.22 129.88 297.53 129.43L303.72 120.57L303.53 119.94C304.22 119.74 304.8 119.3 305.38 118.87L306.96 130.91C307.1 132.06 307.2 132.61 308.16 133.01L308.06 133.4L303.26 132.2L303.36 131.81C303.91 131.95 304.91 132.2 305.09 131.46C305.22 130.93 304.78 128.31 304.74 127.44L300.34 126.34C299.99 126.96 298.3 129.2 298.18 129.67C298 130.39 298.98 130.63 299.47 130.83L299.37 131.22L296.04 130.39L296.14 130L296.13 130.02ZM303.86 121.17L300.65 125.9L304.65 126.89L303.87 121.16L303.86 121.17ZM316.25 135.17C317.71 135.7 319.23 135.68 320.72 135.31L320.92 136.33L321.3 136.47L322.74 132.49L322.4 132.37C321.17 134.45 318.95 135.72 316.45 134.82C315.06 134.32 314.18 133.05 313.93 131.79C313.59 130.17 313.66 129.03 314.22 127.46C314.63 126.32 315.29 125 316.16 124.15C317.37 122.97 319.23 122.29 320.87 122.89C323.37 123.79 324.18 126.34 323.65 128.77L323.97 128.89L325.47 124.73L325.18 124.63L324.33 125.19C323.41 123.99 322.44 123.04 321 122.52C317.25 121.17 313.6 122.91 312.25 126.64C310.85 130.51 312.37 133.78 316.24 135.18L316.25 135.17ZM325.81 139.82L330.29 142.84L330.51 142.51C329.39 141.69 329.19 141.32 329.64 140.64L335.92 131.33L338.48 133.06C339.06 133.45 339.06 133.8 339.13 134.46C339.23 135.33 339.1 136.2 339.09 137.06L339.38 137.1L340.78 133.6C340.25 133.43 339.71 133.25 339.24 132.93L331.41 127.64C330.94 127.32 330.57 126.89 330.21 126.46L327.58 129.11L327.71 129.36C328.59 129.11 329.35 128.66 330.19 128.43C330.84 128.25 331.15 128.12 331.74 128.51L334.32 130.25L328.04 139.56C327.58 140.24 327.13 140.16 326.02 139.47L325.8 139.8L325.81 139.82ZM345.39 138.94C346.1 139.7 346.5 140.26 345.8 140.93L338.39 147.9C337.69 148.56 337.15 148.13 336.43 147.37L336.14 147.64L339.85 151.58L340.14 151.31C339.4 150.52 339 149.96 339.7 149.3L347.1 142.33C347.81 141.67 348.34 142.1 349.08 142.89L349.37 142.62L345.66 138.68L345.37 138.95L345.39 138.94ZM348.66 150.31C345.17 152.5 344.35 156.01 346.54 159.5C347.37 160.82 348.57 161.74 349.97 162.37L349.5 163.29L349.71 163.63L353.29 161.38L353.1 161.07C350.85 161.94 348.32 161.58 346.91 159.33C346.12 158.08 346.21 156.54 346.79 155.39C347.52 153.91 348.28 153.05 349.69 152.16C350.72 151.52 352.05 150.88 353.26 150.75C354.94 150.57 356.82 151.18 357.75 152.66C359.16 154.91 358.23 157.42 356.31 159L356.49 159.29L360.24 156.94L360.08 156.68L359.07 156.6C359.09 155.09 358.91 153.74 358.1 152.44C355.98 149.06 352.03 148.18 348.67 150.29L348.66 150.31ZM361.47 163.69L352.12 166.73C351.23 167.02 350.97 166.52 350.7 165.69L350.33 165.81L353.42 175.3L356.77 174.98V174.66C355.88 174.45 355.03 174.14 354.24 173.73C353.33 173.25 353.02 172.83 352.74 171.98L352.11 170.03C351.9 169.38 351.79 168.8 352.57 168.55L357.19 167.05L357.58 168.24C358.13 169.93 357.98 170.83 356.08 171.64L356.17 171.92L361.19 170.29L361.1 170.01C359 170.25 358.56 169.62 357.97 167.87L357.66 166.91L363.01 165.17L363.87 167.82C364.19 168.81 364.2 169.79 363.34 171.06C363.08 171.45 362.8 171.83 362.5 172.2L362.71 172.54L365.24 170.77L362.35 161.88L361.98 162C362.23 162.78 362.35 163.44 361.46 163.73L361.47 163.69Z" fill="currentColor"/>
</g>
</svg>
