<?xml version="1.0" encoding="UTF-8"?>
<svg id="Layer_2" data-name="Layer 2" xmlns="http://www.w3.org/2000/svg" viewBox="0 0 40.91 49.13">
  <defs>
    <style>
      .cls-1 {
        fill: #231f20;
      }
    </style>
  </defs>
  <g id="Layer_1-2" data-name="Layer 1">
    <path class="cls-1" d="M24.18,22.93v5.06h-5.06c-9.29,9.23-10.18,9.83-10.18,12.57-.06,2.56,0,3.93-.36,5.42-.54,1.97-2.44,3.16-4.29,3.16-2.26,0-4.29-2.14-4.29-4.41s2.56-4.59,5.54-7.44c.89-.77,6.08-5.96,11.49-11.38v-5.06h5.06l6.79-6.79c2.08-2.08,3.16-3.45,3.16-5.48,0-2.56-.06-3.93.3-5.42.54-1.97,2.44-3.16,4.29-3.16.66,0,1.31.18,1.85.48,1.55.89,2.44,2.38,2.44,3.93,0,.95-.36,1.97-1.13,2.86-1.07,1.25-2.62,2.86-4.41,4.59-1.37,1.25-2.86,2.8-3.93,3.81-.77.83-6.55,6.55-7.27,7.27Z"/>
  </g>
</svg>