<?xml version="1.0" encoding="UTF-8"?>
<svg id="Layer_2" data-name="Layer 2" xmlns="http://www.w3.org/2000/svg" viewBox="0 0 33.05 49.43">
  <defs>
    <style>
      .cls-1 {
        fill: #231f20;
      }
    </style>
  </defs>
  <g id="Layer_1-2" data-name="Layer 1">
    <path class="cls-1" d="M26.03,38.06c4.65,0,7.03,3.33,7.03,6.61,0,2.8-2.2,4.76-4.53,4.76-1.19,0-2.32-.48-3.1-1.13-1.91-1.61-.77-5.6-2.02-6.43-.77-.54-2.68-.77-4.41-.83h-6.31V11.38h-5.66C2.38,11.38,0,8.04,0,4.76,0,1.97,2.2,0,4.53,0c1.19,0,2.32.48,3.1,1.13,1.91,1.61.77,5.6,2.02,6.43.77.54,2.68.77,4.41.83h6.31v29.66h5.66Z"/>
  </g>
</svg>