<?xml version="1.0" encoding="UTF-8"?>
<svg id="Layer_2" data-name="Layer 2" xmlns="http://www.w3.org/2000/svg" viewBox="0 0 37.74 51.4">
  <defs>
    <style>
      .cls-1 {
        fill: #231f20;
      }
    </style>
  </defs>
  <g id="Layer_1-2" data-name="Layer 1">
    <path class="cls-1" d="M37.12,6.58c-.36.66-.84,1.13-1.49,1.55-1.31.78-2.69,1.01-5.13,1.73-1.97.54-2.98,1.91-4.48,4.42L7.16,46.57v4.83H0v-7.16h5.07c5.01-8.59,18.2-31.21,18.68-31.99.72-1.31,1.79-3.16,2.69-4.77.36-.6.66-1.19,1.01-1.73.84-1.43,1.61-2.75,2.27-3.76,1.43-2.09,3.88-2.51,5.85-1.37.36.24.72.54,1.07.9,1.31,1.25,1.43,3.46.48,5.07Z"/>
  </g>
</svg>