<?xml version="1.0" encoding="UTF-8"?>
<svg id="Layer_2" data-name="Layer 2" xmlns="http://www.w3.org/2000/svg" viewBox="0 0 17.37 31.93">
  <defs>
    <style>
      .cls-1 {
        fill: #231f20;
      }
    </style>
  </defs>
  <g id="Layer_1-2" data-name="Layer 1">
    <path class="cls-1" d="M17.37,27.93c0,2.09-1.79,4-3.88,4-1.67,0-3.34-1.13-3.82-2.86-.36-1.37-.3-2.57-.3-4.89,0-1.67-.48-2.51-3.22-5.31H0v-7.16h5.19c1.67-1.73,2.69-2.57,2.74-3.64,0-1.43-1.55-1.79-1.55-3.82,0-2.15,1.19-4.24,4.06-4.24,2.63,0,4.12,2.15,4.12,4.3,0,2.51-1.49,3.76-7.4,9.61v2.21l5.25,5.13c2.86,2.74,4.95,4.59,4.95,6.68Z"/>
  </g>
</svg>