<?xml version="1.0" encoding="UTF-8"?>
<svg id="Layer_2" data-name="Layer 2" xmlns="http://www.w3.org/2000/svg" viewBox="0 0 32.4 30.55">
  <defs>
    <style>
      .cls-1 {
        fill: #231f20;
      }
    </style>
  </defs>
  <g id="Layer_1-2" data-name="Layer 1">
    <path class="cls-1" d="M32.4,5.37c0,.9-.3,1.79-.78,2.45-1.31,1.73-4.06,1.79-5.49.78-2.33-1.61-1.13-3.16-2.27-4.36-.54-.42-1.55-.6-2.8-.6v4.18h-7.04v22.74h-7.16V12.95s-.12-2.39-.48-3.82c-.3-1.13-1.25-1.97-2.86-1.97-1.85,0-3.52-1.19-3.52-3.4S1.19,0,4,0s4.83,2.21,4.83,5.55v2.27h5.07V.66h12.23c3.82,0,6.27,1.61,6.27,4.71Z"/>
  </g>
</svg>