<?xml version="1.0" encoding="UTF-8"?>
<svg id="Layer_2" data-name="Layer 2" xmlns="http://www.w3.org/2000/svg" viewBox="0 0 26.92 31.57">
  <defs>
    <style>
      .cls-1 {
        fill: #231f20;
      }
    </style>
  </defs>
  <g id="Layer_1-2" data-name="Layer 1">
    <path class="cls-1" d="M26.91,4.18c-.06,1.55-.89,3.28-2.45,4.83l-7.46,7.4v2.98h-7.16c-1.79,1.85-3.16,2.98-3.22,4.12,0,.78,1.61,2.68,1.43,4.65-.12,1.61-1.43,3.4-3.94,3.4S.12,29.48,0,27.4c0-1.55.9-3.28,2.45-4.83l7.4-7.34v-2.98h7.16c1.79-1.85,3.28-3.04,3.28-4.18,0-1.49-1.43-2.33-1.43-4.66C18.86,1.86,19.99.12,22.8,0c2.8-.12,4.24,1.85,4.12,4.18Z"/>
  </g>
</svg>