<?xml version="1.0" encoding="UTF-8"?>
<svg id="Layer_2" data-name="Layer 2" xmlns="http://www.w3.org/2000/svg" viewBox="0 0 29.48 38.23">
  <defs>
    <style>
      .cls-1 {
        fill: #231f20;
      }
    </style>
  </defs>
  <g id="Layer_1-2" data-name="Layer 1">
    <path class="cls-1" d="M29.48,33.89c0,2.26-2.14,4.35-4.41,4.35-2.56,0-4.41-2.08-4.41-4.7,0-1.55.54-4.05.54-5.18,0-1.43-.65-2.74-5.24-8.93h-5v-4.17c-1.13.06-1.91.12-2.44.6-1.13,1.19.06,2.74-2.26,4.35-.6.42-1.49.66-2.38.66-2.44,0-3.87-1.79-3.87-3.87,0-3.34,2.74-4.71,6.25-4.71h11.85V0h7.15v12.33h-7.15v5l6.85,8.93c2.56,3.22,4.53,5.72,4.53,7.62Z"/>
  </g>
</svg>