<?xml version="1.0" encoding="UTF-8"?>
<svg id="Layer_2" data-name="Layer 2" xmlns="http://www.w3.org/2000/svg" viewBox="0 0 39.54 49.07">
  <defs>
    <style>
      .cls-1 {
        fill: #231f20;
      }
    </style>
  </defs>
  <g id="Layer_1-2" data-name="Layer 1">
    <path class="cls-1" d="M31.03,25.85H11.49v7.15l.18,7.92c.12,4.76-1.85,8.16-6.02,8.16-1.19,0-2.38-.36-3.22-.83-1.67-.95-2.44-2.86-2.44-4.59,0-1.01.3-2.02.83-2.74,2.14-2.86,4.71-1.25,6.19-2.92,1.07-1.07,1.49-3.1,1.49-5v-14.29h19.53v-2.62l-.24-7.92c-.06-2.8.77-5.6,2.32-6.85,1.19-.95,2.5-1.31,3.75-1.31,3.27,0,5.66,2.14,5.66,5.42,0,1.01-.3,2.02-.83,2.74-2.14,2.86-4.7,1.25-6.25,2.86-1.01,1.13-1.43,3.16-1.43,5.06v9.77Z"/>
  </g>
</svg>